<svg width="151" height="34" viewBox="0 0 151 34" fill="none" xmlns="http://www.w3.org/2000/svg">
<g clip-path="url(#clip0_10495_148)">
<mask id="mask0_10495_148" style="mask-type:luminance" maskUnits="userSpaceOnUse" x="0" y="0" width="151" height="34">
<path d="M150.199 0.200195H0.398926V33.8002H150.199V0.200195Z" fill="white"/>
</mask>
<g mask="url(#mask0_10495_148)">
<mask id="mask1_10495_148" style="mask-type:luminance" maskUnits="userSpaceOnUse" x="0" y="0" width="34" height="34">
<path d="M33.7161 0.200195H0.427246V33.8002H33.7161V0.200195Z" fill="white"/>
</mask>
<g mask="url(#mask1_10495_148)">
<path fill-rule="evenodd" clip-rule="evenodd" d="M21.6953 10.0158C20.3267 9.09286 18.7177 8.6002 17.0717 8.6002V0.200195C20.3636 0.200195 23.5817 1.1855 26.3188 3.03151C29.056 4.87748 31.1893 7.50131 32.4492 10.5711C33.7089 13.6409 34.0385 17.0188 33.3963 20.2777C32.7541 23.5366 31.1689 26.5301 28.8411 28.8796C26.5133 31.2291 23.5475 32.8292 20.3188 33.4774C17.0902 34.1256 13.7435 33.7929 10.7021 32.5214C7.66074 31.2498 5.06125 29.0965 3.23234 26.3338C1.40343 23.571 0.427246 20.3229 0.427246 17.0002H8.74946C8.74946 18.6615 9.23756 20.2856 10.152 21.667C11.0665 23.0484 12.3662 24.125 13.8869 24.7608C15.4076 25.3966 17.0809 25.5629 18.6953 25.2387C20.3096 24.9147 21.7925 24.1147 22.9564 22.9399C24.1203 21.7651 24.9129 20.2684 25.234 18.639C25.5551 17.0095 25.3903 15.3205 24.7604 13.7857C24.1305 12.2508 23.0638 10.9388 21.6953 10.0158Z" fill="#007DFC"/>
<path fill-rule="evenodd" clip-rule="evenodd" d="M8.74946 0.200195C8.74946 1.3033 8.53424 2.3956 8.11596 3.41473C7.69777 4.43388 7.08476 5.3599 6.31196 6.13992C5.53915 6.91994 4.62173 7.53869 3.61203 7.96079C2.60233 8.38289 1.52014 8.6002 0.427246 8.6002V17.0002C2.61303 17.0002 4.77741 16.5657 6.79681 15.7214C8.8162 14.8771 10.6511 13.6396 12.1966 12.0796C13.7422 10.5196 14.9682 8.66756 15.8047 6.6293C16.6412 4.59104 17.0717 2.4064 17.0717 0.200195H8.74946Z" fill="#007DFC"/>
</g>
<path d="M52.9001 29.9531L49.731 26.5259C49.5989 26.5449 49.4574 26.5545 49.3065 26.5545C49.1556 26.5735 49.0142 26.583 48.8821 26.583C46.8637 26.583 45.1188 26.2118 43.6474 25.4692C42.1949 24.7076 41.0725 23.5747 40.2802 22.0706C39.5069 20.5664 39.1201 18.6909 39.1201 16.4442C39.1201 14.1404 39.5163 12.2459 40.3085 10.7608C41.1008 9.25662 42.242 8.14278 43.7323 7.41926C45.2226 6.6767 46.9957 6.30542 49.0519 6.30542C51.1457 6.30542 52.9283 6.6767 54.3997 7.41926C55.89 8.14278 57.0312 9.25662 57.8235 10.7608C58.6158 12.2459 59.0119 14.1404 59.0119 16.4442C59.0119 18.8242 58.5781 20.7758 57.7103 22.299C56.8425 23.8222 55.6164 24.9455 54.0319 25.6691L58.3894 29.9531H52.9001ZM49.0519 23.0987C49.9762 23.0987 50.7873 22.9654 51.4853 22.6989C52.1833 22.4323 52.768 22.0324 53.2396 21.4994C53.7112 20.9662 54.0696 20.3188 54.3148 19.5573C54.5601 18.7766 54.6827 17.8912 54.6827 16.9012V16.0158C54.6827 15.0067 54.5601 14.1118 54.3148 13.3312C54.0696 12.5505 53.7112 11.9032 53.2396 11.3891C52.768 10.856 52.1833 10.4561 51.4853 10.1896C50.7873 9.92299 49.9762 9.78977 49.0519 9.78977C48.1464 9.78977 47.3447 9.92299 46.6467 10.1896C45.9487 10.4561 45.364 10.856 44.8924 11.3891C44.4208 11.9032 44.0624 12.5505 43.8172 13.3312C43.5908 14.1118 43.4776 15.0067 43.4776 16.0158V16.9012C43.4776 17.8912 43.5908 18.7766 43.8172 19.5573C44.0624 20.3188 44.4208 20.9662 44.8924 21.4994C45.364 22.0324 45.9487 22.4323 46.6467 22.6989C47.3447 22.9654 48.1464 23.0987 49.0519 23.0987Z" fill="#1F3449"/>
<path d="M66.9049 26.5828C65.3958 26.5828 64.198 26.1639 63.3113 25.3262C62.4248 24.4884 61.9814 23.1365 61.9814 21.2706V11.2175H65.9145V20.6138C65.9145 21.1088 65.9711 21.5277 66.0843 21.8704C66.1975 22.1941 66.3579 22.4606 66.5653 22.6701C66.7917 22.8795 67.0652 23.0318 67.3859 23.127C67.7066 23.2222 68.065 23.2698 68.4611 23.2698C69.0459 23.2698 69.5741 23.127 70.0457 22.8414C70.5173 22.5558 70.8851 22.1655 71.1492 21.6705C71.4134 21.1564 71.5453 20.5852 71.5453 19.9569V11.2175H75.4784V26.2401H72.2527L71.9698 24.1838H71.7717C71.4134 24.6597 70.9889 25.0786 70.4984 25.4404C70.0269 25.8021 69.4893 26.0782 68.8856 26.2686C68.282 26.4781 67.6217 26.5828 66.9049 26.5828Z" fill="#1F3449"/>
<path d="M79.0894 9.01878V5.59155H83.0224V9.01878H79.0894ZM79.0894 26.2405V11.2179H83.0224V26.2405H79.0894Z" fill="#1F3449"/>
<path d="M85.0776 26.2401L90.4821 18.4432L85.4738 11.2175H90.1991L93.0287 15.73H93.1702L96.028 11.2175H100.47L95.4338 18.4146L100.753 26.2401H96.1129L92.8872 21.1278H92.7457L89.52 26.2401H85.0776Z" fill="#1F3449"/>
<path d="M106.013 26.5828C105.523 26.5828 104.994 26.5256 104.428 26.4114C103.882 26.2972 103.362 26.0972 102.872 25.8116C102.382 25.507 101.976 25.0786 101.655 24.5264C101.353 23.9552 101.203 23.2317 101.203 22.3559C101.203 21.3086 101.429 20.4424 101.882 19.7569C102.334 19.0715 102.976 18.5383 103.806 18.1576C104.655 17.7577 105.664 17.4816 106.833 17.3293C108.003 17.1769 109.295 17.1008 110.71 17.1008V15.987C110.71 15.549 110.634 15.1682 110.484 14.8446C110.351 14.5209 110.107 14.2638 109.748 14.0735C109.408 13.883 108.927 13.7879 108.305 13.7879C107.682 13.7879 107.173 13.864 106.777 14.0164C106.4 14.1686 106.126 14.3686 105.956 14.6161C105.806 14.8446 105.73 15.1016 105.73 15.3872V15.73H101.91C101.891 15.6347 101.882 15.549 101.882 15.4729C101.882 15.3777 101.882 15.2634 101.882 15.1302C101.882 14.2543 102.146 13.5023 102.674 12.874C103.202 12.2266 103.947 11.7316 104.909 11.3888C105.871 11.0461 106.994 10.8748 108.277 10.8748C109.654 10.8748 110.804 11.0556 111.729 11.4174C112.671 11.7791 113.389 12.3122 113.879 13.0168C114.388 13.7212 114.643 14.6065 114.643 15.6728V22.4987C114.643 22.8414 114.737 23.0984 114.926 23.2698C115.133 23.4221 115.36 23.4983 115.605 23.4983H116.539V26.0972C116.35 26.1924 116.058 26.2876 115.662 26.3828C115.266 26.4971 114.785 26.5542 114.219 26.5542C113.672 26.5542 113.181 26.4685 112.747 26.2972C112.332 26.1448 111.983 25.9259 111.7 25.6403C111.417 25.3356 111.219 24.9738 111.106 24.555H110.908C110.588 24.9548 110.191 25.307 109.72 25.6117C109.267 25.9163 108.729 26.1544 108.107 26.3257C107.503 26.4971 106.805 26.5828 106.013 26.5828ZM107.343 23.584C107.871 23.584 108.342 23.5078 108.758 23.3555C109.173 23.1841 109.522 22.9651 109.804 22.6986C110.087 22.413 110.305 22.0703 110.455 21.6704C110.625 21.2706 110.71 20.8422 110.71 20.3852V19.557C109.654 19.557 108.71 19.6331 107.88 19.7855C107.051 19.9187 106.39 20.1568 105.9 20.4995C105.428 20.8422 105.192 21.3181 105.192 21.9275C105.192 22.2702 105.277 22.5653 105.447 22.8128C105.617 23.0603 105.862 23.2507 106.183 23.384C106.503 23.5173 106.89 23.584 107.343 23.584Z" fill="#1F3449"/>
<path d="M118.493 26.24V11.2175H121.747L122.058 13.2738H122.256C122.596 12.7787 123.001 12.3503 123.473 11.9886C123.963 11.6268 124.51 11.3507 125.114 11.1604C125.718 10.9699 126.378 10.8748 127.095 10.8748C128.075 10.8748 128.934 11.0556 129.67 11.4174C130.406 11.7791 130.971 12.3503 131.368 13.131C131.782 13.9116 131.99 14.9303 131.99 16.1869V26.24H128.057V16.8152C128.057 16.3392 128 15.9394 127.887 15.6157C127.774 15.273 127.604 14.9969 127.378 14.7875C127.17 14.559 126.906 14.3971 126.586 14.302C126.264 14.2067 125.907 14.1592 125.51 14.1592C124.925 14.1592 124.397 14.302 123.926 14.5876C123.454 14.8732 123.086 15.2634 122.822 15.7585C122.558 16.2535 122.426 16.8247 122.426 17.4721V26.24H118.493Z" fill="#1F3449"/>
<path d="M139.448 26.5828C138.958 26.5828 138.429 26.5256 137.863 26.4114C137.317 26.2972 136.797 26.0972 136.307 25.8116C135.817 25.507 135.411 25.0786 135.09 24.5264C134.788 23.9552 134.638 23.2317 134.638 22.3559C134.638 21.3086 134.864 20.4424 135.317 19.7569C135.77 19.0715 136.411 18.5383 137.241 18.1576C138.09 17.7577 139.099 17.4816 140.269 17.3293C141.438 17.1769 142.73 17.1008 144.145 17.1008V15.987C144.145 15.549 144.069 15.1682 143.919 14.8446C143.786 14.5209 143.542 14.2638 143.183 14.0735C142.843 13.883 142.362 13.7879 141.74 13.7879C141.117 13.7879 140.608 13.864 140.212 14.0164C139.835 14.1686 139.561 14.3686 139.391 14.6161C139.241 14.8446 139.165 15.1016 139.165 15.3872V15.73H135.345C135.326 15.6347 135.317 15.549 135.317 15.4729C135.317 15.3777 135.317 15.2634 135.317 15.1302C135.317 14.2543 135.581 13.5023 136.109 12.874C136.638 12.2266 137.382 11.7316 138.344 11.3888C139.306 11.0461 140.429 10.8748 141.712 10.8748C143.089 10.8748 144.239 11.0556 145.164 11.4174C146.107 11.7791 146.824 12.3122 147.314 13.0168C147.823 13.7212 148.078 14.6065 148.078 15.6728V22.4987C148.078 22.8414 148.172 23.0984 148.361 23.2698C148.568 23.4221 148.795 23.4983 149.04 23.4983H149.974V26.0972C149.785 26.1924 149.493 26.2876 149.097 26.3828C148.701 26.4971 148.22 26.5542 147.654 26.5542C147.107 26.5542 146.616 26.4685 146.182 26.2972C145.767 26.1448 145.418 25.9259 145.135 25.6403C144.852 25.3356 144.654 24.9738 144.541 24.555H144.343C144.023 24.9548 143.627 25.307 143.155 25.6117C142.702 25.9163 142.164 26.1544 141.542 26.3257C140.938 26.4971 140.24 26.5828 139.448 26.5828ZM140.778 23.584C141.306 23.584 141.777 23.5078 142.193 23.3555C142.608 23.1841 142.957 22.9651 143.24 22.6986C143.523 22.413 143.74 22.0703 143.89 21.6704C144.06 21.2706 144.145 20.8422 144.145 20.3852V19.557C143.089 19.557 142.145 19.6331 141.315 19.7855C140.486 19.9187 139.825 20.1568 139.335 20.4995C138.863 20.8422 138.627 21.3181 138.627 21.9275C138.627 22.2702 138.712 22.5653 138.882 22.8128C139.052 23.0603 139.297 23.2507 139.618 23.384C139.938 23.5173 140.325 23.584 140.778 23.584Z" fill="#1F3449"/>
</g>
</g>
<defs>
<clipPath id="clip0_10495_148">
<rect width="149.8" height="33.6" fill="white" transform="translate(0.399902 0.199951)"/>
</clipPath>
</defs>
</svg>
