<svg width="151" height="34" viewBox="0 0 151 34" fill="none" xmlns="http://www.w3.org/2000/svg">
<g opacity="0.4" clip-path="url(#clip0_8160_3471)">
<mask id="mask0_8160_3471" style="mask-type:luminance" maskUnits="userSpaceOnUse" x="0" y="0" width="151" height="34">
<path d="M150.399 0.100586H0.599121V33.7006H150.399V0.100586Z" fill="white"/>
</mask>
<g mask="url(#mask0_8160_3471)">
<mask id="mask1_8160_3471" style="mask-type:luminance" maskUnits="userSpaceOnUse" x="0" y="0" width="34" height="34">
<path d="M33.9163 0.100586H0.627441V33.7006H33.9163V0.100586Z" fill="white"/>
</mask>
<g mask="url(#mask1_8160_3471)">
<path fill-rule="evenodd" clip-rule="evenodd" d="M21.8955 9.91624C20.5269 8.99325 18.9178 8.50059 17.2719 8.50059V0.100586C20.5638 0.100586 23.7819 1.08589 26.519 2.9319C29.2562 4.77787 31.3895 7.4017 32.6493 10.4715C33.9091 13.5413 34.2387 16.9192 33.5965 20.1781C32.9543 23.437 31.3691 26.4305 29.0412 28.78C26.7135 31.1295 23.7477 32.7295 20.519 33.3778C17.2904 34.026 13.9437 33.6933 10.9023 32.4218C7.86093 31.1502 5.26145 28.9969 3.43254 26.2342C1.60362 23.4714 0.627441 20.2233 0.627441 16.9006H8.94966C8.94966 18.5619 9.43775 20.186 10.3522 21.5674C11.2666 22.9488 12.5664 24.0254 14.0871 24.6612C15.6078 25.297 17.2811 25.4633 18.8955 25.1391C20.5098 24.8151 21.9927 24.0151 23.1566 22.8403C24.3205 21.6655 25.1131 20.1688 25.4341 18.5393C25.7553 16.9099 25.5905 15.2209 24.9606 13.6861C24.3307 12.1511 23.264 10.8392 21.8955 9.91624Z" fill="#1D214A"/>
<path fill-rule="evenodd" clip-rule="evenodd" d="M8.94966 0.100586C8.94966 1.20369 8.73443 2.29599 8.31616 3.31512C7.89797 4.33427 7.28495 5.26029 6.51215 6.04031C5.73935 6.82033 4.82192 7.43908 3.81222 7.86118C2.80252 8.28328 1.72033 8.50059 0.627441 8.50059V16.9006C2.81322 16.9006 4.9776 16.4661 6.997 15.6218C9.0164 14.7775 10.8513 13.54 12.3968 11.98C13.9424 10.42 15.1684 8.56795 16.0049 6.52969C16.8414 4.49143 17.2719 2.30679 17.2719 0.100586H8.94966Z" fill="#1D214A"/>
</g>
<path d="M53.1002 29.8533L49.9311 26.4261C49.7991 26.4451 49.6576 26.4546 49.5067 26.4546C49.3558 26.4736 49.2144 26.4832 49.0823 26.4832C47.0639 26.4832 45.319 26.1119 43.8476 25.3694C42.3951 24.6077 41.2727 23.4748 40.4804 21.9707C39.707 20.4665 39.3203 18.5911 39.3203 16.3444C39.3203 14.0405 39.7164 12.1461 40.5087 10.661C41.301 9.15676 42.4422 8.04292 43.9325 7.31941C45.4227 6.57685 47.1959 6.20557 49.2521 6.20557C51.3459 6.20557 53.1285 6.57685 54.5999 7.31941C56.0902 8.04292 57.2314 9.15676 58.0237 10.661C58.816 12.1461 59.2121 14.0405 59.2121 16.3444C59.2121 18.7244 58.7783 20.6759 57.9105 22.1992C57.0427 23.7224 55.8166 24.8457 54.2321 25.5693L58.5896 29.8533H53.1002ZM49.2521 22.9989C50.1764 22.9989 50.9875 22.8656 51.6855 22.599C52.3835 22.3324 52.9682 21.9326 53.4398 21.3995C53.9114 20.8664 54.2698 20.219 54.515 19.4574C54.7603 18.6767 54.8829 17.7914 54.8829 16.8014V15.916C54.8829 14.9068 54.7603 14.012 54.515 13.2314C54.2698 12.4507 53.9114 11.8034 53.4398 11.2893C52.9682 10.7561 52.3835 10.3563 51.6855 10.0898C50.9875 9.82314 50.1764 9.68991 49.2521 9.68991C48.3466 9.68991 47.5449 9.82314 46.8469 10.0898C46.1489 10.3563 45.5642 10.7561 45.0926 11.2893C44.621 11.8034 44.2626 12.4507 44.0174 13.2314C43.791 14.012 43.6778 14.9068 43.6778 15.916V16.8014C43.6778 17.7914 43.791 18.6767 44.0174 19.4574C44.2626 20.219 44.621 20.8664 45.0926 21.3995C45.5642 21.9326 46.1489 22.3324 46.8469 22.599C47.5449 22.8656 48.3466 22.9989 49.2521 22.9989Z" fill="#1D214A"/>
<path d="M67.1051 26.4834C65.596 26.4834 64.3982 26.0645 63.5115 25.2268C62.625 24.389 62.1816 23.0372 62.1816 21.1713V11.1182H66.1147V20.5144C66.1147 21.0094 66.1713 21.4283 66.2845 21.771C66.3977 22.0947 66.5581 22.3612 66.7655 22.5707C66.9919 22.7801 67.2654 22.9324 67.5861 23.0277C67.9068 23.1229 68.2652 23.1705 68.6613 23.1705C69.2461 23.1705 69.7743 23.0277 70.2459 22.7421C70.7175 22.4565 71.0853 22.0661 71.3494 21.5711C71.6135 21.057 71.7455 20.4858 71.7455 19.8575V11.1182H75.6786V26.1407H72.4529L72.17 24.0844H71.9719C71.6135 24.5603 71.1891 24.9793 70.6986 25.341C70.2271 25.7027 69.6895 25.9789 69.0858 26.1693C68.4822 26.3787 67.8219 26.4834 67.1051 26.4834Z" fill="#1D214A"/>
<path d="M79.2896 8.91892V5.4917H83.2226V8.91892H79.2896ZM79.2896 26.1406V11.118H83.2226V26.1406H79.2896Z" fill="#1D214A"/>
<path d="M85.2778 26.1407L90.6823 18.3438L85.674 11.1182H90.3993L93.2289 15.6306H93.3704L96.2282 11.1182H100.671L95.634 18.3153L100.954 26.1407H96.3131L93.0874 21.0285H92.9459L89.7202 26.1407H85.2778Z" fill="#1D214A"/>
<path d="M106.213 26.4829C105.723 26.4829 105.194 26.4258 104.629 26.3115C104.082 26.1973 103.562 25.9974 103.072 25.7118C102.582 25.4071 102.176 24.9787 101.856 24.4266C101.553 23.8554 101.403 23.1318 101.403 22.256C101.403 21.2088 101.629 20.3425 102.082 19.6571C102.535 18.9716 103.176 18.4385 104.006 18.0577C104.855 17.6579 105.864 17.3818 107.034 17.2295C108.203 17.0771 109.495 17.001 110.91 17.001V15.8871C110.91 15.4492 110.834 15.0684 110.684 14.7447C110.551 14.421 110.307 14.164 109.948 13.9736C109.609 13.7832 109.128 13.688 108.505 13.688C107.883 13.688 107.373 13.7641 106.977 13.9165C106.6 14.0688 106.326 14.2687 106.156 14.5163C106.006 14.7447 105.93 15.0018 105.93 15.2874V15.6301H102.11C102.091 15.5348 102.082 15.4492 102.082 15.3731C102.082 15.2778 102.082 15.1636 102.082 15.0303C102.082 14.1545 102.346 13.4024 102.874 12.7741C103.403 12.1267 104.148 11.6317 105.11 11.289C106.072 10.9463 107.194 10.7749 108.477 10.7749C109.854 10.7749 111.004 10.9558 111.929 11.3175C112.872 11.6792 113.589 12.2124 114.079 12.9169C114.589 13.6213 114.843 14.5067 114.843 15.573V22.3988C114.843 22.7415 114.937 22.9986 115.126 23.1699C115.333 23.3222 115.56 23.3984 115.805 23.3984H116.739V25.9974C116.55 26.0926 116.258 26.1877 115.862 26.283C115.466 26.3972 114.985 26.4543 114.419 26.4543C113.872 26.4543 113.381 26.3687 112.947 26.1973C112.532 26.0449 112.183 25.826 111.9 25.5404C111.618 25.2358 111.419 24.874 111.306 24.4551H111.108C110.788 24.855 110.392 25.2072 109.92 25.5119C109.467 25.8164 108.929 26.0545 108.307 26.2259C107.704 26.3972 107.005 26.4829 106.213 26.4829ZM107.543 23.4841C108.071 23.4841 108.542 23.4079 108.958 23.2556C109.373 23.0843 109.722 22.8653 110.005 22.5987C110.288 22.3131 110.505 21.9704 110.655 21.5706C110.825 21.1707 110.91 20.7423 110.91 20.2854V19.4571C109.854 19.4571 108.91 19.5332 108.081 19.6856C107.251 19.8188 106.59 20.0569 106.1 20.3996C105.628 20.7423 105.393 21.2183 105.393 21.8276C105.393 22.1703 105.477 22.4654 105.647 22.713C105.817 22.9604 106.062 23.1509 106.383 23.2842C106.703 23.4174 107.09 23.4841 107.543 23.4841Z" fill="#1D214A"/>
<path d="M118.693 26.1402V11.1176H121.947L122.259 13.1739H122.457C122.796 12.6788 123.202 12.2504 123.673 11.8887C124.164 11.527 124.71 11.2508 125.315 11.0605C125.918 10.8701 126.578 10.7749 127.295 10.7749C128.276 10.7749 129.134 10.9558 129.87 11.3175C130.606 11.6792 131.172 12.2504 131.568 13.0311C131.982 13.8118 132.19 14.8304 132.19 16.0871V26.1402H128.257V16.7154C128.257 16.2394 128.201 15.8395 128.087 15.5159C127.974 15.1731 127.805 14.897 127.578 14.6876C127.37 14.4591 127.106 14.2973 126.786 14.2021C126.465 14.1068 126.107 14.0593 125.711 14.0593C125.126 14.0593 124.597 14.2021 124.126 14.4877C123.654 14.7733 123.286 15.1636 123.023 15.6587C122.758 16.1537 122.626 16.7249 122.626 17.3723V26.1402H118.693Z" fill="#1D214A"/>
<path d="M139.648 26.4829C139.158 26.4829 138.63 26.4258 138.064 26.3115C137.517 26.1973 136.998 25.9974 136.507 25.7118C136.017 25.4071 135.611 24.9787 135.291 24.4266C134.989 23.8554 134.838 23.1318 134.838 22.256C134.838 21.2088 135.064 20.3425 135.517 19.6571C135.97 18.9716 136.611 18.4385 137.441 18.0577C138.29 17.6579 139.299 17.3818 140.469 17.2295C141.638 17.0771 142.93 17.001 144.345 17.001V15.8871C144.345 15.4492 144.269 15.0684 144.119 14.7447C143.987 14.421 143.742 14.164 143.383 13.9736C143.044 13.7832 142.563 13.688 141.94 13.688C141.318 13.688 140.808 13.7641 140.412 13.9165C140.035 14.0688 139.761 14.2687 139.592 14.5163C139.441 14.7447 139.365 15.0018 139.365 15.2874V15.6301H135.545C135.526 15.5348 135.517 15.4492 135.517 15.3731C135.517 15.2778 135.517 15.1636 135.517 15.0303C135.517 14.1545 135.781 13.4024 136.309 12.7741C136.838 12.1267 137.583 11.6317 138.545 11.289C139.507 10.9463 140.629 10.7749 141.912 10.7749C143.289 10.7749 144.439 10.9558 145.364 11.3175C146.307 11.6792 147.024 12.2124 147.514 12.9169C148.024 13.6213 148.278 14.5067 148.278 15.573V22.3988C148.278 22.7415 148.372 22.9986 148.561 23.1699C148.768 23.3222 148.995 23.3984 149.24 23.3984H150.174V25.9974C149.985 26.0926 149.693 26.1877 149.297 26.283C148.901 26.3972 148.42 26.4543 147.854 26.4543C147.307 26.4543 146.816 26.3687 146.382 26.1973C145.967 26.0449 145.619 25.826 145.336 25.5404C145.053 25.2358 144.855 24.874 144.741 24.4551H144.543C144.223 24.855 143.827 25.2072 143.355 25.5119C142.902 25.8164 142.365 26.0545 141.742 26.2259C141.139 26.3972 140.44 26.4829 139.648 26.4829ZM140.978 23.4841C141.506 23.4841 141.978 23.4079 142.393 23.2556C142.808 23.0843 143.157 22.8653 143.44 22.5987C143.723 22.3131 143.94 21.9704 144.091 21.5706C144.26 21.1707 144.345 20.7423 144.345 20.2854V19.4571C143.289 19.4571 142.345 19.5332 141.516 19.6856C140.686 19.8188 140.025 20.0569 139.535 20.3996C139.063 20.7423 138.828 21.2183 138.828 21.8276C138.828 22.1703 138.912 22.4654 139.082 22.713C139.252 22.9604 139.498 23.1509 139.818 23.2842C140.138 23.4174 140.525 23.4841 140.978 23.4841Z" fill="#1D214A"/>
</g>
</g>
<defs>
<clipPath id="clip0_8160_3471">
<rect width="149.8" height="33.6" fill="white" transform="translate(0.600098 0.100098)"/>
</clipPath>
</defs>
</svg>
