<svg width="379" height="48" viewBox="0 0 379 48" fill="none" xmlns="http://www.w3.org/2000/svg">
<g filter="url(#filter0_b_8160_3515)">
<rect width="379" height="48" rx="24" fill="white"/>
</g>
<path fill-rule="evenodd" clip-rule="evenodd" d="M23.9998 35.2001C30.1854 35.2001 35.1998 30.1856 35.1998 24C35.1998 17.8145 30.1854 12.8 23.9998 12.8C17.8142 12.8 12.7998 17.8145 12.7998 24C12.7998 30.1856 17.8142 35.2001 23.9998 35.2001ZM29.1898 22.19C29.7365 21.6433 29.7365 20.7568 29.1898 20.2101C28.643 19.6634 27.7566 19.6634 27.2099 20.2101L22.5998 24.8201L20.7898 23.0101C20.243 22.4634 19.3566 22.4634 18.8099 23.0101C18.2631 23.5568 18.2631 24.4433 18.8099 24.99L21.6099 27.79C22.1566 28.3367 23.043 28.3367 23.5898 27.79L29.1898 22.19Z" fill="#E97A58"/>
<path d="M45.368 30V17.4H46.808L52.046 26.022H51.11L56.348 17.4H57.788V30H55.718V21.036L56.186 21.162L52.298 27.552H50.858L46.97 21.162L47.438 21.036V30H45.368ZM64.2103 30.18C63.3703 30.18 62.6083 29.982 61.9243 29.586C61.2403 29.178 60.6943 28.632 60.2863 27.948C59.8903 27.264 59.6923 26.502 59.6923 25.662C59.6923 24.822 59.8903 24.066 60.2863 23.394C60.6943 22.722 61.2403 22.188 61.9243 21.792C62.6083 21.384 63.3703 21.18 64.2103 21.18C65.0623 21.18 65.8303 21.378 66.5143 21.774C67.1983 22.17 67.7383 22.71 68.1343 23.394C68.5423 24.066 68.7463 24.822 68.7463 25.662C68.7463 26.502 68.5423 27.264 68.1343 27.948C67.7383 28.632 67.1983 29.178 66.5143 29.586C65.8303 29.982 65.0623 30.18 64.2103 30.18ZM64.2103 28.272C64.7023 28.272 65.1343 28.164 65.5063 27.948C65.8903 27.72 66.1843 27.408 66.3883 27.012C66.6043 26.616 66.7123 26.166 66.7123 25.662C66.7123 25.158 66.6043 24.714 66.3883 24.33C66.1723 23.946 65.8783 23.646 65.5063 23.43C65.1343 23.202 64.7023 23.088 64.2103 23.088C63.7303 23.088 63.2983 23.202 62.9143 23.43C62.5423 23.646 62.2483 23.946 62.0323 24.33C61.8283 24.714 61.7263 25.158 61.7263 25.662C61.7263 26.166 61.8283 26.616 62.0323 27.012C62.2483 27.408 62.5423 27.72 62.9143 27.948C63.2983 28.164 63.7303 28.272 64.2103 28.272ZM75.0189 30.18C74.3589 30.18 73.7709 30.042 73.2549 29.766C72.7389 29.478 72.3309 29.088 72.0309 28.596C71.7429 28.104 71.5989 27.546 71.5989 26.922V24.438C71.5989 23.814 71.7489 23.256 72.0489 22.764C72.3489 22.272 72.7569 21.888 73.2729 21.612C73.7889 21.324 74.3709 21.18 75.0189 21.18C75.7989 21.18 76.5009 21.384 77.1249 21.792C77.7609 22.188 78.2589 22.728 78.6189 23.412C78.9909 24.084 79.1769 24.846 79.1769 25.698C79.1769 26.538 78.9909 27.3 78.6189 27.984C78.2589 28.656 77.7609 29.19 77.1249 29.586C76.5009 29.982 75.7989 30.18 75.0189 30.18ZM74.6949 28.308C75.1749 28.308 75.5949 28.2 75.9549 27.984C76.3269 27.756 76.6149 27.444 76.8189 27.048C77.0349 26.652 77.1429 26.196 77.1429 25.68C77.1429 25.164 77.0349 24.708 76.8189 24.312C76.6149 23.916 76.3269 23.61 75.9549 23.394C75.5949 23.166 75.1749 23.052 74.6949 23.052C74.2149 23.052 73.7889 23.166 73.4169 23.394C73.0449 23.61 72.7569 23.916 72.5529 24.312C72.3489 24.708 72.2469 25.164 72.2469 25.68C72.2469 26.196 72.3489 26.652 72.5529 27.048C72.7569 27.444 73.0449 27.756 73.4169 27.984C73.7889 28.2 74.2149 28.308 74.6949 28.308ZM70.3929 30V17.04H72.3729V23.484L72.0309 25.572L72.3729 27.678V30H70.3929ZM80.8523 30V21.36H82.8323V30H80.8523ZM81.8423 19.776C81.5063 19.776 81.2243 19.662 80.9963 19.434C80.7803 19.206 80.6723 18.924 80.6723 18.588C80.6723 18.252 80.7803 17.97 80.9963 17.742C81.2243 17.514 81.5063 17.4 81.8423 17.4C82.1903 17.4 82.4723 17.514 82.6883 17.742C82.9043 17.97 83.0123 18.252 83.0123 18.588C83.0123 18.924 82.9043 19.206 82.6883 19.434C82.4723 19.662 82.1903 19.776 81.8423 19.776ZM85.0531 30V17.04H87.0331V30H85.0531ZM93.2507 30.18C92.3867 30.18 91.6067 29.988 90.9107 29.604C90.2267 29.208 89.6807 28.668 89.2727 27.984C88.8767 27.3 88.6787 26.532 88.6787 25.68C88.6787 24.828 88.8767 24.066 89.2727 23.394C89.6687 22.71 90.2027 22.17 90.8747 21.774C91.5587 21.378 92.3147 21.18 93.1427 21.18C93.9467 21.18 94.6547 21.366 95.2667 21.738C95.8907 22.11 96.3767 22.62 96.7247 23.268C97.0847 23.916 97.2647 24.654 97.2647 25.482C97.2647 25.626 97.2527 25.776 97.2287 25.932C97.2167 26.076 97.1927 26.238 97.1567 26.418H90.0647V24.798H96.1307L95.3927 25.446C95.3687 24.918 95.2667 24.474 95.0867 24.114C94.9067 23.754 94.6487 23.478 94.3127 23.286C93.9887 23.094 93.5867 22.998 93.1067 22.998C92.6027 22.998 92.1647 23.106 91.7927 23.322C91.4207 23.538 91.1327 23.844 90.9287 24.24C90.7247 24.624 90.6227 25.086 90.6227 25.626C90.6227 26.166 90.7307 26.64 90.9467 27.048C91.1627 27.456 91.4687 27.774 91.8647 28.002C92.2607 28.218 92.7167 28.326 93.2327 28.326C93.6767 28.326 94.0847 28.248 94.4567 28.092C94.8407 27.936 95.1647 27.708 95.4287 27.408L96.6887 28.686C96.2687 29.178 95.7587 29.55 95.1587 29.802C94.5587 30.054 93.9227 30.18 93.2507 30.18ZM106.073 30.18C105.293 30.18 104.585 29.982 103.949 29.586C103.325 29.19 102.827 28.656 102.455 27.984C102.095 27.3 101.915 26.538 101.915 25.698C101.915 24.846 102.095 24.084 102.455 23.412C102.827 22.728 103.325 22.188 103.949 21.792C104.585 21.384 105.293 21.18 106.073 21.18C106.733 21.18 107.315 21.324 107.819 21.612C108.335 21.888 108.743 22.272 109.043 22.764C109.343 23.256 109.493 23.814 109.493 24.438V26.922C109.493 27.546 109.343 28.104 109.043 28.596C108.755 29.088 108.353 29.478 107.837 29.766C107.321 30.042 106.733 30.18 106.073 30.18ZM106.397 28.308C107.129 28.308 107.717 28.062 108.161 27.57C108.617 27.078 108.845 26.448 108.845 25.68C108.845 25.164 108.743 24.708 108.539 24.312C108.335 23.916 108.047 23.61 107.675 23.394C107.315 23.166 106.889 23.052 106.397 23.052C105.917 23.052 105.491 23.166 105.119 23.394C104.759 23.61 104.471 23.916 104.255 24.312C104.051 24.708 103.949 25.164 103.949 25.68C103.949 26.196 104.051 26.652 104.255 27.048C104.471 27.444 104.759 27.756 105.119 27.984C105.491 28.2 105.917 28.308 106.397 28.308ZM108.719 30V27.678L109.061 25.572L108.719 23.484V21.36H110.699V30H108.719ZM117.523 30.18C116.863 30.18 116.275 30.042 115.759 29.766C115.243 29.478 114.835 29.088 114.535 28.596C114.247 28.104 114.103 27.546 114.103 26.922V24.438C114.103 23.814 114.253 23.256 114.553 22.764C114.853 22.272 115.261 21.888 115.777 21.612C116.293 21.324 116.875 21.18 117.523 21.18C118.303 21.18 119.005 21.384 119.629 21.792C120.265 22.188 120.763 22.728 121.123 23.412C121.495 24.084 121.681 24.846 121.681 25.698C121.681 26.538 121.495 27.3 121.123 27.984C120.763 28.656 120.265 29.19 119.629 29.586C119.005 29.982 118.303 30.18 117.523 30.18ZM117.199 28.308C117.679 28.308 118.099 28.2 118.459 27.984C118.831 27.756 119.119 27.444 119.323 27.048C119.539 26.652 119.647 26.196 119.647 25.68C119.647 25.164 119.539 24.708 119.323 24.312C119.119 23.916 118.831 23.61 118.459 23.394C118.099 23.166 117.679 23.052 117.199 23.052C116.719 23.052 116.293 23.166 115.921 23.394C115.549 23.61 115.261 23.916 115.057 24.312C114.853 24.708 114.751 25.164 114.751 25.68C114.751 26.196 114.853 26.652 115.057 27.048C115.261 27.444 115.549 27.756 115.921 27.984C116.293 28.2 116.719 28.308 117.199 28.308ZM112.897 33.6V21.36H114.877V23.682L114.535 25.788L114.877 27.876V33.6H112.897ZM127.964 30.18C127.304 30.18 126.716 30.042 126.2 29.766C125.684 29.478 125.276 29.088 124.976 28.596C124.688 28.104 124.544 27.546 124.544 26.922V24.438C124.544 23.814 124.694 23.256 124.994 22.764C125.294 22.272 125.702 21.888 126.218 21.612C126.734 21.324 127.316 21.18 127.964 21.18C128.744 21.18 129.446 21.384 130.07 21.792C130.706 22.188 131.204 22.728 131.564 23.412C131.936 24.084 132.122 24.846 132.122 25.698C132.122 26.538 131.936 27.3 131.564 27.984C131.204 28.656 130.706 29.19 130.07 29.586C129.446 29.982 128.744 30.18 127.964 30.18ZM127.64 28.308C128.12 28.308 128.54 28.2 128.9 27.984C129.272 27.756 129.56 27.444 129.764 27.048C129.98 26.652 130.088 26.196 130.088 25.68C130.088 25.164 129.98 24.708 129.764 24.312C129.56 23.916 129.272 23.61 128.9 23.394C128.54 23.166 128.12 23.052 127.64 23.052C127.16 23.052 126.734 23.166 126.362 23.394C125.99 23.61 125.702 23.916 125.498 24.312C125.294 24.708 125.192 25.164 125.192 25.68C125.192 26.196 125.294 26.652 125.498 27.048C125.702 27.444 125.99 27.756 126.362 27.984C126.734 28.2 127.16 28.308 127.64 28.308ZM123.338 33.6V21.36H125.318V23.682L124.976 25.788L125.318 27.876V33.6H123.338ZM141.397 30.18C140.533 30.18 139.753 29.988 139.057 29.604C138.373 29.208 137.827 28.668 137.419 27.984C137.023 27.3 136.825 26.532 136.825 25.68C136.825 24.828 137.023 24.066 137.419 23.394C137.815 22.71 138.349 22.17 139.021 21.774C139.705 21.378 140.461 21.18 141.289 21.18C142.093 21.18 142.801 21.366 143.413 21.738C144.037 22.11 144.523 22.62 144.871 23.268C145.231 23.916 145.411 24.654 145.411 25.482C145.411 25.626 145.399 25.776 145.375 25.932C145.363 26.076 145.339 26.238 145.303 26.418H138.211V24.798H144.277L143.539 25.446C143.515 24.918 143.413 24.474 143.233 24.114C143.053 23.754 142.795 23.478 142.459 23.286C142.135 23.094 141.733 22.998 141.253 22.998C140.749 22.998 140.311 23.106 139.939 23.322C139.567 23.538 139.279 23.844 139.075 24.24C138.871 24.624 138.769 25.086 138.769 25.626C138.769 26.166 138.877 26.64 139.093 27.048C139.309 27.456 139.615 27.774 140.011 28.002C140.407 28.218 140.863 28.326 141.379 28.326C141.823 28.326 142.231 28.248 142.603 28.092C142.987 27.936 143.311 27.708 143.575 27.408L144.835 28.686C144.415 29.178 143.905 29.55 143.305 29.802C142.705 30.054 142.069 30.18 141.397 30.18ZM150.616 30.18C149.836 30.18 149.128 29.982 148.492 29.586C147.868 29.19 147.37 28.656 146.998 27.984C146.638 27.3 146.458 26.538 146.458 25.698C146.458 24.846 146.638 24.084 146.998 23.412C147.37 22.728 147.868 22.188 148.492 21.792C149.128 21.384 149.836 21.18 150.616 21.18C151.276 21.18 151.858 21.324 152.362 21.612C152.878 21.888 153.286 22.272 153.586 22.764C153.886 23.256 154.036 23.814 154.036 24.438V26.922C154.036 27.546 153.886 28.104 153.586 28.596C153.298 29.088 152.896 29.478 152.38 29.766C151.864 30.042 151.276 30.18 150.616 30.18ZM150.94 28.308C151.672 28.308 152.26 28.062 152.704 27.57C153.16 27.078 153.388 26.448 153.388 25.68C153.388 25.164 153.286 24.708 153.082 24.312C152.878 23.916 152.59 23.61 152.218 23.394C151.858 23.166 151.432 23.052 150.94 23.052C150.46 23.052 150.034 23.166 149.662 23.394C149.302 23.61 149.014 23.916 148.798 24.312C148.594 24.708 148.492 25.164 148.492 25.68C148.492 26.196 148.594 26.652 148.798 27.048C149.014 27.444 149.302 27.756 149.662 27.984C150.034 28.2 150.46 28.308 150.94 28.308ZM153.262 30V27.678L153.604 25.572L153.262 23.484V21.36H155.242V30H153.262ZM160.266 30.18C159.786 30.18 159.324 30.12 158.88 30C158.436 29.868 158.028 29.688 157.656 29.46C157.284 29.22 156.96 28.932 156.684 28.596L157.944 27.336C158.244 27.684 158.586 27.948 158.97 28.128C159.366 28.296 159.81 28.38 160.302 28.38C160.746 28.38 161.082 28.314 161.31 28.182C161.538 28.05 161.652 27.858 161.652 27.606C161.652 27.342 161.544 27.138 161.328 26.994C161.112 26.85 160.83 26.73 160.482 26.634C160.146 26.526 159.786 26.418 159.402 26.31C159.03 26.202 158.67 26.058 158.322 25.878C157.986 25.686 157.71 25.428 157.494 25.104C157.278 24.78 157.17 24.36 157.17 23.844C157.17 23.292 157.296 22.818 157.548 22.422C157.812 22.026 158.178 21.72 158.646 21.504C159.126 21.288 159.696 21.18 160.356 21.18C161.052 21.18 161.664 21.306 162.192 21.558C162.732 21.798 163.182 22.164 163.542 22.656L162.282 23.916C162.03 23.604 161.742 23.37 161.418 23.214C161.094 23.058 160.722 22.98 160.302 22.98C159.906 22.98 159.6 23.04 159.384 23.16C159.168 23.28 159.06 23.454 159.06 23.682C159.06 23.922 159.168 24.108 159.384 24.24C159.6 24.372 159.876 24.486 160.212 24.582C160.56 24.678 160.92 24.786 161.292 24.906C161.676 25.014 162.036 25.17 162.372 25.374C162.72 25.566 163.002 25.83 163.218 26.166C163.434 26.49 163.542 26.916 163.542 27.444C163.542 28.284 163.248 28.95 162.66 29.442C162.072 29.934 161.274 30.18 160.266 30.18ZM167.964 30.09L164.274 21.36H166.452L168.972 27.768H168.342L171.006 21.36H173.202L169.188 30.09H167.964ZM165.39 33.6L168.072 28.074L169.188 30.09L167.586 33.6H165.39ZM178.094 30V21.36H180.074V30H178.094ZM183.836 30V24.852C183.836 24.276 183.656 23.832 183.296 23.52C182.936 23.196 182.492 23.034 181.964 23.034C181.604 23.034 181.28 23.106 180.992 23.25C180.716 23.394 180.494 23.604 180.326 23.88C180.158 24.144 180.074 24.468 180.074 24.852L179.3 24.42C179.3 23.76 179.444 23.19 179.732 22.71C180.02 22.23 180.41 21.858 180.902 21.594C181.394 21.318 181.946 21.18 182.558 21.18C183.17 21.18 183.722 21.312 184.214 21.576C184.706 21.84 185.096 22.212 185.384 22.692C185.672 23.172 185.816 23.748 185.816 24.42V30H183.836ZM189.578 30V24.852C189.578 24.276 189.398 23.832 189.038 23.52C188.678 23.196 188.234 23.034 187.706 23.034C187.358 23.034 187.04 23.106 186.752 23.25C186.464 23.394 186.236 23.604 186.068 23.88C185.9 24.144 185.816 24.468 185.816 24.852L184.7 24.42C184.76 23.76 184.952 23.19 185.276 22.71C185.6 22.23 186.014 21.858 186.518 21.594C187.034 21.318 187.598 21.18 188.21 21.18C188.834 21.18 189.398 21.312 189.902 21.576C190.406 21.84 190.808 22.212 191.108 22.692C191.408 23.172 191.558 23.748 191.558 24.42V30H189.578ZM197.216 30.18C196.436 30.18 195.728 29.982 195.092 29.586C194.468 29.19 193.97 28.656 193.598 27.984C193.238 27.3 193.058 26.538 193.058 25.698C193.058 24.846 193.238 24.084 193.598 23.412C193.97 22.728 194.468 22.188 195.092 21.792C195.728 21.384 196.436 21.18 197.216 21.18C197.876 21.18 198.458 21.324 198.962 21.612C199.478 21.888 199.886 22.272 200.186 22.764C200.486 23.256 200.636 23.814 200.636 24.438V26.922C200.636 27.546 200.486 28.104 200.186 28.596C199.898 29.088 199.496 29.478 198.98 29.766C198.464 30.042 197.876 30.18 197.216 30.18ZM197.54 28.308C198.272 28.308 198.86 28.062 199.304 27.57C199.76 27.078 199.988 26.448 199.988 25.68C199.988 25.164 199.886 24.708 199.682 24.312C199.478 23.916 199.19 23.61 198.818 23.394C198.458 23.166 198.032 23.052 197.54 23.052C197.06 23.052 196.634 23.166 196.262 23.394C195.902 23.61 195.614 23.916 195.398 24.312C195.194 24.708 195.092 25.164 195.092 25.68C195.092 26.196 195.194 26.652 195.398 27.048C195.614 27.444 195.902 27.756 196.262 27.984C196.634 28.2 197.06 28.308 197.54 28.308ZM199.862 30V27.678L200.204 25.572L199.862 23.484V21.36H201.842V30H199.862ZM209.961 30V25.014C209.961 24.438 209.775 23.964 209.403 23.592C209.043 23.22 208.575 23.034 207.999 23.034C207.615 23.034 207.273 23.118 206.973 23.286C206.673 23.454 206.439 23.688 206.271 23.988C206.103 24.288 206.019 24.63 206.019 25.014L205.245 24.582C205.245 23.922 205.389 23.34 205.677 22.836C205.965 22.32 206.361 21.918 206.865 21.63C207.381 21.33 207.957 21.18 208.593 21.18C209.241 21.18 209.817 21.348 210.321 21.684C210.825 22.008 211.221 22.434 211.509 22.962C211.797 23.478 211.941 24.018 211.941 24.582V30H209.961ZM204.039 30V21.36H206.019V30H204.039ZM217.571 30.18C216.791 30.18 216.083 29.982 215.447 29.586C214.823 29.19 214.325 28.656 213.953 27.984C213.593 27.3 213.413 26.538 213.413 25.698C213.413 24.846 213.593 24.084 213.953 23.412C214.325 22.728 214.823 22.188 215.447 21.792C216.083 21.384 216.791 21.18 217.571 21.18C218.231 21.18 218.813 21.324 219.317 21.612C219.833 21.888 220.241 22.272 220.541 22.764C220.841 23.256 220.991 23.814 220.991 24.438V26.922C220.991 27.546 220.841 28.104 220.541 28.596C220.253 29.088 219.851 29.478 219.335 29.766C218.819 30.042 218.231 30.18 217.571 30.18ZM217.895 28.308C218.627 28.308 219.215 28.062 219.659 27.57C220.115 27.078 220.343 26.448 220.343 25.68C220.343 25.164 220.241 24.708 220.037 24.312C219.833 23.916 219.545 23.61 219.173 23.394C218.813 23.166 218.387 23.052 217.895 23.052C217.415 23.052 216.989 23.166 216.617 23.394C216.257 23.61 215.969 23.916 215.753 24.312C215.549 24.708 215.447 25.164 215.447 25.68C215.447 26.196 215.549 26.652 215.753 27.048C215.969 27.444 216.257 27.756 216.617 27.984C216.989 28.2 217.415 28.308 217.895 28.308ZM220.217 30V27.678L220.559 25.572L220.217 23.484V21.36H222.197V30H220.217ZM227.995 33.78C227.083 33.78 226.285 33.612 225.601 33.276C224.917 32.952 224.365 32.49 223.945 31.89L225.241 30.594C225.589 31.026 225.985 31.35 226.429 31.566C226.873 31.782 227.407 31.89 228.031 31.89C228.811 31.89 229.429 31.686 229.885 31.278C230.341 30.882 230.569 30.336 230.569 29.64V27.516L230.911 25.608L230.569 23.682V21.36H232.549V29.64C232.549 30.468 232.357 31.188 231.973 31.8C231.589 32.424 231.055 32.91 230.371 33.258C229.687 33.606 228.895 33.78 227.995 33.78ZM227.905 29.82C227.137 29.82 226.441 29.634 225.817 29.262C225.205 28.878 224.719 28.356 224.359 27.696C224.011 27.036 223.837 26.298 223.837 25.482C223.837 24.666 224.011 23.934 224.359 23.286C224.719 22.638 225.205 22.128 225.817 21.756C226.441 21.372 227.137 21.18 227.905 21.18C228.589 21.18 229.189 21.318 229.705 21.594C230.221 21.87 230.623 22.254 230.911 22.746C231.199 23.226 231.343 23.79 231.343 24.438V26.562C231.343 27.198 231.193 27.762 230.893 28.254C230.605 28.746 230.203 29.13 229.687 29.406C229.171 29.682 228.577 29.82 227.905 29.82ZM228.301 27.948C228.781 27.948 229.201 27.846 229.561 27.642C229.921 27.438 230.197 27.156 230.389 26.796C230.593 26.424 230.695 25.992 230.695 25.5C230.695 25.008 230.593 24.582 230.389 24.222C230.197 23.85 229.921 23.562 229.561 23.358C229.201 23.154 228.781 23.052 228.301 23.052C227.821 23.052 227.395 23.154 227.023 23.358C226.663 23.562 226.381 23.85 226.177 24.222C225.973 24.582 225.871 25.008 225.871 25.5C225.871 25.98 225.973 26.406 226.177 26.778C226.381 27.15 226.663 27.438 227.023 27.642C227.395 27.846 227.821 27.948 228.301 27.948ZM238.762 30.18C237.898 30.18 237.118 29.988 236.422 29.604C235.738 29.208 235.192 28.668 234.784 27.984C234.388 27.3 234.19 26.532 234.19 25.68C234.19 24.828 234.388 24.066 234.784 23.394C235.18 22.71 235.714 22.17 236.386 21.774C237.07 21.378 237.826 21.18 238.654 21.18C239.458 21.18 240.166 21.366 240.778 21.738C241.402 22.11 241.888 22.62 242.236 23.268C242.596 23.916 242.776 24.654 242.776 25.482C242.776 25.626 242.764 25.776 242.74 25.932C242.728 26.076 242.704 26.238 242.668 26.418H235.576V24.798H241.642L240.904 25.446C240.88 24.918 240.778 24.474 240.598 24.114C240.418 23.754 240.16 23.478 239.824 23.286C239.5 23.094 239.098 22.998 238.618 22.998C238.114 22.998 237.676 23.106 237.304 23.322C236.932 23.538 236.644 23.844 236.44 24.24C236.236 24.624 236.134 25.086 236.134 25.626C236.134 26.166 236.242 26.64 236.458 27.048C236.674 27.456 236.98 27.774 237.376 28.002C237.772 28.218 238.228 28.326 238.744 28.326C239.188 28.326 239.596 28.248 239.968 28.092C240.352 27.936 240.676 27.708 240.94 27.408L242.2 28.686C241.78 29.178 241.27 29.55 240.67 29.802C240.07 30.054 239.434 30.18 238.762 30.18ZM244.364 30V21.36H246.344V30H244.364ZM250.106 30V24.852C250.106 24.276 249.926 23.832 249.566 23.52C249.206 23.196 248.762 23.034 248.234 23.034C247.874 23.034 247.55 23.106 247.262 23.25C246.986 23.394 246.764 23.604 246.596 23.88C246.428 24.144 246.344 24.468 246.344 24.852L245.57 24.42C245.57 23.76 245.714 23.19 246.002 22.71C246.29 22.23 246.68 21.858 247.172 21.594C247.664 21.318 248.216 21.18 248.828 21.18C249.44 21.18 249.992 21.312 250.484 21.576C250.976 21.84 251.366 22.212 251.654 22.692C251.942 23.172 252.086 23.748 252.086 24.42V30H250.106ZM255.848 30V24.852C255.848 24.276 255.668 23.832 255.308 23.52C254.948 23.196 254.504 23.034 253.976 23.034C253.628 23.034 253.31 23.106 253.022 23.25C252.734 23.394 252.506 23.604 252.338 23.88C252.17 24.144 252.086 24.468 252.086 24.852L250.97 24.42C251.03 23.76 251.222 23.19 251.546 22.71C251.87 22.23 252.284 21.858 252.788 21.594C253.304 21.318 253.868 21.18 254.48 21.18C255.104 21.18 255.668 21.312 256.172 21.576C256.676 21.84 257.078 22.212 257.378 22.692C257.678 23.172 257.828 23.748 257.828 24.42V30H255.848ZM263.882 30.18C263.018 30.18 262.238 29.988 261.542 29.604C260.858 29.208 260.312 28.668 259.904 27.984C259.508 27.3 259.31 26.532 259.31 25.68C259.31 24.828 259.508 24.066 259.904 23.394C260.3 22.71 260.834 22.17 261.506 21.774C262.19 21.378 262.946 21.18 263.774 21.18C264.578 21.18 265.286 21.366 265.898 21.738C266.522 22.11 267.008 22.62 267.356 23.268C267.716 23.916 267.896 24.654 267.896 25.482C267.896 25.626 267.884 25.776 267.86 25.932C267.848 26.076 267.824 26.238 267.788 26.418H260.696V24.798H266.762L266.024 25.446C266 24.918 265.898 24.474 265.718 24.114C265.538 23.754 265.28 23.478 264.944 23.286C264.62 23.094 264.218 22.998 263.738 22.998C263.234 22.998 262.796 23.106 262.424 23.322C262.052 23.538 261.764 23.844 261.56 24.24C261.356 24.624 261.254 25.086 261.254 25.626C261.254 26.166 261.362 26.64 261.578 27.048C261.794 27.456 262.1 27.774 262.496 28.002C262.892 28.218 263.348 28.326 263.864 28.326C264.308 28.326 264.716 28.248 265.088 28.092C265.472 27.936 265.796 27.708 266.06 27.408L267.32 28.686C266.9 29.178 266.39 29.55 265.79 29.802C265.19 30.054 264.554 30.18 263.882 30.18ZM275.405 30V25.014C275.405 24.438 275.219 23.964 274.847 23.592C274.487 23.22 274.019 23.034 273.443 23.034C273.059 23.034 272.717 23.118 272.417 23.286C272.117 23.454 271.883 23.688 271.715 23.988C271.547 24.288 271.463 24.63 271.463 25.014L270.689 24.582C270.689 23.922 270.833 23.34 271.121 22.836C271.409 22.32 271.805 21.918 272.309 21.63C272.825 21.33 273.401 21.18 274.037 21.18C274.685 21.18 275.261 21.348 275.765 21.684C276.269 22.008 276.665 22.434 276.953 22.962C277.241 23.478 277.385 24.018 277.385 24.582V30H275.405ZM269.483 30V21.36H271.463V30H269.483ZM280.605 30V17.76H282.585V30H280.605ZM278.535 23.16V21.36H284.655V23.16H278.535ZM298.086 30L292.11 23.466C291.666 22.974 291.33 22.506 291.102 22.062C290.886 21.618 290.778 21.126 290.778 20.586C290.778 19.95 290.934 19.38 291.246 18.876C291.558 18.36 291.984 17.952 292.524 17.652C293.064 17.352 293.682 17.202 294.378 17.202C294.906 17.202 295.386 17.292 295.818 17.472C296.25 17.64 296.628 17.868 296.952 18.156C297.288 18.432 297.564 18.738 297.78 19.074L296.358 20.334C296.094 19.974 295.806 19.68 295.494 19.452C295.194 19.224 294.822 19.11 294.378 19.11C293.922 19.11 293.538 19.248 293.226 19.524C292.914 19.788 292.758 20.124 292.758 20.532C292.758 20.94 292.842 21.276 293.01 21.54C293.178 21.804 293.412 22.11 293.712 22.458L300.462 30H298.086ZM293.784 30.18C292.92 30.18 292.164 30.018 291.516 29.694C290.88 29.358 290.382 28.902 290.022 28.326C289.674 27.738 289.5 27.072 289.5 26.328C289.5 25.572 289.704 24.894 290.112 24.294C290.532 23.694 291.144 23.208 291.948 22.836L292.866 24.042C292.422 24.282 292.08 24.582 291.84 24.942C291.6 25.29 291.48 25.734 291.48 26.274C291.48 26.706 291.576 27.072 291.768 27.372C291.972 27.672 292.254 27.906 292.614 28.074C292.974 28.23 293.388 28.308 293.856 28.308C294.468 28.308 294.972 28.182 295.368 27.93C295.776 27.678 296.082 27.378 296.286 27.03L297.582 28.542C297.33 28.854 297.006 29.136 296.61 29.388C296.214 29.628 295.776 29.82 295.296 29.964C294.816 30.108 294.312 30.18 293.784 30.18ZM308.275 30.18C307.495 30.18 306.787 29.982 306.151 29.586C305.527 29.19 305.029 28.656 304.657 27.984C304.297 27.3 304.117 26.538 304.117 25.698C304.117 24.846 304.297 24.084 304.657 23.412C305.029 22.728 305.527 22.188 306.151 21.792C306.787 21.384 307.495 21.18 308.275 21.18C308.935 21.18 309.517 21.324 310.021 21.612C310.537 21.888 310.945 22.272 311.245 22.764C311.545 23.256 311.695 23.814 311.695 24.438V26.922C311.695 27.546 311.545 28.104 311.245 28.596C310.957 29.088 310.555 29.478 310.039 29.766C309.523 30.042 308.935 30.18 308.275 30.18ZM308.599 28.308C309.331 28.308 309.919 28.062 310.363 27.57C310.819 27.078 311.047 26.448 311.047 25.68C311.047 25.164 310.945 24.708 310.741 24.312C310.537 23.916 310.249 23.61 309.877 23.394C309.517 23.166 309.091 23.052 308.599 23.052C308.119 23.052 307.693 23.166 307.321 23.394C306.961 23.61 306.673 23.916 306.457 24.312C306.253 24.708 306.151 25.164 306.151 25.68C306.151 26.196 306.253 26.652 306.457 27.048C306.673 27.444 306.961 27.756 307.321 27.984C307.693 28.2 308.119 28.308 308.599 28.308ZM310.921 30V27.678L311.263 25.572L310.921 23.484V21.36H312.901V30H310.921ZM319.076 30.18C318.224 30.18 317.45 29.982 316.754 29.586C316.07 29.19 315.53 28.65 315.134 27.966C314.738 27.282 314.54 26.52 314.54 25.68C314.54 24.828 314.738 24.066 315.134 23.394C315.53 22.71 316.07 22.17 316.754 21.774C317.45 21.378 318.224 21.18 319.076 21.18C319.748 21.18 320.372 21.312 320.948 21.576C321.536 21.828 322.034 22.194 322.442 22.674L321.146 23.988C320.894 23.688 320.588 23.466 320.228 23.322C319.88 23.166 319.496 23.088 319.076 23.088C318.584 23.088 318.146 23.202 317.762 23.43C317.39 23.646 317.096 23.946 316.88 24.33C316.676 24.714 316.574 25.164 316.574 25.68C316.574 26.184 316.676 26.634 316.88 27.03C317.096 27.414 317.39 27.72 317.762 27.948C318.146 28.164 318.584 28.272 319.076 28.272C319.496 28.272 319.88 28.2 320.228 28.056C320.588 27.9 320.894 27.672 321.146 27.372L322.442 28.686C322.034 29.166 321.536 29.538 320.948 29.802C320.372 30.054 319.748 30.18 319.076 30.18ZM327.672 30.18C326.82 30.18 326.046 29.982 325.35 29.586C324.666 29.19 324.126 28.65 323.73 27.966C323.334 27.282 323.136 26.52 323.136 25.68C323.136 24.828 323.334 24.066 323.73 23.394C324.126 22.71 324.666 22.17 325.35 21.774C326.046 21.378 326.82 21.18 327.672 21.18C328.344 21.18 328.968 21.312 329.544 21.576C330.132 21.828 330.63 22.194 331.038 22.674L329.742 23.988C329.49 23.688 329.184 23.466 328.824 23.322C328.476 23.166 328.092 23.088 327.672 23.088C327.18 23.088 326.742 23.202 326.358 23.43C325.986 23.646 325.692 23.946 325.476 24.33C325.272 24.714 325.17 25.164 325.17 25.68C325.17 26.184 325.272 26.634 325.476 27.03C325.692 27.414 325.986 27.72 326.358 27.948C326.742 28.164 327.18 28.272 327.672 28.272C328.092 28.272 328.476 28.2 328.824 28.056C329.184 27.9 329.49 27.672 329.742 27.372L331.038 28.686C330.63 29.166 330.132 29.538 329.544 29.802C328.968 30.054 328.344 30.18 327.672 30.18ZM336.303 30.18C335.439 30.18 334.659 29.988 333.963 29.604C333.279 29.208 332.733 28.668 332.325 27.984C331.929 27.3 331.731 26.532 331.731 25.68C331.731 24.828 331.929 24.066 332.325 23.394C332.721 22.71 333.255 22.17 333.927 21.774C334.611 21.378 335.367 21.18 336.195 21.18C336.999 21.18 337.707 21.366 338.319 21.738C338.943 22.11 339.429 22.62 339.777 23.268C340.137 23.916 340.317 24.654 340.317 25.482C340.317 25.626 340.305 25.776 340.281 25.932C340.269 26.076 340.245 26.238 340.209 26.418H333.117V24.798H339.183L338.445 25.446C338.421 24.918 338.319 24.474 338.139 24.114C337.959 23.754 337.701 23.478 337.365 23.286C337.041 23.094 336.639 22.998 336.159 22.998C335.655 22.998 335.217 23.106 334.845 23.322C334.473 23.538 334.185 23.844 333.981 24.24C333.777 24.624 333.675 25.086 333.675 25.626C333.675 26.166 333.783 26.64 333.999 27.048C334.215 27.456 334.521 27.774 334.917 28.002C335.313 28.218 335.769 28.326 336.285 28.326C336.729 28.326 337.137 28.248 337.509 28.092C337.893 27.936 338.217 27.708 338.481 27.408L339.741 28.686C339.321 29.178 338.811 29.55 338.211 29.802C337.611 30.054 336.975 30.18 336.303 30.18ZM344.731 30.18C344.251 30.18 343.789 30.12 343.345 30C342.901 29.868 342.493 29.688 342.121 29.46C341.749 29.22 341.425 28.932 341.149 28.596L342.409 27.336C342.709 27.684 343.051 27.948 343.435 28.128C343.831 28.296 344.275 28.38 344.767 28.38C345.211 28.38 345.547 28.314 345.775 28.182C346.003 28.05 346.117 27.858 346.117 27.606C346.117 27.342 346.009 27.138 345.793 26.994C345.577 26.85 345.295 26.73 344.947 26.634C344.611 26.526 344.251 26.418 343.867 26.31C343.495 26.202 343.135 26.058 342.787 25.878C342.451 25.686 342.175 25.428 341.959 25.104C341.743 24.78 341.635 24.36 341.635 23.844C341.635 23.292 341.761 22.818 342.013 22.422C342.277 22.026 342.643 21.72 343.111 21.504C343.591 21.288 344.161 21.18 344.821 21.18C345.517 21.18 346.129 21.306 346.657 21.558C347.197 21.798 347.647 22.164 348.007 22.656L346.747 23.916C346.495 23.604 346.207 23.37 345.883 23.214C345.559 23.058 345.187 22.98 344.767 22.98C344.371 22.98 344.065 23.04 343.849 23.16C343.633 23.28 343.525 23.454 343.525 23.682C343.525 23.922 343.633 24.108 343.849 24.24C344.065 24.372 344.341 24.486 344.677 24.582C345.025 24.678 345.385 24.786 345.757 24.906C346.141 25.014 346.501 25.17 346.837 25.374C347.185 25.566 347.467 25.83 347.683 26.166C347.899 26.49 348.007 26.916 348.007 27.444C348.007 28.284 347.713 28.95 347.125 29.442C346.537 29.934 345.739 30.18 344.731 30.18ZM352.465 30.18C351.985 30.18 351.523 30.12 351.079 30C350.635 29.868 350.227 29.688 349.855 29.46C349.483 29.22 349.159 28.932 348.883 28.596L350.143 27.336C350.443 27.684 350.785 27.948 351.169 28.128C351.565 28.296 352.009 28.38 352.501 28.38C352.945 28.38 353.281 28.314 353.509 28.182C353.737 28.05 353.851 27.858 353.851 27.606C353.851 27.342 353.743 27.138 353.527 26.994C353.311 26.85 353.029 26.73 352.681 26.634C352.345 26.526 351.985 26.418 351.601 26.31C351.229 26.202 350.869 26.058 350.521 25.878C350.185 25.686 349.909 25.428 349.693 25.104C349.477 24.78 349.369 24.36 349.369 23.844C349.369 23.292 349.495 22.818 349.747 22.422C350.011 22.026 350.377 21.72 350.845 21.504C351.325 21.288 351.895 21.18 352.555 21.18C353.251 21.18 353.863 21.306 354.391 21.558C354.931 21.798 355.381 22.164 355.741 22.656L354.481 23.916C354.229 23.604 353.941 23.37 353.617 23.214C353.293 23.058 352.921 22.98 352.501 22.98C352.105 22.98 351.799 23.04 351.583 23.16C351.367 23.28 351.259 23.454 351.259 23.682C351.259 23.922 351.367 24.108 351.583 24.24C351.799 24.372 352.075 24.486 352.411 24.582C352.759 24.678 353.119 24.786 353.491 24.906C353.875 25.014 354.235 25.17 354.571 25.374C354.919 25.566 355.201 25.83 355.417 26.166C355.633 26.49 355.741 26.916 355.741 27.444C355.741 28.284 355.447 28.95 354.859 29.442C354.271 29.934 353.473 30.18 352.465 30.18Z" fill="#181C39"/>
<defs>
<filter id="filter0_b_8160_3515" x="-4" y="-4" width="387" height="56" filterUnits="userSpaceOnUse" color-interpolation-filters="sRGB">
<feFlood flood-opacity="0" result="BackgroundImageFix"/>
<feGaussianBlur in="BackgroundImageFix" stdDeviation="2"/>
<feComposite in2="SourceAlpha" operator="in" result="effect1_backgroundBlur_8160_3515"/>
<feBlend mode="normal" in="SourceGraphic" in2="effect1_backgroundBlur_8160_3515" result="shape"/>
</filter>
</defs>
</svg>
