<svg width="714" height="449" viewBox="0 0 714 449" fill="none" xmlns="http://www.w3.org/2000/svg">
<path d="M10.8008 271.888L104.401 94.4379H162.901L66.9608 271.888H10.8008ZM10.8008 303.088V271.888L30.3008 256.678H226.861V303.088H10.8008ZM140.281 368.608V193.888H192.541V368.608H140.281ZM357.902 372.508C336.322 372.508 316.822 366.658 299.402 354.958C281.982 343.258 268.072 326.748 257.672 305.428C247.532 284.108 242.462 259.278 242.462 230.938C242.462 202.598 247.532 177.898 257.672 156.838C267.812 135.778 281.462 119.398 298.622 107.698C316.042 95.9979 335.412 90.1479 356.732 90.1479C378.572 90.1479 398.072 95.9979 415.232 107.698C432.652 119.398 446.432 135.908 456.572 157.228C466.712 178.288 471.782 203.118 471.782 231.718C471.782 260.058 466.712 284.888 456.572 306.208C446.432 327.268 432.782 343.648 415.622 355.348C398.462 366.788 379.222 372.508 357.902 372.508ZM357.122 324.538C369.602 324.538 380.392 321.028 389.492 314.008C398.592 306.988 405.612 296.588 410.552 282.808C415.752 269.028 418.352 251.868 418.352 231.328C418.352 210.788 415.752 193.628 410.552 179.848C405.612 166.068 398.462 155.798 389.102 149.038C380.002 142.018 369.212 138.508 356.732 138.508C344.512 138.508 333.852 142.018 324.752 149.038C315.652 155.798 308.502 166.068 303.302 179.848C298.362 193.368 295.892 210.398 295.892 230.938C295.892 251.738 298.362 269.028 303.302 282.808C308.502 296.588 315.652 306.988 324.752 314.008C333.852 321.028 344.642 324.538 357.122 324.538ZM487.633 271.888L581.233 94.4379H639.733L543.793 271.888H487.633ZM487.633 303.088V271.888L507.133 256.678H703.693V303.088H487.633ZM617.113 368.608V193.888H669.373V368.608H617.113Z" fill="url(#paint0_linear_12402_609)"/>
<rect x="240" y="204" width="234" height="53" fill="#0C0E1D"/>
<path d="M259.411 245V217H264.011V245H259.411ZM262.571 245V240.8H278.251V245H262.571ZM262.571 232.72V228.68H276.891V232.72H262.571ZM262.571 221.2V217H278.051V221.2H262.571ZM304.165 233.12V229.32H311.245C312.658 229.32 313.752 228.96 314.525 228.24C315.325 227.493 315.725 226.467 315.725 225.16C315.725 223.987 315.338 223 314.565 222.2C313.792 221.4 312.698 221 311.285 221H304.165V217H311.485C313.245 217 314.792 217.36 316.125 218.08C317.458 218.773 318.485 219.733 319.205 220.96C319.952 222.16 320.325 223.533 320.325 225.08C320.325 226.707 319.952 228.12 319.205 229.32C318.485 230.52 317.458 231.453 316.125 232.12C314.792 232.787 313.245 233.12 311.485 233.12H304.165ZM301.005 245V217H305.605V245H301.005ZM316.365 245L306.565 232.84L310.845 231.28L322.165 245H316.365ZM346.735 233.12V229.32H353.815C355.228 229.32 356.322 228.96 357.095 228.24C357.895 227.493 358.295 226.467 358.295 225.16C358.295 223.987 357.908 223 357.135 222.2C356.362 221.4 355.268 221 353.855 221H346.735V217H354.055C355.815 217 357.362 217.36 358.695 218.08C360.028 218.773 361.055 219.733 361.775 220.96C362.522 222.16 362.895 223.533 362.895 225.08C362.895 226.707 362.522 228.12 361.775 229.32C361.055 230.52 360.028 231.453 358.695 232.12C357.362 232.787 355.815 233.12 354.055 233.12H346.735ZM343.575 245V217H348.175V245H343.575ZM358.935 245L349.135 232.84L353.415 231.28L364.735 245H358.935ZM398.674 245.4C396.674 245.4 394.807 245.027 393.074 244.28C391.341 243.533 389.821 242.507 388.514 241.2C387.207 239.867 386.181 238.333 385.434 236.6C384.714 234.84 384.354 232.96 384.354 230.96C384.354 228.96 384.714 227.093 385.434 225.36C386.181 223.627 387.194 222.107 388.474 220.8C389.781 219.467 391.287 218.44 392.994 217.72C394.727 216.973 396.594 216.6 398.594 216.6C400.594 216.6 402.447 216.973 404.154 217.72C405.887 218.44 407.407 219.467 408.714 220.8C410.021 222.107 411.034 223.64 411.754 225.4C412.501 227.133 412.874 229 412.874 231C412.874 233 412.501 234.88 411.754 236.64C411.034 238.373 410.021 239.893 408.714 241.2C407.434 242.507 405.927 243.533 404.194 244.28C402.487 245.027 400.647 245.4 398.674 245.4ZM398.594 241C400.487 241 402.141 240.573 403.554 239.72C404.994 238.867 406.114 237.693 406.914 236.2C407.741 234.68 408.154 232.933 408.154 230.96C408.154 229.493 407.914 228.16 407.434 226.96C406.981 225.733 406.327 224.68 405.474 223.8C404.621 222.893 403.607 222.2 402.434 221.72C401.287 221.24 400.007 221 398.594 221C396.727 221 395.074 221.427 393.634 222.28C392.221 223.107 391.101 224.267 390.274 225.76C389.474 227.253 389.074 228.987 389.074 230.96C389.074 232.427 389.301 233.787 389.754 235.04C390.234 236.267 390.887 237.32 391.714 238.2C392.567 239.08 393.581 239.773 394.754 240.28C395.927 240.76 397.207 241 398.594 241ZM438.712 233.12V229.32H445.792C447.205 229.32 448.298 228.96 449.072 228.24C449.872 227.493 450.272 226.467 450.272 225.16C450.272 223.987 449.885 223 449.112 222.2C448.338 221.4 447.245 221 445.832 221H438.712V217H446.032C447.792 217 449.338 217.36 450.672 218.08C452.005 218.773 453.032 219.733 453.752 220.96C454.498 222.16 454.872 223.533 454.872 225.08C454.872 226.707 454.498 228.12 453.752 229.32C453.032 230.52 452.005 231.453 450.672 232.12C449.338 232.787 447.792 233.12 446.032 233.12H438.712ZM435.552 245V217H440.152V245H435.552ZM450.912 245L441.112 232.84L445.392 231.28L456.712 245H450.912Z" fill="#E97A58"/>
<defs>
<linearGradient id="paint0_linear_12402_609" x1="357.152" y1="163" x2="357.152" y2="369" gradientUnits="userSpaceOnUse">
<stop stop-color="white"/>
<stop offset="1" stop-color="white" stop-opacity="0"/>
</linearGradient>
</defs>
</svg>
