<svg width="133" height="35" viewBox="0 0 133 35" fill="none" xmlns="http://www.w3.org/2000/svg">
<path d="M36.4967 6.96535H41.0153L44.2015 21.2743H44.3753L48.6622 6.96535H52.6015L56.8884 21.2743H57.0622L60.2774 6.96535H64.796L59.6401 27.2702H54.3105L50.7188 15.1047H50.545L46.9532 27.2702H41.6236L36.4967 6.96535ZM66.4038 5.7488H70.9224V14.1488H71.1542C71.4824 13.4343 72.0135 12.8357 72.7473 12.3529C73.5004 11.8509 74.4079 11.5998 75.47 11.5998C77.4783 11.5998 78.8686 12.2371 79.6411 13.5116C80.4135 14.7667 80.7997 16.1764 80.7997 17.7405V27.2412H76.2811V18.5226C76.2811 17.5185 76.059 16.7267 75.6148 16.1474C75.1707 15.5681 74.5045 15.2785 73.6162 15.2785C72.7279 15.2785 72.0521 15.5778 71.5886 16.1764C71.1445 16.775 70.9224 17.5571 70.9224 18.5226V27.2412H66.4038V5.7488ZM83.3676 11.9185H87.8573V27.2412H83.3676V11.9185ZM85.598 9.36949C84.9028 9.36949 84.3235 9.13776 83.8601 8.67431C83.3966 8.19156 83.1649 7.61225 83.1649 6.93638C83.1649 6.24121 83.3966 5.6619 83.8601 5.19845C84.3235 4.71569 84.9028 4.47431 85.598 4.47431C86.2932 4.47431 86.8725 4.71569 87.3359 5.19845C87.8187 5.6619 88.0601 6.24121 88.0601 6.93638C88.0601 7.61225 87.8187 8.19156 87.3359 8.67431C86.8725 9.13776 86.2932 9.36949 85.598 9.36949ZM90.4909 23.6785L97.3847 15.4522V15.3943H90.7516V11.8605H102.164V15.3943L95.2702 23.6205V23.7074H102.164V27.2412H90.4909V23.6785ZM103.963 23.6785L110.857 15.4522V15.3943H104.224V11.8605H115.636V15.3943L108.743 23.6205V23.7074H115.636V27.2412H103.963V23.6785ZM125.256 29.4426C125.005 30.1378 124.716 30.775 124.387 31.3543C124.078 31.9336 123.509 32.5033 122.678 33.0633C121.848 33.6233 120.757 33.9033 119.405 33.9033C118.845 33.9033 118.353 33.855 117.928 33.7585C117.523 33.6619 117.262 33.604 117.146 33.5847V30.4564C117.609 30.5336 118.015 30.5722 118.363 30.5722C119.27 30.5722 119.936 30.3695 120.361 29.964C120.786 29.5585 121.163 28.9309 121.491 28.0812L121.925 27.0095L116.48 11.9185H121.027L124.04 22.0564H124.214L127.313 11.9185H131.86L125.256 29.4426Z" fill="white"/>
<g clip-path="url(#clip0_10531_312)">
<path d="M0 17.49H17.5V0C16.7666 4.3757 14.6861 8.41309 11.5488 11.5486C8.4115 14.6841 4.37404 16.7612 0 17.49Z" fill="#FFA62B"/>
<path d="M17.5 34.9997V17.4897H35C30.6226 18.2184 26.5823 20.298 23.4445 23.4376C20.3066 26.5772 18.2282 30.6198 17.5 34.9997Z" fill="#FFA62B"/>
</g>
<defs>
<clipPath id="clip0_10531_312">
<rect width="35" height="35" fill="white"/>
</clipPath>
</defs>
</svg>
