<svg width="139" height="38" viewBox="0 0 139 38" fill="none" xmlns="http://www.w3.org/2000/svg">
<g opacity="0.4" clip-path="url(#clip0_8160_3458)">
<path d="M23.638 1.82317L19.9795 0.851562L16.8964 12.2557L14.113 1.95997L10.4544 2.93158L13.4618 14.0554L5.97118 6.63126L3.29295 9.28573L11.5092 17.4291L1.27718 14.7118L0.296875 18.3378L11.4766 21.3069C11.3486 20.7597 11.2809 20.1896 11.2809 19.6037C11.2809 15.4572 14.6724 12.0957 18.8561 12.0957C23.0398 12.0957 26.4313 15.4572 26.4313 19.6037C26.4313 20.1858 26.3644 20.7524 26.238 21.2964L36.3983 23.9946L37.3786 20.3686L26.1544 17.3877L36.3871 14.6702L35.4067 11.0442L24.183 14.0248L31.6735 6.60078L28.9953 3.94631L20.8931 11.9767L23.638 1.82317Z" fill="#1D214A"/>
<path d="M26.2278 21.3379C25.9141 22.6522 25.2519 23.833 24.3433 24.779L31.7039 32.0745L34.3822 29.42L26.2278 21.3379Z" fill="#1D214A"/>
<path d="M24.2697 24.8564C23.3501 25.7873 22.188 26.482 20.8848 26.84L23.5632 36.7473L27.2217 35.7757L24.2697 24.8564Z" fill="#1D214A"/>
<path d="M20.7476 26.8766C20.143 27.0307 19.5092 27.1126 18.8561 27.1126C18.1564 27.1126 17.4789 27.0185 16.8356 26.8425L14.1548 36.7589L17.8133 37.7304L20.7476 26.8766Z" fill="#1D214A"/>
<path d="M16.7058 26.8044C15.4225 26.4286 14.281 25.7251 13.3802 24.7915L6.00146 32.1049L8.67969 34.7594L16.7058 26.8044Z" fill="#1D214A"/>
<path d="M13.3189 24.7276C12.4335 23.7881 11.7886 22.6232 11.4816 21.3291L1.28809 24.0362L2.26838 27.6623L13.3189 24.7276Z" fill="#1D214A"/>
<path d="M59.6088 10.8389L53.1105 29.5028H48.7999L42.3535 10.8389H45.987L50.9617 25.1273L55.9755 10.8389H59.6088Z" fill="#1D214A"/>
<path d="M61.2749 10.8389H65.0645V29.5028H61.2749V10.8389Z" fill="#1D214A"/>
<path d="M82.969 29.5028H79.0231L75.9628 22.3135H72.1471V29.5028H68.3574V10.8389H76.3013C77.8033 10.8389 79.0318 11.0754 79.9868 11.5488C80.9418 12.022 81.6451 12.6803 82.0965 13.5236C82.5479 14.3582 82.7737 15.3219 82.7737 16.4148C82.7737 17.3958 82.6174 18.2261 82.3049 18.9059C82.001 19.5771 81.5973 20.1364 81.0937 20.5839C80.5989 21.0313 80.0563 21.3971 79.4659 21.681L82.969 29.5028ZM75.6242 19.4093C76.6399 19.4093 77.443 19.1383 78.0334 18.5962C78.6324 18.0541 78.9319 17.3571 78.9319 16.5052C78.9319 15.6446 78.6454 14.9649 78.0724 14.4658C77.4994 13.9667 76.7745 13.7172 75.8976 13.7172H72.1471V19.4093H75.6242Z" fill="#1D214A"/>
<path d="M85.5615 29.5028V10.8389H98.4931L98.4801 14.0141H89.3772V18.5445H97.282V21.6552H89.3512V26.2889L98.6233 26.3018V29.5028H85.5615Z" fill="#1D214A"/>
<path d="M108.889 29.7613C107.11 29.7613 105.569 29.3783 104.266 28.6126C102.972 27.8381 101.97 26.741 101.258 25.3212C100.555 23.8927 100.203 22.189 100.203 20.2099C100.203 18.2222 100.559 16.5098 101.271 15.0728C101.992 13.6358 103.003 12.5301 104.305 11.7556C105.608 10.9725 107.136 10.5811 108.889 10.5811C110.634 10.5811 112.153 10.9683 113.447 11.7427C114.741 12.5172 115.739 13.6228 116.443 15.0599C117.154 16.4968 117.51 18.2135 117.51 20.2099C117.51 22.1804 117.159 23.8798 116.456 25.3083C115.761 26.7367 114.767 27.8381 113.473 28.6126C112.179 29.3783 110.652 29.7613 108.889 29.7613ZM108.889 26.6636C109.809 26.6636 110.604 26.4484 111.273 26.0182C111.95 25.5794 112.471 24.8909 112.835 23.953C113.2 23.0065 113.382 21.7759 113.382 20.2615C113.382 18.704 113.195 17.4434 112.822 16.4797C112.458 15.5159 111.937 14.8103 111.259 14.3629C110.591 13.9068 109.801 13.6788 108.889 13.6788C107.978 13.6788 107.183 13.9068 106.506 14.3629C105.829 14.8103 105.303 15.5202 104.93 16.4926C104.557 17.4563 104.37 18.7127 104.37 20.2615C104.37 21.7846 104.557 23.015 104.93 23.953C105.303 24.8909 105.829 25.5794 106.506 26.0182C107.183 26.4484 107.978 26.6636 108.889 26.6636Z" fill="#1D214A"/>
<path d="M132.305 10.8389H136.108V29.5028H132.683L123.736 16.6601V29.5028H119.946V10.8389H123.71L132.305 23.1912V10.8389Z" fill="#1D214A"/>
</g>
<defs>
<clipPath id="clip0_8160_3458">
<rect width="138.6" height="37.8" fill="white"/>
</clipPath>
</defs>
</svg>
