<svg width="130" height="36" viewBox="0 0 130 36" fill="none" xmlns="http://www.w3.org/2000/svg">
<g clip-path="url(#clip0_10495_187)">
<path d="M33.0943 11.327C32.4604 9.84587 31.6215 8.46562 30.6032 7.22859C29.0979 5.3453 27.2194 3.80912 25.0912 2.72116C22.9631 1.63322 20.6334 1.01815 18.256 0.91644C15.8785 0.814725 13.5068 1.22869 11.2971 2.13108C9.08741 3.03348 7.08975 4.40384 5.43571 6.15197C3.78163 7.90005 2.50861 9.98641 1.70043 12.2734C0.892254 14.5606 0.567227 16.9966 0.746765 19.4213C0.926303 21.846 1.60632 24.2044 2.74207 26.3411C3.87781 28.478 5.44354 30.3448 7.33616 31.8187C8.55061 32.7833 9.89247 33.5674 11.3219 34.1479C13.3261 34.9871 15.471 35.4193 17.6369 35.4206C22.1077 35.4106 26.3922 33.5895 29.5513 30.3566C32.7103 27.1238 34.4861 22.743 34.4893 18.1745C34.4925 15.8179 34.0176 13.4863 33.0943 11.327ZM17.6244 4.41573C19.5695 4.41552 21.4911 4.84992 23.2543 5.68851C22.8244 5.87836 22.3722 6.01098 21.9092 6.08309C20.3853 6.30848 18.9738 7.03142 17.885 8.14398C16.7963 9.25644 16.0888 10.699 15.8682 12.2561C15.7714 13.1292 15.3827 13.9418 14.7678 14.5562C14.1528 15.1707 13.3493 15.5494 12.4927 15.629C10.969 15.8543 9.55733 16.5773 8.46864 17.6898C7.37987 18.8023 6.67238 20.2448 6.45186 21.8019C6.37716 22.6322 6.03046 23.4126 5.46785 24.0165C4.49713 21.9207 4.06106 19.6077 4.20022 17.2933C4.33936 14.9788 5.04923 12.738 6.26373 10.7792C7.47824 8.82055 9.15787 7.20759 11.1464 6.09052C13.135 4.97342 15.3678 4.38855 17.6369 4.39027L17.6244 4.41573ZM7.3237 27.0839C7.47315 26.9439 7.62268 26.8167 7.77213 26.6639C8.8803 25.5661 9.59156 24.117 9.78988 22.5528C9.87044 21.6736 10.2545 20.8524 10.8736 20.2364C11.4693 19.6028 12.2711 19.2135 13.128 19.1418C14.6519 18.9163 16.0634 18.1935 17.1522 17.0809C18.2409 15.9684 18.9484 14.5259 19.1689 12.9689C19.2229 12.0493 19.6091 11.1829 20.2526 10.5378C20.863 9.9165 21.6724 9.54137 22.5319 9.48134C23.9319 9.28453 25.2374 8.6486 26.2686 7.66133C27.4428 8.65677 28.4375 9.85413 29.2081 11.1997C29.1608 11.265 29.1065 11.3248 29.0462 11.3778C28.4517 12.017 27.651 12.415 26.7918 12.4979C25.2664 12.7193 23.8526 13.441 22.7632 14.5542C21.6739 15.6675 20.9675 17.1121 20.7508 18.6709C20.663 19.5471 20.2815 20.3653 19.6709 20.987C19.0602 21.6087 18.2581 21.9955 17.4003 22.0819C15.872 22.3055 14.4551 23.0271 13.3601 24.1391C12.265 25.2513 11.5503 26.6946 11.3219 28.2549C11.255 28.8769 11.0457 29.4741 10.7117 29.9986C9.43369 29.2232 8.2891 28.2386 7.3237 27.0839ZM17.6244 31.9969C16.3605 31.9983 15.1028 31.8182 13.8879 31.4622C14.3035 30.6706 14.5736 29.8078 14.685 28.9167C14.7723 28.0424 15.1521 27.2258 15.7601 26.6044C16.3683 25.9829 17.1675 25.5949 18.0231 25.5057C19.5491 25.2828 20.9636 24.5609 22.0548 23.4482C23.1459 22.3356 23.8553 20.8916 24.0764 19.3327C24.1637 18.4584 24.5435 17.6416 25.1517 17.0202C25.7597 16.399 26.559 16.0109 27.4145 15.9217C28.5629 15.769 29.6575 15.3321 30.6032 14.6489C31.1283 16.6826 31.1905 18.8122 30.785 20.8745C30.3796 22.9366 29.5172 24.8766 28.2641 26.5453C27.0111 28.2139 25.4007 29.5673 23.5564 30.5013C21.712 31.4351 19.6829 31.925 17.6244 31.9332V31.9969Z" fill="#26AAF2"/>
<path d="M40.7305 28.3197V8.86792H55.6872V12.002H44.6945V16.9075H54.8545V20.0416H44.6945V25.1855H56.2202V28.3197H40.7305Z" fill="#263136"/>
<path d="M56.77 20.8593C56.77 18.3838 57.2586 16.4762 58.2357 15.1362C59.2351 13.7736 60.6231 13.0923 62.3997 13.0923C64.5316 13.0923 66.0083 13.9894 66.8301 15.7835C66.8301 15.352 66.8523 14.8864 66.8967 14.3867C66.9411 13.8644 66.9855 13.5238 67.0299 13.3648H70.6609C70.6165 14.364 70.5943 15.511 70.5943 16.8054V34.1792H66.8301V27.9791L66.8967 25.833H66.8633C66.0195 27.6726 64.4317 28.5923 62.0998 28.5923C60.3899 28.5923 59.0685 27.911 58.1358 26.5483C57.2253 25.1857 56.77 23.2894 56.77 20.8593ZM66.8633 20.7912C66.8633 19.2015 66.5968 17.9637 66.0639 17.078C65.5531 16.1923 64.787 15.7494 63.7654 15.7494C61.7445 15.7494 60.7341 17.4527 60.7341 20.8593C60.7341 24.2432 61.7334 25.9351 63.7321 25.9351C64.7314 25.9351 65.4976 25.4923 66.0306 24.6066C66.5858 23.7209 66.8633 22.449 66.8633 20.7912Z" fill="#263136"/>
<path d="M76.3409 13.3647V21.745C76.3409 24.3794 77.207 25.6966 78.9392 25.6966C79.8497 25.6966 80.5825 25.2992 81.1378 24.5043C81.7151 23.6867 82.0038 22.6534 82.0038 21.4043V13.3647H85.8015V24.9812C85.8015 26.253 85.8348 27.3658 85.9015 28.3197H82.3036C82.1926 27.0025 82.137 26.0146 82.137 25.3559H82.0704C81.5597 26.4915 80.9156 27.3204 80.1384 27.8428C79.3612 28.3424 78.4396 28.5923 77.3736 28.5923C75.819 28.5923 74.6198 28.1153 73.776 27.1615C72.9542 26.1849 72.5435 24.7541 72.5435 22.8691V13.3647H76.3409Z" fill="#263136"/>
<path d="M87.9829 10.6735V7.84595H91.781V10.6735H87.9829ZM87.9829 28.3197V13.3647H91.781V28.3197H87.9829Z" fill="#263136"/>
<path d="M103.47 28.3198V19.9395C103.47 17.3051 102.604 15.9879 100.872 15.9879C99.9617 15.9879 99.2176 16.3966 98.6402 17.2143C98.0855 18.0092 97.8074 19.0425 97.8074 20.3143V28.3198H94.0102V16.7373C94.0102 15.9425 93.9988 15.2838 93.9769 14.7615C93.9549 14.2391 93.9321 13.7736 93.9102 13.3648H97.5081C97.5301 13.5465 97.5634 14.0234 97.6073 14.7955C97.674 15.5451 97.7073 16.0674 97.7073 16.3626H97.7407C98.2514 15.2271 98.8955 14.3981 99.673 13.8757C100.451 13.3534 101.372 13.0923 102.438 13.0923C103.992 13.0923 105.181 13.5806 106.002 14.5571C106.846 15.5337 107.268 16.9645 107.268 18.8494V28.3198H103.47Z" fill="#263136"/>
<path d="M109.216 10.6735V7.84595H113.014V10.6735H109.216ZM109.216 28.3197V13.3647H113.014V28.3197H109.216Z" fill="#263136"/>
<path d="M124.37 28.3197L120.973 22.9032L117.541 28.3197H113.511L118.841 20.5867L113.744 13.3647H117.841L120.973 18.2702L124.07 13.3647H128.201L123.104 20.5527L128.501 28.3197H124.37Z" fill="#263136"/>
</g>
<defs>
<clipPath id="clip0_10495_187">
<rect width="129" height="35" fill="white" transform="translate(0.200195 0.5)"/>
</clipPath>
</defs>
</svg>
