<svg width="178" height="42" viewBox="0 0 178 42" fill="none" xmlns="http://www.w3.org/2000/svg">
<path fill-rule="evenodd" clip-rule="evenodd" d="M12.1028 3.1416C10.1167 3.1416 8.21205 3.94259 6.8077 5.36834L0.03125 12.2481V15.3972C0.03125 17.622 0.972572 19.6236 2.47293 21.0139C0.972572 22.4042 0.03125 24.4058 0.03125 26.6307V29.7798L6.8077 36.6595C8.21205 38.0853 10.1167 38.8863 12.1028 38.8863C14.2942 38.8863 16.2657 37.9306 17.6352 36.4074C19.0046 37.9306 20.9761 38.8863 23.1676 38.8863C25.1536 38.8863 27.0583 38.0853 28.4627 36.6595L35.2391 29.7798V26.6307C35.2391 24.4058 34.2978 22.4042 32.7975 21.0139C34.2978 19.6236 35.2391 17.622 35.2391 15.3972V12.2481L28.4627 5.36834C27.0583 3.94259 25.1536 3.1416 23.1676 3.1416C20.9761 3.1416 19.0046 4.09727 17.6352 5.6205C16.2657 4.09727 14.2942 3.1416 12.1028 3.1416ZM22.704 21.0139C22.6196 20.9357 22.5368 20.8554 22.4557 20.773L17.6352 15.879L12.8147 20.773C12.7335 20.8554 12.6507 20.9357 12.5663 21.0139C12.6507 21.0921 12.7335 21.1725 12.8147 21.2548L17.6352 26.1488L22.4557 21.2548C22.5368 21.1725 22.6196 21.0921 22.704 21.0139ZM19.5911 29.7798V31.2837C19.5911 33.289 21.1924 34.9147 23.1676 34.9147C24.1161 34.9147 25.0257 34.5321 25.6965 33.8512L31.3272 28.1346V26.6307C31.3272 24.6254 29.7259 22.9997 27.7507 22.9997C26.8022 22.9997 25.8926 23.3823 25.2219 24.0632L19.5911 29.7798ZM15.6792 29.7798L10.0485 24.0632C9.37776 23.3823 8.46819 22.9997 7.51969 22.9997C5.54444 22.9997 3.94324 24.6254 3.94324 26.6307V28.1346L9.57387 33.8512C10.2446 34.5321 11.1543 34.9147 12.1028 34.9147C14.0779 34.9147 15.6792 33.289 15.6792 31.2837V29.7798ZM15.6792 10.7441V12.2481L10.0485 17.9646C9.37776 18.6456 8.46819 19.0281 7.51969 19.0281C5.54444 19.0281 3.94324 17.4025 3.94324 15.3972V13.8932L9.57387 8.17667C10.2446 7.49582 11.1543 7.11324 12.1028 7.11324C14.0779 7.11324 15.6792 8.73884 15.6792 10.7441ZM25.2219 17.9646L19.5911 12.2481V10.7441C19.5911 8.73884 21.1924 7.11324 23.1676 7.11324C24.1161 7.11324 25.0257 7.49582 25.6965 8.17667L31.3272 13.8932V15.3972C31.3272 17.4025 29.7259 19.0281 27.7507 19.0281C26.8022 19.0281 25.8926 18.6456 25.2219 17.9646Z" fill="#FF630B"/>
<path d="M47.7509 22.9747V33.9578H42.561V14.96H47.5072V18.3118H47.7265C48.1407 17.2069 48.8351 16.3329 49.8097 15.6897C50.7843 15.0383 51.966 14.7126 53.3548 14.7126C54.6543 14.7126 55.7873 15.0012 56.7538 15.5784C57.7202 16.1556 58.4716 16.9801 59.0076 18.0521C59.5436 19.1158 59.8116 20.3856 59.8116 21.8615V33.9578H54.6219V22.8015C54.63 21.6389 54.3376 20.7319 53.7447 20.0805C53.1518 19.4208 52.3355 19.091 51.2959 19.091C50.5975 19.091 49.9802 19.2436 49.4443 19.5486C48.9163 19.8537 48.5021 20.299 48.2016 20.8844C47.9092 21.4616 47.759 22.1584 47.7509 22.9747Z" fill="#361807"/>
<path d="M71.3477 34.3288C69.4554 34.3288 67.8188 33.9207 66.4382 33.1044C65.0656 32.2798 64.0057 31.1337 63.2585 29.6659C62.5113 28.19 62.1377 26.479 62.1377 24.5331C62.1377 22.5707 62.5113 20.8555 63.2585 19.3879C64.0057 17.9119 65.0656 16.7657 66.4382 15.9494C67.8188 15.1249 69.4554 14.7126 71.3477 14.7126C73.2402 14.7126 74.8726 15.1249 76.2452 15.9494C77.6258 16.7657 78.6898 17.9119 79.437 19.3879C80.1842 20.8555 80.5579 22.5707 80.5579 24.5331C80.5579 26.479 80.1842 28.19 79.437 29.6659C78.6898 31.1337 77.6258 32.2798 76.2452 33.1044C74.8726 33.9207 73.2402 34.3288 71.3477 34.3288ZM71.3721 30.2473C72.233 30.2473 72.9518 29.9998 73.5284 29.5051C74.1051 29.0022 74.5396 28.3178 74.832 27.452C75.1325 26.5862 75.2828 25.6008 75.2828 24.496C75.2828 23.3911 75.1325 22.4057 74.832 21.54C74.5396 20.6741 74.1051 19.9898 73.5284 19.4868C72.9518 18.9838 72.233 18.7323 71.3721 18.7323C70.5031 18.7323 69.7722 18.9838 69.1793 19.4868C68.5945 19.9898 68.1518 20.6741 67.8513 21.54C67.559 22.4057 67.4128 23.3911 67.4128 24.496C67.4128 25.6008 67.559 26.5862 67.8513 27.452C68.1518 28.3178 68.5945 29.0022 69.1793 29.5051C69.7722 29.9998 70.5031 30.2473 71.3721 30.2473Z" fill="#361807"/>
<path d="M99.7655 14.96L93.2239 33.9577H87.3761L80.834 14.96H86.3162L90.2022 28.5528H90.3976L94.2713 14.96H99.7655Z" fill="#361807"/>
<path d="M106.246 34.3165C105.052 34.3165 103.987 34.1062 103.054 33.6857C102.12 33.2569 101.38 32.6261 100.836 31.7933C100.3 30.9523 100.033 29.905 100.033 28.6517C100.033 27.5963 100.224 26.7099 100.605 25.9925C100.987 25.2752 101.506 24.698 102.165 24.2609C102.822 23.824 103.569 23.4941 104.406 23.2715C105.251 23.0488 106.136 22.8922 107.062 22.8015C108.15 22.686 109.027 22.5789 109.693 22.48C110.359 22.3727 110.842 22.2161 111.143 22.0099C111.444 21.8038 111.594 21.4987 111.594 21.0947V21.0204C111.594 20.2372 111.35 19.6311 110.863 19.2024C110.384 18.7735 109.702 18.5591 108.816 18.5591C107.882 18.5591 107.139 18.7694 106.587 19.1899C106.035 19.6023 105.669 20.1217 105.49 20.7484L100.69 20.3525C100.934 19.1982 101.413 18.2005 102.128 17.3594C102.842 16.5102 103.765 15.8587 104.893 15.4052C106.03 14.9435 107.346 14.7126 108.841 14.7126C109.88 14.7126 110.875 14.8363 111.826 15.0837C112.783 15.331 113.633 15.7145 114.371 16.2339C115.118 16.7534 115.707 17.4213 116.138 18.2376C116.568 19.0456 116.784 20.0145 116.784 21.1442V33.9578H111.862V31.3233H111.716C111.415 31.917 111.013 32.4406 110.51 32.8941C110.006 33.3394 109.401 33.6898 108.695 33.9454C107.988 34.1928 107.171 34.3165 106.246 34.3165ZM107.732 30.6802C108.495 30.6802 109.169 30.5276 109.755 30.2225C110.339 29.9091 110.798 29.4887 111.131 28.9609C111.464 28.4332 111.63 27.8354 111.63 27.1675V25.1515C111.468 25.2587 111.245 25.3576 110.96 25.4483C110.684 25.5308 110.372 25.6091 110.022 25.6833C109.673 25.7493 109.324 25.8111 108.975 25.8688C108.625 25.9183 108.308 25.9636 108.024 26.0049C107.415 26.0956 106.883 26.2399 106.428 26.4378C105.973 26.6357 105.62 26.9036 105.368 27.2418C105.117 27.5715 104.991 27.9838 104.991 28.4785C104.991 29.1959 105.247 29.7443 105.758 30.1236C106.278 30.4946 106.936 30.6802 107.732 30.6802Z" fill="#361807"/>
<path d="M126.697 34.267C125.275 34.267 123.988 33.896 122.835 33.1538C121.689 32.4036 120.78 31.3027 120.106 29.8516C119.44 28.392 119.107 26.6028 119.107 24.4837C119.107 22.3068 119.452 20.4969 120.142 19.054C120.833 17.6028 121.75 16.5184 122.895 15.801C124.049 15.0755 125.311 14.7127 126.685 14.7127C127.732 14.7127 128.605 14.8941 129.304 15.2569C130.01 15.6114 130.579 16.0567 131.009 16.5927C131.448 17.1204 131.781 17.6398 132.008 18.1511H132.166V8.62744H137.345V33.9578H132.227V30.9152H132.008C131.764 31.4429 131.419 31.9665 130.973 32.4859C130.535 32.9972 129.962 33.4218 129.255 33.7599C128.557 34.098 127.704 34.267 126.697 34.267ZM128.341 30.0742C129.178 30.0742 129.884 29.8433 130.461 29.3815C131.046 28.9116 131.492 28.256 131.801 27.4149C132.118 26.574 132.276 25.5886 132.276 24.4589C132.276 23.3293 132.122 22.348 131.813 21.5153C131.505 20.6824 131.058 20.0393 130.473 19.5858C129.888 19.1323 129.178 18.9056 128.341 18.9056C127.488 18.9056 126.77 19.1406 126.185 19.6105C125.6 20.0806 125.157 20.7319 124.857 21.5647C124.556 22.3975 124.407 23.3623 124.407 24.4589C124.407 25.5638 124.556 26.5409 124.857 27.3902C125.165 28.2313 125.608 28.8909 126.185 29.3692C126.77 29.8391 127.488 30.0742 128.341 30.0742Z" fill="#361807"/>
<path d="M149.129 34.3288C147.205 34.3288 145.548 33.933 144.159 33.1414C142.779 32.3417 141.714 31.2119 140.967 29.7525C140.22 28.2848 139.847 26.5491 139.847 24.5455C139.847 22.5912 140.22 20.8762 140.967 19.4002C141.714 17.9242 142.766 16.774 144.123 15.9494C145.487 15.1249 147.087 14.7126 148.922 14.7126C150.157 14.7126 151.306 14.9146 152.37 15.3187C153.442 15.7145 154.376 16.3122 155.173 17.1121C155.976 17.9119 156.601 18.9178 157.048 20.1299C157.495 21.3338 157.718 22.7438 157.718 24.36V25.807H141.918V22.5418H152.833C152.833 21.7832 152.671 21.1111 152.345 20.5257C152.021 19.9403 151.57 19.4827 150.994 19.1529C150.425 18.8148 149.763 18.6457 149.008 18.6457C148.22 18.6457 147.522 18.8312 146.912 19.2024C146.312 19.5652 145.84 20.0558 145.499 20.6741C145.158 21.2843 144.984 21.9646 144.976 22.7149V25.8194C144.976 26.7594 145.146 27.5715 145.487 28.2559C145.836 28.9404 146.328 29.4681 146.961 29.8391C147.595 30.2101 148.346 30.3957 149.215 30.3957C149.792 30.3957 150.319 30.3132 150.799 30.1483C151.278 29.9834 151.688 29.736 152.03 29.4062C152.37 29.0764 152.63 28.6724 152.808 28.1941L157.609 28.5157C157.365 29.6865 156.865 30.709 156.11 31.5831C155.363 32.4488 154.396 33.1249 153.211 33.6115C152.033 34.0897 150.673 34.3288 149.129 34.3288Z" fill="#361807"/>
<path d="M164.098 14.96L167.533 21.6018L171.054 14.96H176.378L170.957 24.4588L176.525 33.9577H171.225L167.533 27.3901L163.903 33.9577H158.543L164.098 24.4588L158.737 14.96H164.098Z" fill="#361807"/>
</svg>
