<svg width="139" height="33" viewBox="0 0 139 33" fill="none" xmlns="http://www.w3.org/2000/svg">
<g opacity="0.4" clip-path="url(#clip0_8160_3489)">
<path d="M23.8666 15.0186C23.44 15.4602 23.1134 15.9931 22.9099 16.5794C22.7065 17.1657 22.6311 17.791 22.6892 18.4107L22.669 18.3898C22.7288 19.1193 22.6333 19.8533 22.3888 20.5409C22.1444 21.2283 21.7572 21.8526 21.2542 22.3703C20.751 22.8878 20.1442 23.2863 19.476 23.5376C18.8077 23.7891 18.0943 23.8875 17.3853 23.8259L17.4056 23.8468C16.5575 23.7656 15.7058 23.9554 14.9664 24.3905C14.2271 24.8256 13.6362 25.4847 13.2743 26.278C12.9124 27.0713 12.7969 27.96 12.944 28.8232C13.0911 29.6864 13.4933 30.4819 14.0958 31.1011C14.6984 31.7206 15.4718 32.1336 16.3109 32.2841C17.1501 32.4346 18.0138 32.3152 18.7845 31.9421C19.5551 31.5689 20.1953 30.9604 20.6175 30.1994C21.0396 29.4383 21.2235 28.5619 21.1438 27.6893L21.1652 27.7102C21.1053 26.9808 21.2008 26.2467 21.4453 25.5591C21.6896 24.8717 22.0769 24.2474 22.58 23.7297C23.0831 23.2121 23.6899 22.8136 24.3581 22.5623C25.0264 22.311 25.7398 22.2125 26.4488 22.2741L26.4274 22.2532C27.1202 22.3173 27.8175 22.2004 28.4547 21.9134C29.0918 21.6265 29.6483 21.1786 30.0724 20.6115C30.4966 20.0444 30.7749 19.3762 30.881 18.669C30.9874 17.9618 30.9186 17.2385 30.6808 16.5658C30.4431 15.8934 30.0441 15.2935 29.5211 14.8217C28.998 14.35 28.3678 14.0219 27.6885 13.8675C27.0093 13.7133 26.3031 13.7378 25.6356 13.9391C24.9682 14.1403 24.3609 14.5116 23.87 15.0186H23.8666Z" fill="#1D214A"/>
<path d="M15.5636 21.1161L15.5422 21.0953C16.1447 21.1578 16.7533 21.0816 17.3238 20.8724C17.8943 20.6633 18.4126 20.3264 18.8409 19.8861C19.2692 19.4456 19.5973 18.9127 19.8009 18.3258C20.0047 17.7391 20.0791 17.1131 20.0188 16.493L20.0402 16.5139C19.9802 15.7844 20.0759 15.0505 20.3202 14.3628C20.5647 13.6754 20.952 13.0511 21.455 12.5334C21.9582 12.0158 22.565 11.6174 23.2331 11.3661C23.9013 11.1146 24.6148 11.0162 25.3239 11.0778L25.3025 11.0569C26.1507 11.139 27.0027 10.9496 27.7424 10.515C28.4823 10.0805 29.0736 9.4217 29.436 8.62849C29.7985 7.83536 29.9143 6.94652 29.7678 6.08314C29.6212 5.21977 29.2193 4.42395 28.617 3.80422C28.0147 3.18448 27.2411 2.77099 26.4019 2.62019C25.5628 2.46936 24.6988 2.58854 23.928 2.96148C23.1571 3.33439 22.5167 3.94291 22.0944 4.70402C21.6719 5.46512 21.4879 6.34178 21.5677 7.21437L21.5474 7.19237C21.6073 7.9218 21.512 8.65603 21.2677 9.34361C21.0234 10.0312 20.6362 10.6556 20.1331 11.1733C19.6299 11.6909 19.0229 12.0894 18.3547 12.3407C17.6863 12.592 16.9728 12.6903 16.2638 12.6285L16.284 12.6505C15.6814 12.588 15.0728 12.6642 14.5023 12.8733C13.9319 13.0824 13.4137 13.4194 12.9853 13.8597C12.5568 14.3002 12.229 14.8331 12.0252 15.42C11.8216 16.0067 11.7472 16.6327 11.8074 17.2527L11.7872 17.2319C11.8468 17.9613 11.7511 18.6952 11.5066 19.3826C11.2621 20.07 10.8749 20.6944 10.3718 21.2119C9.86877 21.7294 9.26206 22.1278 8.59393 22.3795C7.9258 22.6308 7.21239 22.7294 6.50346 22.668L6.52372 22.6888C5.67558 22.6068 4.82353 22.796 4.08375 23.2307C3.34399 23.6653 2.75254 24.3241 2.39008 25.1173C2.0276 25.9105 1.91175 26.7993 2.05834 27.6627C2.20494 28.526 2.60682 29.3218 3.20918 29.9415C3.81154 30.5614 4.58505 30.9748 5.42422 31.1256C6.26337 31.2763 7.12732 31.1572 7.89823 30.7843C8.66917 30.4114 9.30942 29.8029 9.73185 29.0417C10.1544 28.2806 10.3382 27.404 10.2586 26.5314L10.2799 26.5522C10.22 25.8227 10.3156 25.0888 10.5601 24.4012C10.8044 23.7138 11.1917 23.0895 11.6948 22.5718C12.1979 22.0542 12.8047 21.6557 13.4729 21.4044C14.1411 21.153 14.8546 21.0546 15.5636 21.1161Z" fill="#1D214A"/>
<path d="M8.01896 18.792C8.44557 18.3506 8.77218 17.8176 8.97554 17.2313C9.17887 16.6449 9.25396 16.0195 9.19519 15.3999L9.21658 15.4208C9.15676 14.6912 9.25236 13.9569 9.49686 13.2692C9.74136 12.5816 10.1288 11.9571 10.6322 11.4394C11.1356 10.9218 11.7426 10.5234 12.4111 10.2721C13.0796 10.0209 13.7934 9.92273 14.5025 9.98469L14.4811 9.96384C15.3289 10.0457 16.1807 9.8563 16.9202 9.42169C17.6596 8.98715 18.2507 8.32853 18.613 7.53565C18.9752 6.74276 19.0909 5.85418 18.9444 4.99114C18.7978 4.12808 18.3959 3.33257 17.7938 2.71306C17.1918 2.09354 16.4185 1.6802 15.5796 1.52938C14.7408 1.37858 13.8771 1.49764 13.1066 1.87034C12.3358 2.24304 11.6957 2.85123 11.2733 3.61199C10.8509 4.37274 10.6669 5.24902 10.7463 6.12133L10.726 6.10049C10.7859 6.82987 10.6903 7.56402 10.4459 8.25152C10.2015 8.93901 9.81428 9.56339 9.31129 10.081C8.80811 10.5986 8.20131 10.997 7.53309 11.2483C6.86487 11.4998 6.15139 11.5982 5.44241 11.5365L5.46268 11.5574C4.76993 11.4935 4.07271 11.6106 3.43564 11.8977C2.79855 12.1848 2.24221 12.6327 1.81819 13.2C1.39415 13.767 1.11614 14.4352 1.0099 15.1424C0.903681 15.8497 0.972672 16.573 1.21048 17.2454C1.44829 17.918 1.84724 18.5177 2.37036 18.9893C2.89346 19.461 3.52381 19.789 4.20299 19.9433C4.88215 20.0975 5.58818 20.0728 6.25564 19.8717C6.9231 19.6703 7.53037 19.2991 8.02121 18.792H8.01896Z" fill="#1D214A"/>
<path d="M36.952 24.5889C36.952 24.5889 39.0588 21.6153 43.2725 15.6682C44.7898 13.4624 45.8164 11.9353 46.3524 11.0869L47.8861 8.57999L42.7407 8.77083C42.1552 8.79631 41.6811 8.84296 41.3183 8.91088C40.9554 8.97019 40.671 9.09328 40.4648 9.27989C40.1103 9.59382 39.8834 10.3234 39.7846 11.4687C39.7846 11.6384 39.5907 11.7699 39.2032 11.8632C39.1042 11.8887 38.9764 11.9014 38.8197 11.9014C38.663 11.9014 38.5394 11.8251 38.4487 11.6724C38.3662 11.5197 38.2879 11.3118 38.2137 11.0488C38.1477 10.7773 38.0941 10.4973 38.0529 10.2089C37.9704 9.63196 37.9292 9.13563 37.9292 8.71996C37.9292 8.29576 37.9457 7.96066 37.9787 7.71465C38.0116 7.46011 38.0734 7.26497 38.1642 7.12923C38.3208 6.89165 38.6548 6.77295 39.1661 6.77295H50.4712C50.7763 6.77295 51.0938 6.96801 51.4236 7.35828C51.7453 7.74004 51.8565 8.04123 51.7576 8.26185L40.7245 24.4235L47.1316 24.169C48.2531 24.1181 49.0159 23.8466 49.4199 23.3546C49.7662 22.9304 49.993 22.0989 50.1002 20.8603C50.1084 20.7755 50.195 20.6948 50.3599 20.6185C50.5331 20.5421 50.7269 20.504 50.9412 20.504C51.1639 20.504 51.3165 20.5846 51.3989 20.7458C51.4897 20.9069 51.568 21.1403 51.6339 21.4457C51.7081 21.7511 51.77 22.0692 51.8195 22.4001C51.9184 23.0619 51.9679 23.6345 51.9679 24.1181C51.9679 24.5932 51.9061 24.9707 51.7823 25.2507C51.6587 25.5306 51.4731 25.747 51.2258 25.8997C50.8135 26.1542 50.092 26.2815 49.0612 26.2815H38.1395C37.8096 26.2815 37.4962 26.0439 37.1994 25.5688C36.9026 25.1107 36.8201 24.7841 36.952 24.5889Z" fill="#1D214A"/>
<path d="M52.9375 19.4352C52.9375 18.4087 53.0406 17.4967 53.2467 16.6992C53.4529 15.9017 53.7291 15.1891 54.0754 14.5613C54.43 13.925 54.8423 13.3693 55.3123 12.8942C55.7905 12.4192 56.3018 12.0247 56.8461 11.7107C57.9181 11.083 58.9735 10.769 60.0125 10.769C61.0515 10.769 61.8843 10.96 62.511 11.3417C63.1377 11.715 63.6489 12.2155 64.0447 12.8434C64.7786 14.0396 65.1456 15.6303 65.1456 17.6155C65.1456 18.3536 64.8447 18.7311 64.2427 18.7481L55.6092 18.939C55.6586 20.7799 56.1204 22.1416 56.9945 23.0239C57.7366 23.7705 58.6972 24.1438 59.8764 24.1438C61.6329 24.1438 63.0593 23.7663 64.1561 23.0112C64.2303 23.0112 64.321 23.0748 64.4282 23.2021C64.6343 23.4566 64.7374 23.6772 64.7374 23.8638C64.7374 24.271 64.2427 24.7928 63.2532 25.4291C62.1152 26.1587 60.7876 26.5235 59.2703 26.5235C57.2913 26.5235 55.737 25.8745 54.6073 24.5764C53.4941 23.3039 52.9375 21.5902 52.9375 19.4352ZM55.6834 17.2973C58.0582 17.1786 60.231 17.0216 62.2018 16.8265C62.2925 14.1287 61.3855 12.7797 59.4807 12.7797C58.4169 12.7797 57.5469 13.2039 56.8708 14.0523C56.2524 14.8328 55.8566 15.9145 55.6834 17.2973Z" fill="#1D214A"/>
<path d="M73.0547 26.3453C72.8898 26.3029 72.6259 26.2817 72.2631 26.2817H68.3174C67.5258 26.2817 67.0187 26.1375 66.796 25.849C66.7053 25.7387 66.66 25.6115 66.66 25.4673C66.66 25.111 66.7259 24.8479 66.8579 24.6783C67.0557 24.7462 67.2785 24.7801 67.5258 24.7801C67.7814 24.7801 67.9711 24.674 68.0948 24.4619C68.2267 24.2499 68.2885 23.8554 68.2803 23.2785V14.9558C68.2803 14.1584 68.136 13.662 67.8474 13.4669C67.7319 13.3906 67.5794 13.3523 67.3897 13.3523C67.2001 13.3523 67.0475 13.382 66.9321 13.4414C66.8249 13.5008 66.7342 13.5433 66.66 13.5687C66.594 13.5941 66.5363 13.5941 66.4868 13.5687C66.4374 13.5347 66.3878 13.4881 66.3384 13.4287C66.2147 13.2929 66.1528 13.153 66.1528 13.0088C66.1528 12.8561 66.2024 12.6991 66.3013 12.538C66.4085 12.3682 66.5775 12.1774 66.8084 11.9653C67.0393 11.7447 67.3031 11.5453 67.6 11.3671C68.268 10.9684 68.9359 10.769 69.6037 10.769C70.3706 10.769 70.8242 11.2908 70.9644 12.3343C71.0055 12.6397 71.0303 12.9536 71.0386 13.276C72.2672 12.2155 73.6031 11.4605 75.046 11.0108C75.5656 10.8496 76.0892 10.769 76.6169 10.769C77.1529 10.769 77.6601 10.8412 78.1383 10.9854C78.6248 11.1296 79.0454 11.3629 79.4 11.6853C80.1503 12.364 80.5255 13.4245 80.5255 14.8667V23.4948C80.5503 24.1565 80.7894 24.5638 81.2429 24.7165C81.3665 24.7588 81.5193 24.7971 81.7002 24.831C81.8819 24.8649 82.0427 24.9073 82.1826 24.9583C82.3313 25.0006 82.4471 25.0516 82.5291 25.111C82.6698 25.2212 82.7398 25.3994 82.7398 25.6454C82.7398 25.9423 82.6738 26.1757 82.542 26.3453C82.3763 26.3029 82.1126 26.2817 81.75 26.2817H77.8044C77.0128 26.2817 76.5056 26.1375 76.2829 25.849C76.1923 25.7387 76.1469 25.6115 76.1469 25.4673C76.1469 25.111 76.2129 24.8479 76.3449 24.6783C76.5427 24.7462 76.7241 24.7801 76.8891 24.7801C77.0622 24.7801 77.2065 24.7588 77.322 24.7165C77.4374 24.6655 77.5281 24.585 77.5941 24.4747C77.7095 24.271 77.7672 23.8723 77.7672 23.2785V15.7703C77.7672 14.328 77.3508 13.5221 76.518 13.3523C76.2624 13.3015 75.9408 13.276 75.5532 13.276C75.1739 13.276 74.7534 13.3354 74.2916 13.4542C73.8298 13.573 73.3969 13.7257 72.9928 13.9123C72.2178 14.2686 71.5663 14.7182 71.0386 15.2612V23.4948C71.0633 24.1565 71.2983 24.5638 71.7436 24.7165C71.8755 24.7588 72.0281 24.7971 72.2013 24.831C72.3827 24.8649 72.5476 24.9073 72.696 24.9583C72.8444 25.0006 72.9599 25.0516 73.0424 25.111C73.1825 25.2212 73.2526 25.3994 73.2526 25.6454C73.2526 25.9423 73.1866 26.1757 73.0547 26.3453Z" fill="#1D214A"/>
<path d="M85.9854 8.4022C85.7048 8.4022 85.4451 8.35976 85.2055 8.27497C84.9748 8.18158 84.773 8.05014 84.6001 7.88047C84.2367 7.52411 84.0558 7.04474 84.0558 6.44245C84.0558 5.86553 84.2696 5.37771 84.699 4.97897C85.1115 4.58023 85.6059 4.38086 86.1832 4.38086C86.7605 4.38086 87.222 4.55902 87.5685 4.91535C87.9151 5.27167 88.0879 5.75524 88.0879 6.36607C88.0879 6.943 87.8821 7.4308 87.4696 7.82952C87.0652 8.21128 86.5707 8.4022 85.9854 8.4022ZM85.2304 26.2819C83.9609 26.2819 83.3257 25.9849 83.3257 25.391C83.3257 25.0856 83.3917 24.8481 83.5235 24.6784C83.7213 24.7463 83.903 24.7802 84.0678 24.7802C84.8349 24.7802 85.2103 24.2797 85.1935 23.2786V14.7524C85.1935 14.1585 85.1115 13.747 84.9458 13.5179C84.7898 13.2804 84.5052 13.1616 84.0928 13.1616C83.7872 13.1616 83.5115 13.1998 83.2638 13.2761C83.1159 13.2931 83.0081 13.1744 82.9422 12.9198C82.8843 12.6908 82.9173 12.4914 83.0411 12.3217C83.1649 12.1436 83.3547 11.9612 83.6104 11.7745C83.8741 11.5793 84.1627 11.4097 84.4763 11.2655C85.1525 10.9346 85.7169 10.7692 86.1703 10.7692C86.6238 10.7692 86.9583 10.8371 87.1729 10.9728C87.3949 11.1085 87.5645 11.2909 87.6795 11.52C87.8612 11.8933 87.952 12.4956 87.952 13.3271V23.4949C87.9762 24.1651 88.2117 24.5723 88.6572 24.7166C88.7802 24.759 88.9329 24.7972 89.1146 24.8311C89.2955 24.865 89.4564 24.9075 89.5971 24.9584C89.745 25.0008 89.8608 25.0517 89.9436 25.1111C90.0835 25.2214 90.1534 25.3996 90.1534 25.6456C90.1534 25.951 90.0915 26.1843 89.9677 26.3455C89.7948 26.303 89.5311 26.2819 89.1766 26.2819H85.2304Z" fill="#1D214A"/>
<path d="M94.735 17.6027L94.7229 20.9495C94.7229 22.3494 94.7928 23.1935 94.9335 23.482C95.0734 23.762 95.2383 23.9316 95.428 23.991C95.6178 24.0419 95.8606 24.0674 96.1581 24.0674C96.4547 24.0674 96.7225 24.0461 96.9621 24.0038C97.2089 23.9528 97.4397 23.8892 97.6543 23.8128C97.869 23.7365 98.0748 23.6516 98.2726 23.5583L98.8789 23.2911C99.0188 23.2402 99.1755 23.3886 99.3492 23.7365C99.3983 23.8298 99.4232 23.9401 99.4232 24.0674C99.4232 24.1862 99.3733 24.3431 99.2744 24.5382C99.1755 24.7334 98.9818 24.9582 98.6931 25.2126C98.4133 25.4587 98.0829 25.6793 97.7042 25.8744C96.8793 26.3071 96.1372 26.5234 95.4771 26.5234C94.8258 26.5234 94.2944 26.4852 93.8819 26.4089C93.4694 26.3325 93.1189 26.1798 92.8302 25.9508C92.2369 25.4757 91.9402 24.6061 91.9402 23.342V13.3269H90.7157C90.46 13.3269 90.2743 13.242 90.1585 13.0723C89.9607 12.8094 89.8618 12.5887 89.8618 12.4106C89.8618 12.1137 89.9318 11.9482 90.0725 11.9143C91.383 11.6852 92.3108 10.6841 92.8552 8.91105C93.012 8.37651 93.1358 7.74452 93.2266 7.01492C93.6222 6.947 93.9189 6.91309 94.1167 6.91309C94.3233 6.91309 94.5002 7.01913 94.6489 7.23123C94.7969 7.44333 94.8676 7.68934 94.8588 7.96927C94.8588 8.24928 94.8548 8.51225 94.8467 8.75826C94.8387 9.00436 94.8298 9.27155 94.8218 9.56L94.7727 11.3416H99.0517C99.1595 11.5368 99.2125 11.7446 99.2125 11.9652V12.3597C99.2125 12.716 99.0276 13.0087 98.6561 13.2378C98.2855 13.4583 97.873 13.5687 97.4196 13.5687C96.9741 13.5687 96.6525 13.5644 96.4547 13.5559C96.265 13.539 96.0793 13.522 95.8976 13.505L95.354 13.4286C95.1643 13.4117 94.9617 13.3947 94.7478 13.3777V13.5177L94.735 17.6027Z" fill="#1D214A"/>
<path d="M106.676 26.3455C106.511 26.303 106.248 26.2819 105.885 26.2819H101.939C101.148 26.2819 100.64 26.1376 100.418 25.8491C100.327 25.7389 100.282 25.6116 100.282 25.4674C100.282 25.1111 100.348 24.848 100.48 24.6784C100.677 24.7463 100.904 24.7802 101.16 24.7802C101.415 24.7802 101.605 24.6742 101.729 24.4621C101.852 24.25 101.91 23.8555 101.902 23.2786V7.51136C101.902 6.92603 101.844 6.54849 101.729 6.37879C101.555 6.10731 101.251 5.97157 100.813 5.97157H100.566C100.492 5.97157 100.406 5.9843 100.307 6.00974C100.216 6.02672 100.137 6.01823 100.071 5.9843C100.005 5.94188 99.9472 5.88673 99.8982 5.81886C99.7245 5.55586 99.9231 5.19954 100.492 4.7499C101.325 4.09664 102.174 3.77002 103.039 3.77002C103.98 3.77002 104.508 4.29177 104.623 5.33528C104.656 5.64919 104.672 5.98005 104.672 6.32789V13.2634C105.918 12.1859 107.249 11.4352 108.668 11.011C109.187 10.8497 109.71 10.7692 110.239 10.7692C110.774 10.7692 111.281 10.8413 111.76 10.9855C112.246 11.1297 112.663 11.363 113.009 11.6854C113.767 12.3811 114.147 13.4416 114.147 14.8668V23.4058C114.147 24.11 114.378 24.5426 114.84 24.7039C114.972 24.7547 115.129 24.7972 115.31 24.8311C115.491 24.865 115.652 24.9074 115.792 24.9584C115.941 25.0007 116.056 25.0517 116.139 25.1111C116.278 25.2214 116.348 25.3995 116.348 25.6456C116.348 25.951 116.287 26.1842 116.163 26.3455C115.99 26.303 115.726 26.2819 115.371 26.2819H111.426C110.634 26.2819 110.127 26.1376 109.904 25.8491C109.814 25.7389 109.768 25.6116 109.768 25.4674C109.768 25.1026 109.83 24.8396 109.954 24.6784C110.16 24.7463 110.383 24.7802 110.622 24.7802C110.861 24.7802 111.043 24.6911 111.166 24.5129C111.298 24.3348 111.372 24.0082 111.388 23.5331V15.7704C111.388 14.3282 110.973 13.5222 110.14 13.3525C109.884 13.3016 109.562 13.2761 109.175 13.2761C108.795 13.2761 108.375 13.3355 107.913 13.4543C107.46 13.5731 107.031 13.7258 106.627 13.9124C105.827 14.2857 105.176 14.7311 104.672 15.2486V23.4058C104.672 24.11 104.903 24.5426 105.366 24.7039C105.497 24.7547 105.653 24.7972 105.835 24.8311C106.017 24.865 106.178 24.9074 106.317 24.9584C106.466 25.0007 106.581 25.0517 106.664 25.1111C106.804 25.2214 106.874 25.3995 106.874 25.6456C106.874 25.9424 106.808 26.1758 106.676 26.3455Z" fill="#1D214A"/>
<path d="M119.421 8.4022C119.141 8.4022 118.881 8.35976 118.642 8.27497C118.411 8.18158 118.209 8.05014 118.036 7.88047C117.673 7.52411 117.491 7.04474 117.491 6.44245C117.491 5.86553 117.706 5.37771 118.135 4.97897C118.547 4.58023 119.042 4.38086 119.619 4.38086C120.196 4.38086 120.658 4.55902 121.004 4.91535C121.351 5.27167 121.524 5.75524 121.524 6.36607C121.524 6.943 121.318 7.4308 120.905 7.82952C120.502 8.21128 120.006 8.4022 119.421 8.4022ZM118.667 26.2819C117.397 26.2819 116.761 25.9849 116.761 25.391C116.761 25.0856 116.827 24.8481 116.96 24.6784C117.158 24.7463 117.339 24.7802 117.504 24.7802C118.271 24.7802 118.646 24.2797 118.629 23.2786V14.7524C118.629 14.1585 118.547 13.747 118.382 13.5179C118.226 13.2804 117.941 13.1616 117.528 13.1616C117.224 13.1616 116.947 13.1998 116.7 13.2761C116.552 13.2931 116.445 13.1744 116.379 12.9198C116.321 12.6908 116.354 12.4914 116.478 12.3217C116.601 12.1436 116.79 11.9612 117.046 11.7745C117.31 11.5793 117.598 11.4097 117.912 11.2655C118.588 10.9346 119.153 10.7692 119.607 10.7692C120.06 10.7692 120.394 10.8371 120.609 10.9728C120.831 11.1085 121 11.2909 121.116 11.52C121.297 11.8933 121.388 12.4956 121.388 13.3271V23.4949C121.413 24.1651 121.647 24.5723 122.093 24.7166C122.217 24.759 122.369 24.7972 122.55 24.8311C122.732 24.865 122.893 24.9075 123.033 24.9584C123.182 25.0008 123.296 25.0517 123.379 25.1111C123.519 25.2214 123.589 25.3996 123.589 25.6456C123.589 25.951 123.527 26.1843 123.404 26.3455C123.231 26.303 122.967 26.2819 122.612 26.2819H118.667Z" fill="#1D214A"/>
<path d="M132.661 24.6655C131.458 25.9042 130.002 26.5235 128.295 26.5235C126.976 26.5235 125.92 26.1332 125.128 25.3528C124.328 24.5638 123.929 23.5414 123.929 22.2858C123.929 20.7248 124.605 19.554 125.957 18.7735C127.178 18.0609 128.897 17.7045 131.115 17.7045H132.661C132.669 17.3822 132.673 17.0683 132.673 16.7628V15.8084C132.673 14.6716 132.512 13.8698 132.191 13.4033C131.828 12.8773 131.21 12.6143 130.336 12.6143C128.332 12.6143 127.302 13.3523 127.244 14.8286C127.236 15.0576 127.24 15.2485 127.256 15.4012C127.091 15.5369 126.811 15.6048 126.415 15.6048C126.027 15.6048 125.743 15.5582 125.562 15.4649C125.388 15.3715 125.236 15.2443 125.104 15.083C124.824 14.7522 124.683 14.3323 124.683 13.8232C124.683 13.3057 124.828 12.8561 125.116 12.4743C125.413 12.0841 125.813 11.7659 126.316 11.5199C127.298 11.0194 128.456 10.769 129.792 10.769C131.127 10.769 132.13 10.9048 132.797 11.1763C133.473 11.4392 134.009 11.7913 134.405 12.2325C135.106 13.013 135.457 14.0608 135.457 15.3758L135.333 21.4842C135.333 22.5955 135.383 23.2996 135.482 23.5966C135.589 23.8935 135.712 24.0929 135.852 24.1947C136.001 24.2965 136.178 24.3474 136.385 24.3474C136.598 24.3474 136.772 24.3135 136.904 24.2456L137.25 24.0802C137.365 24.0378 137.464 24.0886 137.547 24.2329C137.638 24.3686 137.683 24.4916 137.683 24.6019C137.683 24.7037 137.638 24.8395 137.547 25.0091C137.464 25.1788 137.304 25.3612 137.065 25.5563C136.834 25.743 136.569 25.9084 136.273 26.0527C134.632 26.8501 133.515 26.6635 132.921 25.4927C132.797 25.2637 132.711 24.988 132.661 24.6655ZM132.624 22.9984C132.624 21.7768 132.632 20.5636 132.649 19.3589C130.933 19.4268 129.767 19.5413 129.148 19.7025C128.538 19.8552 128.097 20.0037 127.825 20.1479C127.553 20.2921 127.339 20.4618 127.182 20.6569C126.926 20.9793 126.798 21.4671 126.798 22.1204C126.798 22.7652 127.021 23.2827 127.466 23.673C127.912 24.0547 128.551 24.2456 129.383 24.2456C130.563 24.2456 131.642 23.8299 132.624 22.9984Z" fill="#1D214A"/>
</g>
<defs>
<clipPath id="clip0_8160_3489">
<rect width="138" height="32" fill="white" transform="translate(0.399902 0.899902)"/>
</clipPath>
</defs>
</svg>
