<svg width="130" height="36" viewBox="0 0 130 36" fill="none" xmlns="http://www.w3.org/2000/svg">
<g opacity="0.4" clip-path="url(#clip0_8160_3501)">
<path d="M33.294 11.2269C32.6601 9.74578 31.8212 8.36552 30.8029 7.12849C29.2976 5.24521 27.4192 3.70902 25.2909 2.62106C23.1628 1.53312 20.8331 0.918049 18.4557 0.816343C16.0782 0.714627 13.7065 1.1286 11.4968 2.03099C9.28711 2.93338 7.28945 4.30374 5.63542 6.05188C3.98133 7.79996 2.70831 9.88631 1.90014 12.1733C1.09196 14.4605 0.766934 16.8965 0.946472 19.3212C1.12601 21.7459 1.80602 24.1043 2.94178 26.241C4.07752 28.3779 5.64325 30.2447 7.53587 31.7186C8.75031 32.6832 10.0922 33.4673 11.5216 34.0478C13.5258 34.887 15.6707 35.3192 17.8367 35.3205C22.3074 35.3105 26.5919 33.4894 29.751 30.2565C32.91 27.0237 34.6858 22.6429 34.689 18.0744C34.6922 15.7178 34.2173 13.3862 33.294 11.2269ZM17.8241 4.31563C19.7692 4.31543 21.6908 4.74982 23.454 5.58841C23.0241 5.77827 22.5719 5.91088 22.1089 5.98299C20.5851 6.20838 19.1735 6.93133 18.0847 8.04388C16.996 9.15634 16.2885 10.5989 16.0679 12.156C15.9712 13.0291 15.5824 13.8417 14.9675 14.4561C14.3525 15.0706 13.549 15.4493 12.6924 15.5289C11.1687 15.7542 9.75704 16.4772 8.66835 17.5897C7.57957 18.7022 6.87209 20.1447 6.65156 21.7018C6.57687 22.5321 6.23017 23.3125 5.66756 23.9164C4.69684 21.8206 4.26077 19.5076 4.39992 17.1932C4.53907 14.8788 5.24894 12.6379 6.46344 10.6791C7.67795 8.72046 9.35758 7.10749 11.3461 5.99042C13.3347 4.87333 15.5675 4.28845 17.8367 4.29017L17.8241 4.31563ZM7.52341 26.9838C7.67286 26.8438 7.82239 26.7166 7.97184 26.5638C9.08001 25.466 9.79126 24.0169 9.98959 22.4527C10.0702 21.5735 10.4542 20.7523 11.0733 20.1363C11.669 19.5027 12.4708 19.1134 13.3277 19.0417C14.8516 18.8162 16.2631 18.0934 17.3519 16.9808C18.4406 15.8683 19.1481 14.4258 19.3686 12.8688C19.4226 11.9492 19.8088 11.0828 20.4523 10.4377C21.0627 9.8164 21.8721 9.44128 22.7316 9.38124C24.1316 9.18443 25.4371 8.54851 26.4683 7.56124C27.6425 8.55667 28.6372 9.75403 29.4078 11.0996C29.3605 11.1649 29.3062 11.2247 29.2459 11.2777C28.6514 11.9169 27.8507 12.3149 26.9915 12.3978C25.4661 12.6192 24.0523 13.3409 22.9629 14.4541C21.8736 15.5674 21.1672 17.012 20.9506 18.5708C20.8627 19.447 20.4812 20.2652 19.8706 20.8869C19.26 21.5086 18.4578 21.8954 17.6 21.9818C16.0717 22.2054 14.6548 22.927 13.5598 24.039C12.4647 25.1512 11.75 26.5945 11.5216 28.1548C11.4547 28.7768 11.2455 29.374 10.9114 29.8985C9.63339 29.1231 8.4888 28.1385 7.52341 26.9838ZM17.8241 31.8968C16.5603 31.8982 15.3025 31.7181 14.0876 31.3621C14.5032 30.5705 14.7733 29.7077 14.8847 28.8166C14.972 27.9423 15.3518 27.1257 15.9598 26.5043C16.568 25.8828 17.3673 25.4948 18.2228 25.4056C19.7488 25.1827 21.1633 24.4609 22.2545 23.3481C23.3457 22.2355 24.055 20.7915 24.2761 19.2326C24.3634 18.3583 24.7432 17.5415 25.3514 16.9201C25.9594 16.2989 26.7587 15.9108 27.6142 15.8216C28.7626 15.6689 29.8573 15.232 30.8029 14.5488C31.328 16.5825 31.3902 18.7121 30.9847 20.7744C30.5793 22.8365 29.7169 24.7765 28.4638 26.4452C27.2108 28.1138 25.6004 29.4672 23.7561 30.4012C21.9117 31.335 19.8826 31.8249 17.8241 31.8331V31.8968Z" fill="#1D214A"/>
<path d="M40.9302 28.2198V8.76807H55.8869V11.9022H44.8942V16.8077H55.0542V19.9418H44.8942V25.0857H56.4199V28.2198H40.9302Z" fill="#1D214A"/>
<path d="M56.9697 20.7592C56.9697 18.2837 57.4583 16.3761 58.4354 15.0361C59.4348 13.6735 60.8228 12.9922 62.5994 12.9922C64.7313 12.9922 66.2081 13.8893 67.0298 15.6834C67.0298 15.2519 67.052 14.7863 67.0964 14.2866C67.1408 13.7643 67.1852 13.4237 67.2296 13.2647H70.8606C70.8162 14.2639 70.794 15.4109 70.794 16.7053V34.0791H67.0298V27.879L67.0964 25.7329H67.0631C66.2192 27.5725 64.6314 28.4923 62.2995 28.4923C60.5896 28.4923 59.2682 27.8109 58.3355 26.4483C57.425 25.0856 56.9697 23.1893 56.9697 20.7592ZM67.0631 20.6911C67.0631 19.1014 66.7965 17.8636 66.2636 16.9779C65.7528 16.0922 64.9867 15.6493 63.9651 15.6493C61.9442 15.6493 60.9338 17.3527 60.9338 20.7592C60.9338 24.1431 61.9332 25.835 63.9318 25.835C64.9311 25.835 65.6973 25.3922 66.2303 24.5065C66.7855 23.6208 67.0631 22.3489 67.0631 20.6911Z" fill="#1D214A"/>
<path d="M76.5406 13.2646V21.6449C76.5406 24.2793 77.4067 25.5965 79.1389 25.5965C80.0494 25.5965 80.7822 25.1991 81.3375 24.4043C81.9148 23.5866 82.2035 22.5533 82.2035 21.3042V13.2646H86.0012V24.8811C86.0012 26.1529 86.0346 27.2657 86.1012 28.2196H82.5033C82.3923 26.9024 82.3367 25.9145 82.3367 25.2558H82.2701C81.7594 26.3914 81.1154 27.2203 80.3381 27.7427C79.5609 28.2423 78.6393 28.4922 77.5733 28.4922C76.0187 28.4922 74.8195 28.0152 73.9757 27.0614C73.1539 26.0848 72.7432 24.654 72.7432 22.769V13.2646H76.5406Z" fill="#1D214A"/>
<path d="M88.1826 10.5736V7.74609H91.9807V10.5736H88.1826ZM88.1826 28.2198V13.2649H91.9807V28.2198H88.1826Z" fill="#1D214A"/>
<path d="M103.67 28.2197V19.8394C103.67 17.205 102.804 15.8878 101.071 15.8878C100.161 15.8878 99.4173 16.2965 98.8399 17.1142C98.2853 17.9091 98.0071 18.9424 98.0071 20.2142V28.2197H94.2099V16.6372C94.2099 15.8424 94.1985 15.1837 94.1766 14.6614C94.1546 14.139 94.1318 13.6735 94.1099 13.2647H97.7078C97.7298 13.4464 97.7631 13.9233 97.807 14.6954C97.8737 15.445 97.907 15.9673 97.907 16.2625H97.9404C98.4511 15.127 99.0952 14.298 99.8727 13.7757C100.65 13.2533 101.572 12.9922 102.638 12.9922C104.192 12.9922 105.38 13.4805 106.202 14.457C107.046 15.4336 107.468 16.8644 107.468 18.7493V28.2197H103.67Z" fill="#1D214A"/>
<path d="M109.416 10.5736V7.74609H113.214V10.5736H109.416ZM109.416 28.2198V13.2649H113.214V28.2198H109.416Z" fill="#1D214A"/>
<path d="M124.57 28.2196L121.172 22.8031L117.741 28.2196H113.71L119.041 20.4866L113.944 13.2646H118.041L121.172 18.1701L124.27 13.2646H128.401L123.304 20.4526L128.701 28.2196H124.57Z" fill="#1D214A"/>
</g>
<defs>
<clipPath id="clip0_8160_3501">
<rect width="129" height="35" fill="white" transform="translate(0.399902 0.399902)"/>
</clipPath>
</defs>
</svg>
