<svg width="130" height="25" viewBox="0 0 130 25" fill="none" xmlns="http://www.w3.org/2000/svg">
<path d="M11.3112 4.90889C11.6854 3.75726 13.3147 3.75726 13.6889 4.9089L15.0258 9.02364C15.1932 9.53867 15.6731 9.88737 16.2146 9.88737H20.5411C21.752 9.88737 22.2555 11.4369 21.2759 12.1486L17.7757 14.6917C17.3376 15.01 17.1542 15.5742 17.3216 16.0892L18.6585 20.204C19.0327 21.3556 17.7146 22.3133 16.735 21.6015L13.2348 19.0585C12.7967 18.7402 12.2034 18.7402 11.7653 19.0585L8.2651 21.6015C7.28546 22.3133 5.96736 21.3556 6.34155 20.204L7.67851 16.0892C7.84585 15.5742 7.66253 15.01 7.22442 14.6917L3.72421 12.1486C2.74457 11.4369 3.24803 9.88737 4.45894 9.88737H8.78544C9.32697 9.88737 9.80692 9.53867 9.97426 9.02364L11.3112 4.90889Z" fill="#181C39"/>
<path d="M37.5612 4.90889C37.9354 3.75726 39.5647 3.75726 39.9389 4.9089L41.2758 9.02364C41.4432 9.53867 41.9231 9.88737 42.4646 9.88737H46.7911C48.002 9.88737 48.5055 11.4369 47.5259 12.1486L44.0257 14.6917C43.5876 15.01 43.4042 15.5742 43.5716 16.0892L44.9085 20.204C45.2827 21.3556 43.9646 22.3133 42.985 21.6015L39.4848 19.0585C39.0467 18.7402 38.4534 18.7402 38.0153 19.0585L34.5151 21.6015C33.5355 22.3133 32.2174 21.3556 32.5915 20.204L33.9285 16.0892C34.0959 15.5742 33.9125 15.01 33.4744 14.6917L29.9742 12.1486C28.9946 11.4369 29.498 9.88737 30.7089 9.88737H35.0354C35.577 9.88737 36.0569 9.53867 36.2243 9.02364L37.5612 4.90889Z" fill="#181C39"/>
<path d="M63.8112 4.90889C64.1854 3.75726 65.8147 3.75726 66.1889 4.9089L67.5258 9.02364C67.6932 9.53867 68.1731 9.88737 68.7146 9.88737H73.0411C74.252 9.88737 74.7555 11.4369 73.7759 12.1486L70.2757 14.6917C69.8376 15.01 69.6542 15.5742 69.8216 16.0892L71.1585 20.204C71.5327 21.3556 70.2146 22.3133 69.235 21.6015L65.7348 19.0585C65.2967 18.7402 64.7034 18.7402 64.2653 19.0585L60.7651 21.6015C59.7855 22.3133 58.4674 21.3556 58.8415 20.204L60.1785 16.0892C60.3459 15.5742 60.1625 15.01 59.7244 14.6917L56.2242 12.1486C55.2446 11.4369 55.748 9.88737 56.9589 9.88737H61.2854C61.827 9.88737 62.3069 9.53867 62.4743 9.02364L63.8112 4.90889Z" fill="#181C39"/>
<path d="M90.0612 4.90889C90.4354 3.75726 92.0647 3.75726 92.4389 4.9089L93.7758 9.02364C93.9432 9.53867 94.4231 9.88737 94.9646 9.88737H99.2911C100.502 9.88737 101.006 11.4369 100.026 12.1486L96.5257 14.6917C96.0876 15.01 95.9042 15.5742 96.0716 16.0892L97.4085 20.204C97.7827 21.3556 96.4646 22.3133 95.485 21.6015L91.9848 19.0585C91.5467 18.7402 90.9534 18.7402 90.5153 19.0585L87.0151 21.6015C86.0355 22.3133 84.7174 21.3556 85.0915 20.204L86.4285 16.0892C86.5959 15.5742 86.4125 15.01 85.9744 14.6917L82.4742 12.1486C81.4946 11.4369 81.998 9.88737 83.2089 9.88737H87.5354C88.077 9.88737 88.5569 9.53867 88.7243 9.02364L90.0612 4.90889Z" fill="#181C39"/>
<path d="M116.311 4.90889C116.685 3.75726 118.315 3.75726 118.689 4.9089L120.026 9.02364C120.193 9.53867 120.673 9.88737 121.215 9.88737H125.541C126.752 9.88737 127.256 11.4369 126.276 12.1486L122.776 14.6917C122.338 15.01 122.154 15.5742 122.322 16.0892L123.659 20.204C124.033 21.3556 122.715 22.3133 121.735 21.6015L118.235 19.0585C117.797 18.7402 117.203 18.7402 116.765 19.0585L113.265 21.6015C112.285 22.3133 110.967 21.3556 111.342 20.204L112.679 16.0892C112.846 15.5742 112.663 15.01 112.224 14.6917L108.724 12.1486C107.745 11.4369 108.248 9.88737 109.459 9.88737H113.785C114.327 9.88737 114.807 9.53867 114.974 9.02364L116.311 4.90889Z" fill="#181C39"/>
</svg>
