<svg width="418" height="48" viewBox="0 0 418 48" fill="none" xmlns="http://www.w3.org/2000/svg">
<g filter="url(#filter0_b_8160_3520)">
<rect width="418" height="48" rx="24" fill="white"/>
</g>
<path fill-rule="evenodd" clip-rule="evenodd" d="M23.9998 35.2001C30.1854 35.2001 35.1998 30.1856 35.1998 24C35.1998 17.8145 30.1854 12.8 23.9998 12.8C17.8142 12.8 12.7998 17.8145 12.7998 24C12.7998 30.1856 17.8142 35.2001 23.9998 35.2001ZM29.1898 22.19C29.7365 21.6433 29.7365 20.7568 29.1898 20.2101C28.643 19.6634 27.7566 19.6634 27.2099 20.2101L22.5998 24.8201L20.7898 23.0101C20.243 22.4634 19.3566 22.4634 18.8099 23.0101C18.2631 23.5568 18.2631 24.4433 18.8099 24.99L21.6099 27.79C22.1566 28.3367 23.043 28.3367 23.5898 27.79L29.1898 22.19Z" fill="#E97A58"/>
<path d="M46.79 30V28.2H50.408C51.044 28.2 51.536 28.002 51.884 27.606C52.232 27.21 52.406 26.754 52.406 26.238C52.406 25.89 52.328 25.566 52.172 25.266C52.016 24.966 51.788 24.726 51.488 24.546C51.188 24.366 50.828 24.276 50.408 24.276H46.79V22.476H50.102C50.642 22.476 51.074 22.338 51.398 22.062C51.722 21.786 51.884 21.378 51.884 20.838C51.884 20.298 51.722 19.89 51.398 19.614C51.074 19.338 50.642 19.2 50.102 19.2H46.79V17.4H50.156C51.008 17.4 51.716 17.556 52.28 17.868C52.844 18.18 53.264 18.582 53.54 19.074C53.816 19.566 53.954 20.094 53.954 20.658C53.954 21.318 53.768 21.9 53.396 22.404C53.036 22.908 52.502 23.316 51.794 23.628L51.956 22.98C52.748 23.304 53.366 23.76 53.81 24.348C54.254 24.936 54.476 25.626 54.476 26.418C54.476 27.066 54.314 27.66 53.99 28.2C53.678 28.74 53.21 29.178 52.586 29.514C51.974 29.838 51.218 30 50.318 30H46.79ZM45.368 30V17.4H47.438V30H45.368ZM56.2953 30V17.04H58.2753V30H56.2953ZM64.0969 30.18C63.3169 30.18 62.6089 29.982 61.9729 29.586C61.3489 29.19 60.8509 28.656 60.4789 27.984C60.1189 27.3 59.9389 26.538 59.9389 25.698C59.9389 24.846 60.1189 24.084 60.4789 23.412C60.8509 22.728 61.3489 22.188 61.9729 21.792C62.6089 21.384 63.3169 21.18 64.0969 21.18C64.7569 21.18 65.3389 21.324 65.8429 21.612C66.3589 21.888 66.7669 22.272 67.0669 22.764C67.3669 23.256 67.5169 23.814 67.5169 24.438V26.922C67.5169 27.546 67.3669 28.104 67.0669 28.596C66.7789 29.088 66.3769 29.478 65.8609 29.766C65.3449 30.042 64.7569 30.18 64.0969 30.18ZM64.4209 28.308C65.1529 28.308 65.7409 28.062 66.1849 27.57C66.6409 27.078 66.8689 26.448 66.8689 25.68C66.8689 25.164 66.7669 24.708 66.5629 24.312C66.3589 23.916 66.0709 23.61 65.6989 23.394C65.3389 23.166 64.9129 23.052 64.4209 23.052C63.9409 23.052 63.5149 23.166 63.1429 23.394C62.7829 23.61 62.4949 23.916 62.2789 24.312C62.0749 24.708 61.9729 25.164 61.9729 25.68C61.9729 26.196 62.0749 26.652 62.2789 27.048C62.4949 27.444 62.7829 27.756 63.1429 27.984C63.5149 28.2 63.9409 28.308 64.4209 28.308ZM66.7429 30V27.678L67.0849 25.572L66.7429 23.484V21.36H68.7229V30H66.7429ZM70.2723 28.92L75.0963 22.44H77.4183L72.5943 28.92H70.2723ZM70.2723 30V28.92L72.0723 28.2H77.3103V30H70.2723ZM70.5963 23.16V21.36H77.4183V22.44L75.6183 23.16H70.5963ZM82.9147 30.18C82.0507 30.18 81.2707 29.988 80.5747 29.604C79.8907 29.208 79.3447 28.668 78.9367 27.984C78.5407 27.3 78.3427 26.532 78.3427 25.68C78.3427 24.828 78.5407 24.066 78.9367 23.394C79.3327 22.71 79.8667 22.17 80.5387 21.774C81.2227 21.378 81.9787 21.18 82.8067 21.18C83.6107 21.18 84.3187 21.366 84.9307 21.738C85.5547 22.11 86.0407 22.62 86.3887 23.268C86.7487 23.916 86.9287 24.654 86.9287 25.482C86.9287 25.626 86.9167 25.776 86.8927 25.932C86.8807 26.076 86.8567 26.238 86.8207 26.418H79.7287V24.798H85.7947L85.0567 25.446C85.0327 24.918 84.9307 24.474 84.7507 24.114C84.5707 23.754 84.3127 23.478 83.9767 23.286C83.6527 23.094 83.2507 22.998 82.7707 22.998C82.2667 22.998 81.8287 23.106 81.4567 23.322C81.0847 23.538 80.7967 23.844 80.5927 24.24C80.3887 24.624 80.2867 25.086 80.2867 25.626C80.2867 26.166 80.3947 26.64 80.6107 27.048C80.8267 27.456 81.1327 27.774 81.5287 28.002C81.9247 28.218 82.3807 28.326 82.8967 28.326C83.3407 28.326 83.7487 28.248 84.1207 28.092C84.5047 27.936 84.8287 27.708 85.0927 27.408L86.3527 28.686C85.9327 29.178 85.4227 29.55 84.8227 29.802C84.2227 30.054 83.5867 30.18 82.9147 30.18ZM97.138 30L93.43 24.384H93.052L88.066 17.4H90.514L94.24 22.692H94.618L99.55 30H97.138ZM87.85 30L92.638 23.268L94.06 24.474L90.172 30H87.85ZM94.762 23.97L93.34 22.764L97.012 17.4H99.334L94.762 23.97ZM108.648 30.18C107.808 30.18 107.046 29.982 106.362 29.586C105.678 29.178 105.132 28.632 104.724 27.948C104.328 27.264 104.13 26.502 104.13 25.662C104.13 24.822 104.328 24.066 104.724 23.394C105.132 22.722 105.678 22.188 106.362 21.792C107.046 21.384 107.808 21.18 108.648 21.18C109.5 21.18 110.268 21.378 110.952 21.774C111.636 22.17 112.176 22.71 112.572 23.394C112.98 24.066 113.184 24.822 113.184 25.662C113.184 26.502 112.98 27.264 112.572 27.948C112.176 28.632 111.636 29.178 110.952 29.586C110.268 29.982 109.5 30.18 108.648 30.18ZM108.648 28.272C109.14 28.272 109.572 28.164 109.944 27.948C110.328 27.72 110.622 27.408 110.826 27.012C111.042 26.616 111.15 26.166 111.15 25.662C111.15 25.158 111.042 24.714 110.826 24.33C110.61 23.946 110.316 23.646 109.944 23.43C109.572 23.202 109.14 23.088 108.648 23.088C108.168 23.088 107.736 23.202 107.352 23.43C106.98 23.646 106.686 23.946 106.47 24.33C106.266 24.714 106.164 25.158 106.164 25.662C106.164 26.166 106.266 26.616 106.47 27.012C106.686 27.408 106.98 27.72 107.352 27.948C107.736 28.164 108.168 28.272 108.648 28.272ZM115.772 30V20.226C115.772 19.566 115.916 18.984 116.204 18.48C116.504 17.976 116.912 17.58 117.428 17.292C117.956 17.004 118.562 16.86 119.246 16.86C119.774 16.86 120.224 16.95 120.596 17.13C120.968 17.31 121.316 17.568 121.64 17.904L120.362 19.182C120.218 19.038 120.062 18.924 119.894 18.84C119.726 18.756 119.51 18.714 119.246 18.714C118.766 18.714 118.394 18.846 118.13 19.11C117.878 19.362 117.752 19.728 117.752 20.208V30H115.772ZM113.702 23.16V21.36H120.362V23.16H113.702ZM126.636 30V20.226C126.636 19.566 126.78 18.984 127.068 18.48C127.368 17.976 127.776 17.58 128.292 17.292C128.82 17.004 129.426 16.86 130.11 16.86C130.638 16.86 131.088 16.95 131.46 17.13C131.832 17.31 132.18 17.568 132.504 17.904L131.226 19.182C131.082 19.038 130.926 18.924 130.758 18.84C130.59 18.756 130.374 18.714 130.11 18.714C129.63 18.714 129.258 18.846 128.994 19.11C128.742 19.362 128.616 19.728 128.616 20.208V30H126.636ZM124.566 23.16V21.36H131.226V23.16H124.566ZM136.282 30.18C135.418 30.18 134.638 29.988 133.942 29.604C133.258 29.208 132.712 28.668 132.304 27.984C131.908 27.3 131.71 26.532 131.71 25.68C131.71 24.828 131.908 24.066 132.304 23.394C132.7 22.71 133.234 22.17 133.906 21.774C134.59 21.378 135.346 21.18 136.174 21.18C136.978 21.18 137.686 21.366 138.298 21.738C138.922 22.11 139.408 22.62 139.756 23.268C140.116 23.916 140.296 24.654 140.296 25.482C140.296 25.626 140.284 25.776 140.26 25.932C140.248 26.076 140.224 26.238 140.188 26.418H133.096V24.798H139.162L138.424 25.446C138.4 24.918 138.298 24.474 138.118 24.114C137.938 23.754 137.68 23.478 137.344 23.286C137.02 23.094 136.618 22.998 136.138 22.998C135.634 22.998 135.196 23.106 134.824 23.322C134.452 23.538 134.164 23.844 133.96 24.24C133.756 24.624 133.654 25.086 133.654 25.626C133.654 26.166 133.762 26.64 133.978 27.048C134.194 27.456 134.5 27.774 134.896 28.002C135.292 28.218 135.748 28.326 136.264 28.326C136.708 28.326 137.116 28.248 137.488 28.092C137.872 27.936 138.196 27.708 138.46 27.408L139.72 28.686C139.3 29.178 138.79 29.55 138.19 29.802C137.59 30.054 136.954 30.18 136.282 30.18ZM145.501 30.18C144.721 30.18 144.013 29.982 143.377 29.586C142.753 29.19 142.255 28.656 141.883 27.984C141.523 27.3 141.343 26.538 141.343 25.698C141.343 24.846 141.523 24.084 141.883 23.412C142.255 22.728 142.753 22.188 143.377 21.792C144.013 21.384 144.721 21.18 145.501 21.18C146.161 21.18 146.743 21.324 147.247 21.612C147.763 21.888 148.171 22.272 148.471 22.764C148.771 23.256 148.921 23.814 148.921 24.438V26.922C148.921 27.546 148.771 28.104 148.471 28.596C148.183 29.088 147.781 29.478 147.265 29.766C146.749 30.042 146.161 30.18 145.501 30.18ZM145.825 28.308C146.557 28.308 147.145 28.062 147.589 27.57C148.045 27.078 148.273 26.448 148.273 25.68C148.273 25.164 148.171 24.708 147.967 24.312C147.763 23.916 147.475 23.61 147.103 23.394C146.743 23.166 146.317 23.052 145.825 23.052C145.345 23.052 144.919 23.166 144.547 23.394C144.187 23.61 143.899 23.916 143.683 24.312C143.479 24.708 143.377 25.164 143.377 25.68C143.377 26.196 143.479 26.652 143.683 27.048C143.899 27.444 144.187 27.756 144.547 27.984C144.919 28.2 145.345 28.308 145.825 28.308ZM148.147 30V27.678L148.489 25.572L148.147 23.484V21.36H150.127V30H148.147ZM153.639 30V17.76H155.619V30H153.639ZM151.569 23.16V21.36H157.689V23.16H151.569ZM162.673 30.18C161.941 30.18 161.287 30.018 160.711 29.694C160.147 29.37 159.703 28.926 159.379 28.362C159.067 27.786 158.911 27.126 158.911 26.382V21.36H160.891V26.292C160.891 26.712 160.957 27.072 161.089 27.372C161.233 27.66 161.437 27.882 161.701 28.038C161.977 28.194 162.301 28.272 162.673 28.272C163.249 28.272 163.687 28.104 163.987 27.768C164.299 27.42 164.455 26.928 164.455 26.292V21.36H166.435V26.382C166.435 27.138 166.273 27.804 165.949 28.38C165.637 28.944 165.199 29.388 164.635 29.712C164.071 30.024 163.417 30.18 162.673 30.18ZM168.426 30V21.36H170.406V30H168.426ZM170.406 25.194L169.722 24.852C169.722 23.76 169.962 22.878 170.442 22.206C170.934 21.522 171.672 21.18 172.656 21.18C173.088 21.18 173.478 21.258 173.826 21.414C174.174 21.57 174.498 21.822 174.798 22.17L173.502 23.502C173.346 23.334 173.172 23.214 172.98 23.142C172.788 23.07 172.566 23.034 172.314 23.034C171.762 23.034 171.306 23.208 170.946 23.556C170.586 23.904 170.406 24.45 170.406 25.194ZM179.507 30.18C178.643 30.18 177.863 29.988 177.167 29.604C176.483 29.208 175.937 28.668 175.529 27.984C175.133 27.3 174.935 26.532 174.935 25.68C174.935 24.828 175.133 24.066 175.529 23.394C175.925 22.71 176.459 22.17 177.131 21.774C177.815 21.378 178.571 21.18 179.399 21.18C180.203 21.18 180.911 21.366 181.523 21.738C182.147 22.11 182.633 22.62 182.981 23.268C183.341 23.916 183.521 24.654 183.521 25.482C183.521 25.626 183.509 25.776 183.485 25.932C183.473 26.076 183.449 26.238 183.413 26.418H176.321V24.798H182.387L181.649 25.446C181.625 24.918 181.523 24.474 181.343 24.114C181.163 23.754 180.905 23.478 180.569 23.286C180.245 23.094 179.843 22.998 179.363 22.998C178.859 22.998 178.421 23.106 178.049 23.322C177.677 23.538 177.389 23.844 177.185 24.24C176.981 24.624 176.879 25.086 176.879 25.626C176.879 26.166 176.987 26.64 177.203 27.048C177.419 27.456 177.725 27.774 178.121 28.002C178.517 28.218 178.973 28.326 179.489 28.326C179.933 28.326 180.341 28.248 180.713 28.092C181.097 27.936 181.421 27.708 181.685 27.408L182.945 28.686C182.525 29.178 182.015 29.55 181.415 29.802C180.815 30.054 180.179 30.18 179.507 30.18ZM187.934 30.18C187.454 30.18 186.992 30.12 186.548 30C186.104 29.868 185.696 29.688 185.324 29.46C184.952 29.22 184.628 28.932 184.352 28.596L185.612 27.336C185.912 27.684 186.254 27.948 186.638 28.128C187.034 28.296 187.478 28.38 187.97 28.38C188.414 28.38 188.75 28.314 188.978 28.182C189.206 28.05 189.32 27.858 189.32 27.606C189.32 27.342 189.212 27.138 188.996 26.994C188.78 26.85 188.498 26.73 188.15 26.634C187.814 26.526 187.454 26.418 187.07 26.31C186.698 26.202 186.338 26.058 185.99 25.878C185.654 25.686 185.378 25.428 185.162 25.104C184.946 24.78 184.838 24.36 184.838 23.844C184.838 23.292 184.964 22.818 185.216 22.422C185.48 22.026 185.846 21.72 186.314 21.504C186.794 21.288 187.364 21.18 188.024 21.18C188.72 21.18 189.332 21.306 189.86 21.558C190.4 21.798 190.85 22.164 191.21 22.656L189.95 23.916C189.698 23.604 189.41 23.37 189.086 23.214C188.762 23.058 188.39 22.98 187.97 22.98C187.574 22.98 187.268 23.04 187.052 23.16C186.836 23.28 186.728 23.454 186.728 23.682C186.728 23.922 186.836 24.108 187.052 24.24C187.268 24.372 187.544 24.486 187.88 24.582C188.228 24.678 188.588 24.786 188.96 24.906C189.344 25.014 189.704 25.17 190.04 25.374C190.388 25.566 190.67 25.83 190.886 26.166C191.102 26.49 191.21 26.916 191.21 27.444C191.21 28.284 190.916 28.95 190.328 29.442C189.74 29.934 188.942 30.18 187.934 30.18ZM197.634 30V20.226C197.634 19.566 197.778 18.984 198.066 18.48C198.366 17.976 198.774 17.58 199.29 17.292C199.818 17.004 200.424 16.86 201.108 16.86C201.636 16.86 202.086 16.95 202.458 17.13C202.83 17.31 203.178 17.568 203.502 17.904L202.224 19.182C202.08 19.038 201.924 18.924 201.756 18.84C201.588 18.756 201.372 18.714 201.108 18.714C200.628 18.714 200.256 18.846 199.992 19.11C199.74 19.362 199.614 19.728 199.614 20.208V30H197.634ZM195.564 23.16V21.36H202.224V23.16H195.564ZM207.226 30.18C206.386 30.18 205.624 29.982 204.94 29.586C204.256 29.178 203.71 28.632 203.302 27.948C202.906 27.264 202.708 26.502 202.708 25.662C202.708 24.822 202.906 24.066 203.302 23.394C203.71 22.722 204.256 22.188 204.94 21.792C205.624 21.384 206.386 21.18 207.226 21.18C208.078 21.18 208.846 21.378 209.53 21.774C210.214 22.17 210.754 22.71 211.15 23.394C211.558 24.066 211.762 24.822 211.762 25.662C211.762 26.502 211.558 27.264 211.15 27.948C210.754 28.632 210.214 29.178 209.53 29.586C208.846 29.982 208.078 30.18 207.226 30.18ZM207.226 28.272C207.718 28.272 208.15 28.164 208.522 27.948C208.906 27.72 209.2 27.408 209.404 27.012C209.62 26.616 209.728 26.166 209.728 25.662C209.728 25.158 209.62 24.714 209.404 24.33C209.188 23.946 208.894 23.646 208.522 23.43C208.15 23.202 207.718 23.088 207.226 23.088C206.746 23.088 206.314 23.202 205.93 23.43C205.558 23.646 205.264 23.946 205.048 24.33C204.844 24.714 204.742 25.158 204.742 25.662C204.742 26.166 204.844 26.616 205.048 27.012C205.264 27.408 205.558 27.72 205.93 27.948C206.314 28.164 206.746 28.272 207.226 28.272ZM213.409 30V21.36H215.389V30H213.409ZM215.389 25.194L214.705 24.852C214.705 23.76 214.945 22.878 215.425 22.206C215.917 21.522 216.655 21.18 217.639 21.18C218.071 21.18 218.461 21.258 218.809 21.414C219.157 21.57 219.481 21.822 219.781 22.17L218.485 23.502C218.329 23.334 218.155 23.214 217.963 23.142C217.771 23.07 217.549 23.034 217.297 23.034C216.745 23.034 216.289 23.208 215.929 23.556C215.569 23.904 215.389 24.45 215.389 25.194ZM230.581 30V25.014C230.581 24.438 230.395 23.964 230.023 23.592C229.663 23.22 229.195 23.034 228.619 23.034C228.235 23.034 227.893 23.118 227.593 23.286C227.293 23.454 227.059 23.688 226.891 23.988C226.723 24.288 226.639 24.63 226.639 25.014L225.865 24.582C225.865 23.922 226.009 23.34 226.297 22.836C226.585 22.32 226.981 21.918 227.485 21.63C228.001 21.33 228.577 21.18 229.213 21.18C229.861 21.18 230.437 21.324 230.941 21.612C231.445 21.9 231.841 22.302 232.129 22.818C232.417 23.322 232.561 23.91 232.561 24.582V30H230.581ZM224.659 30V17.04H226.639V30H224.659ZM238.191 30.18C237.411 30.18 236.703 29.982 236.067 29.586C235.443 29.19 234.945 28.656 234.573 27.984C234.213 27.3 234.033 26.538 234.033 25.698C234.033 24.846 234.213 24.084 234.573 23.412C234.945 22.728 235.443 22.188 236.067 21.792C236.703 21.384 237.411 21.18 238.191 21.18C238.851 21.18 239.433 21.324 239.937 21.612C240.453 21.888 240.861 22.272 241.161 22.764C241.461 23.256 241.611 23.814 241.611 24.438V26.922C241.611 27.546 241.461 28.104 241.161 28.596C240.873 29.088 240.471 29.478 239.955 29.766C239.439 30.042 238.851 30.18 238.191 30.18ZM238.515 28.308C239.247 28.308 239.835 28.062 240.279 27.57C240.735 27.078 240.963 26.448 240.963 25.68C240.963 25.164 240.861 24.708 240.657 24.312C240.453 23.916 240.165 23.61 239.793 23.394C239.433 23.166 239.007 23.052 238.515 23.052C238.035 23.052 237.609 23.166 237.237 23.394C236.877 23.61 236.589 23.916 236.373 24.312C236.169 24.708 236.067 25.164 236.067 25.68C236.067 26.196 236.169 26.652 236.373 27.048C236.589 27.444 236.877 27.756 237.237 27.984C237.609 28.2 238.035 28.308 238.515 28.308ZM240.837 30V27.678L241.179 25.572L240.837 23.484V21.36H242.817V30H240.837ZM250.936 30V25.014C250.936 24.438 250.75 23.964 250.378 23.592C250.018 23.22 249.55 23.034 248.974 23.034C248.59 23.034 248.248 23.118 247.948 23.286C247.648 23.454 247.414 23.688 247.246 23.988C247.078 24.288 246.994 24.63 246.994 25.014L246.22 24.582C246.22 23.922 246.364 23.34 246.652 22.836C246.94 22.32 247.336 21.918 247.84 21.63C248.356 21.33 248.932 21.18 249.568 21.18C250.216 21.18 250.792 21.348 251.296 21.684C251.8 22.008 252.196 22.434 252.484 22.962C252.772 23.478 252.916 24.018 252.916 24.582V30H250.936ZM245.014 30V21.36H246.994V30H245.014ZM258.546 30.18C257.766 30.18 257.058 29.982 256.422 29.586C255.798 29.19 255.3 28.656 254.928 27.984C254.568 27.3 254.388 26.538 254.388 25.698C254.388 24.846 254.568 24.084 254.928 23.412C255.3 22.728 255.798 22.188 256.422 21.792C257.058 21.384 257.766 21.18 258.546 21.18C259.206 21.18 259.788 21.324 260.292 21.612C260.808 21.888 261.216 22.272 261.516 22.764C261.816 23.256 261.966 23.814 261.966 24.438V26.922C261.966 27.546 261.816 28.104 261.516 28.596C261.228 29.088 260.826 29.478 260.31 29.766C259.794 30.042 259.206 30.18 258.546 30.18ZM258.87 28.308C259.362 28.308 259.788 28.2 260.148 27.984C260.52 27.756 260.808 27.444 261.012 27.048C261.216 26.652 261.318 26.196 261.318 25.68C261.318 25.164 261.216 24.708 261.012 24.312C260.808 23.916 260.52 23.61 260.148 23.394C259.788 23.166 259.368 23.052 258.888 23.052C258.396 23.052 257.964 23.166 257.592 23.394C257.232 23.61 256.944 23.916 256.728 24.312C256.524 24.708 256.422 25.164 256.422 25.68C256.422 26.196 256.524 26.652 256.728 27.048C256.944 27.444 257.232 27.756 257.592 27.984C257.964 28.2 258.39 28.308 258.87 28.308ZM263.172 30H261.192V27.678L261.534 25.572L261.192 23.484V17.04H263.172V30ZM265.369 30V17.04H267.349V30H265.369ZM273.567 30.18C272.703 30.18 271.923 29.988 271.227 29.604C270.543 29.208 269.997 28.668 269.589 27.984C269.193 27.3 268.995 26.532 268.995 25.68C268.995 24.828 269.193 24.066 269.589 23.394C269.985 22.71 270.519 22.17 271.191 21.774C271.875 21.378 272.631 21.18 273.459 21.18C274.263 21.18 274.971 21.366 275.583 21.738C276.207 22.11 276.693 22.62 277.041 23.268C277.401 23.916 277.581 24.654 277.581 25.482C277.581 25.626 277.569 25.776 277.545 25.932C277.533 26.076 277.509 26.238 277.473 26.418H270.381V24.798H276.447L275.709 25.446C275.685 24.918 275.583 24.474 275.403 24.114C275.223 23.754 274.965 23.478 274.629 23.286C274.305 23.094 273.903 22.998 273.423 22.998C272.919 22.998 272.481 23.106 272.109 23.322C271.737 23.538 271.449 23.844 271.245 24.24C271.041 24.624 270.939 25.086 270.939 25.626C270.939 26.166 271.047 26.64 271.263 27.048C271.479 27.456 271.785 27.774 272.181 28.002C272.577 28.218 273.033 28.326 273.549 28.326C273.993 28.326 274.401 28.248 274.773 28.092C275.157 27.936 275.481 27.708 275.745 27.408L277.005 28.686C276.585 29.178 276.075 29.55 275.475 29.802C274.875 30.054 274.239 30.18 273.567 30.18ZM284.086 30V17.76H286.066V30H284.086ZM282.016 23.16V21.36H288.136V23.16H282.016ZM295.497 30V25.014C295.497 24.438 295.311 23.964 294.939 23.592C294.579 23.22 294.111 23.034 293.535 23.034C293.151 23.034 292.809 23.118 292.509 23.286C292.209 23.454 291.975 23.688 291.807 23.988C291.639 24.288 291.555 24.63 291.555 25.014L290.781 24.582C290.781 23.922 290.925 23.34 291.213 22.836C291.501 22.32 291.897 21.918 292.401 21.63C292.917 21.33 293.493 21.18 294.129 21.18C294.777 21.18 295.353 21.324 295.857 21.612C296.361 21.9 296.757 22.302 297.045 22.818C297.333 23.322 297.477 23.91 297.477 24.582V30H295.497ZM289.575 30V17.04H291.555V30H289.575ZM303.503 30.18C302.639 30.18 301.859 29.988 301.163 29.604C300.479 29.208 299.933 28.668 299.525 27.984C299.129 27.3 298.931 26.532 298.931 25.68C298.931 24.828 299.129 24.066 299.525 23.394C299.921 22.71 300.455 22.17 301.127 21.774C301.811 21.378 302.567 21.18 303.395 21.18C304.199 21.18 304.907 21.366 305.519 21.738C306.143 22.11 306.629 22.62 306.977 23.268C307.337 23.916 307.517 24.654 307.517 25.482C307.517 25.626 307.505 25.776 307.481 25.932C307.469 26.076 307.445 26.238 307.409 26.418H300.317V24.798H306.383L305.645 25.446C305.621 24.918 305.519 24.474 305.339 24.114C305.159 23.754 304.901 23.478 304.565 23.286C304.241 23.094 303.839 22.998 303.359 22.998C302.855 22.998 302.417 23.106 302.045 23.322C301.673 23.538 301.385 23.844 301.181 24.24C300.977 24.624 300.875 25.086 300.875 25.626C300.875 26.166 300.983 26.64 301.199 27.048C301.415 27.456 301.721 27.774 302.117 28.002C302.513 28.218 302.969 28.326 303.485 28.326C303.929 28.326 304.337 28.248 304.709 28.092C305.093 27.936 305.417 27.708 305.681 27.408L306.941 28.686C306.521 29.178 306.011 29.55 305.411 29.802C304.811 30.054 304.175 30.18 303.503 30.18ZM316.685 30.18C315.833 30.18 315.059 29.982 314.363 29.586C313.679 29.19 313.139 28.65 312.743 27.966C312.347 27.282 312.149 26.52 312.149 25.68C312.149 24.828 312.347 24.066 312.743 23.394C313.139 22.71 313.679 22.17 314.363 21.774C315.059 21.378 315.833 21.18 316.685 21.18C317.357 21.18 317.981 21.312 318.557 21.576C319.145 21.828 319.643 22.194 320.051 22.674L318.755 23.988C318.503 23.688 318.197 23.466 317.837 23.322C317.489 23.166 317.105 23.088 316.685 23.088C316.193 23.088 315.755 23.202 315.371 23.43C314.999 23.646 314.705 23.946 314.489 24.33C314.285 24.714 314.183 25.164 314.183 25.68C314.183 26.184 314.285 26.634 314.489 27.03C314.705 27.414 314.999 27.72 315.371 27.948C315.755 28.164 316.193 28.272 316.685 28.272C317.105 28.272 317.489 28.2 317.837 28.056C318.197 27.9 318.503 27.672 318.755 27.372L320.051 28.686C319.643 29.166 319.145 29.538 318.557 29.802C317.981 30.054 317.357 30.18 316.685 30.18ZM324.921 30.18C324.141 30.18 323.433 29.982 322.797 29.586C322.173 29.19 321.675 28.656 321.303 27.984C320.943 27.3 320.763 26.538 320.763 25.698C320.763 24.846 320.943 24.084 321.303 23.412C321.675 22.728 322.173 22.188 322.797 21.792C323.433 21.384 324.141 21.18 324.921 21.18C325.581 21.18 326.163 21.324 326.667 21.612C327.183 21.888 327.591 22.272 327.891 22.764C328.191 23.256 328.341 23.814 328.341 24.438V26.922C328.341 27.546 328.191 28.104 327.891 28.596C327.603 29.088 327.201 29.478 326.685 29.766C326.169 30.042 325.581 30.18 324.921 30.18ZM325.245 28.308C325.977 28.308 326.565 28.062 327.009 27.57C327.465 27.078 327.693 26.448 327.693 25.68C327.693 25.164 327.591 24.708 327.387 24.312C327.183 23.916 326.895 23.61 326.523 23.394C326.163 23.166 325.737 23.052 325.245 23.052C324.765 23.052 324.339 23.166 323.967 23.394C323.607 23.61 323.319 23.916 323.103 24.312C322.899 24.708 322.797 25.164 322.797 25.68C322.797 26.196 322.899 26.652 323.103 27.048C323.319 27.444 323.607 27.756 323.967 27.984C324.339 28.2 324.765 28.308 325.245 28.308ZM327.567 30V27.678L327.909 25.572L327.567 23.484V21.36H329.547V30H327.567ZM331.744 30V21.36H333.724V30H331.744ZM333.724 25.194L333.04 24.852C333.04 23.76 333.28 22.878 333.76 22.206C334.252 21.522 334.99 21.18 335.974 21.18C336.406 21.18 336.796 21.258 337.144 21.414C337.492 21.57 337.816 21.822 338.116 22.17L336.82 23.502C336.664 23.334 336.49 23.214 336.298 23.142C336.106 23.07 335.884 23.034 335.632 23.034C335.08 23.034 334.624 23.208 334.264 23.556C333.904 23.904 333.724 24.45 333.724 25.194ZM342.429 30.18C341.649 30.18 340.941 29.982 340.305 29.586C339.681 29.19 339.183 28.656 338.811 27.984C338.451 27.3 338.271 26.538 338.271 25.698C338.271 24.846 338.451 24.084 338.811 23.412C339.183 22.728 339.681 22.188 340.305 21.792C340.941 21.384 341.649 21.18 342.429 21.18C343.089 21.18 343.671 21.324 344.175 21.612C344.691 21.888 345.099 22.272 345.399 22.764C345.699 23.256 345.849 23.814 345.849 24.438V26.922C345.849 27.546 345.699 28.104 345.399 28.596C345.111 29.088 344.709 29.478 344.193 29.766C343.677 30.042 343.089 30.18 342.429 30.18ZM342.753 28.308C343.245 28.308 343.671 28.2 344.031 27.984C344.403 27.756 344.691 27.444 344.895 27.048C345.099 26.652 345.201 26.196 345.201 25.68C345.201 25.164 345.099 24.708 344.895 24.312C344.691 23.916 344.403 23.61 344.031 23.394C343.671 23.166 343.251 23.052 342.771 23.052C342.279 23.052 341.847 23.166 341.475 23.394C341.115 23.61 340.827 23.916 340.611 24.312C340.407 24.708 340.305 25.164 340.305 25.68C340.305 26.196 340.407 26.652 340.611 27.048C340.827 27.444 341.115 27.756 341.475 27.984C341.847 28.2 342.273 28.308 342.753 28.308ZM347.055 30H345.075V27.678L345.417 25.572L345.075 23.484V17.04H347.055V30ZM356.87 30.18C356.006 30.18 355.226 29.988 354.53 29.604C353.846 29.208 353.3 28.668 352.892 27.984C352.496 27.3 352.298 26.532 352.298 25.68C352.298 24.828 352.496 24.066 352.892 23.394C353.288 22.71 353.822 22.17 354.494 21.774C355.178 21.378 355.934 21.18 356.762 21.18C357.566 21.18 358.274 21.366 358.886 21.738C359.51 22.11 359.996 22.62 360.344 23.268C360.704 23.916 360.884 24.654 360.884 25.482C360.884 25.626 360.872 25.776 360.848 25.932C360.836 26.076 360.812 26.238 360.776 26.418H353.684V24.798H359.75L359.012 25.446C358.988 24.918 358.886 24.474 358.706 24.114C358.526 23.754 358.268 23.478 357.932 23.286C357.608 23.094 357.206 22.998 356.726 22.998C356.222 22.998 355.784 23.106 355.412 23.322C355.04 23.538 354.752 23.844 354.548 24.24C354.344 24.624 354.242 25.086 354.242 25.626C354.242 26.166 354.35 26.64 354.566 27.048C354.782 27.456 355.088 27.774 355.484 28.002C355.88 28.218 356.336 28.326 356.852 28.326C357.296 28.326 357.704 28.248 358.076 28.092C358.46 27.936 358.784 27.708 359.048 27.408L360.308 28.686C359.888 29.178 359.378 29.55 358.778 29.802C358.178 30.054 357.542 30.18 356.87 30.18ZM366.089 30.18C365.309 30.18 364.601 29.982 363.965 29.586C363.341 29.19 362.843 28.656 362.471 27.984C362.111 27.3 361.931 26.538 361.931 25.698C361.931 24.846 362.111 24.084 362.471 23.412C362.843 22.728 363.341 22.188 363.965 21.792C364.601 21.384 365.309 21.18 366.089 21.18C366.749 21.18 367.331 21.324 367.835 21.612C368.351 21.888 368.759 22.272 369.059 22.764C369.359 23.256 369.509 23.814 369.509 24.438V26.922C369.509 27.546 369.359 28.104 369.059 28.596C368.771 29.088 368.369 29.478 367.853 29.766C367.337 30.042 366.749 30.18 366.089 30.18ZM366.413 28.308C367.145 28.308 367.733 28.062 368.177 27.57C368.633 27.078 368.861 26.448 368.861 25.68C368.861 25.164 368.759 24.708 368.555 24.312C368.351 23.916 368.063 23.61 367.691 23.394C367.331 23.166 366.905 23.052 366.413 23.052C365.933 23.052 365.507 23.166 365.135 23.394C364.775 23.61 364.487 23.916 364.271 24.312C364.067 24.708 363.965 25.164 363.965 25.68C363.965 26.196 364.067 26.652 364.271 27.048C364.487 27.444 364.775 27.756 365.135 27.984C365.507 28.2 365.933 28.308 366.413 28.308ZM368.735 30V27.678L369.077 25.572L368.735 23.484V21.36H370.715V30H368.735ZM375.738 30.18C375.258 30.18 374.796 30.12 374.352 30C373.908 29.868 373.5 29.688 373.128 29.46C372.756 29.22 372.432 28.932 372.156 28.596L373.416 27.336C373.716 27.684 374.058 27.948 374.442 28.128C374.838 28.296 375.282 28.38 375.774 28.38C376.218 28.38 376.554 28.314 376.782 28.182C377.01 28.05 377.124 27.858 377.124 27.606C377.124 27.342 377.016 27.138 376.8 26.994C376.584 26.85 376.302 26.73 375.954 26.634C375.618 26.526 375.258 26.418 374.874 26.31C374.502 26.202 374.142 26.058 373.794 25.878C373.458 25.686 373.182 25.428 372.966 25.104C372.75 24.78 372.642 24.36 372.642 23.844C372.642 23.292 372.768 22.818 373.02 22.422C373.284 22.026 373.65 21.72 374.118 21.504C374.598 21.288 375.168 21.18 375.828 21.18C376.524 21.18 377.136 21.306 377.664 21.558C378.204 21.798 378.654 22.164 379.014 22.656L377.754 23.916C377.502 23.604 377.214 23.37 376.89 23.214C376.566 23.058 376.194 22.98 375.774 22.98C375.378 22.98 375.072 23.04 374.856 23.16C374.64 23.28 374.532 23.454 374.532 23.682C374.532 23.922 374.64 24.108 374.856 24.24C375.072 24.372 375.348 24.486 375.684 24.582C376.032 24.678 376.392 24.786 376.764 24.906C377.148 25.014 377.508 25.17 377.844 25.374C378.192 25.566 378.474 25.83 378.69 26.166C378.906 26.49 379.014 26.916 379.014 27.444C379.014 28.284 378.72 28.95 378.132 29.442C377.544 29.934 376.746 30.18 375.738 30.18ZM380.665 30V21.36H382.645V30H380.665ZM381.655 19.776C381.319 19.776 381.037 19.662 380.809 19.434C380.593 19.206 380.485 18.924 380.485 18.588C380.485 18.252 380.593 17.97 380.809 17.742C381.037 17.514 381.319 17.4 381.655 17.4C382.003 17.4 382.285 17.514 382.501 17.742C382.717 17.97 382.825 18.252 382.825 18.588C382.825 18.924 382.717 19.206 382.501 19.434C382.285 19.662 382.003 19.776 381.655 19.776ZM384.866 30V17.04H386.846V30H384.866ZM391.839 30.09L388.149 21.36H390.327L392.847 27.768H392.217L394.881 21.36H397.077L393.063 30.09H391.839ZM389.265 33.6L391.947 28.074L393.063 30.09L391.461 33.6H389.265Z" fill="#181C39"/>
<defs>
<filter id="filter0_b_8160_3520" x="-4" y="-4" width="426" height="56" filterUnits="userSpaceOnUse" color-interpolation-filters="sRGB">
<feFlood flood-opacity="0" result="BackgroundImageFix"/>
<feGaussianBlur in="BackgroundImageFix" stdDeviation="2"/>
<feComposite in2="SourceAlpha" operator="in" result="effect1_backgroundBlur_8160_3520"/>
<feBlend mode="normal" in="SourceGraphic" in2="effect1_backgroundBlur_8160_3520" result="shape"/>
</filter>
</defs>
</svg>
