<svg width="139" height="32" viewBox="0 0 139 32" fill="none" xmlns="http://www.w3.org/2000/svg">
<g clip-path="url(#clip0_10495_175)">
<path d="M23.6669 14.1184C23.2403 14.5601 22.9137 15.093 22.7102 15.6792C22.5067 16.2656 22.4314 16.8908 22.4895 17.5105L22.4693 17.4897C22.5291 18.2192 22.4336 18.9532 22.1891 19.6407C21.9447 20.3282 21.5575 20.9524 21.0545 21.4701C20.5513 21.9877 19.9445 22.3862 19.2763 22.6375C18.608 22.8889 17.8946 22.9874 17.1856 22.9258L17.2059 22.9466C16.3578 22.8655 15.5061 23.0553 14.7666 23.4903C14.0274 23.9254 13.4365 24.5846 13.0746 25.3779C12.7127 26.1712 12.5972 27.0598 12.7443 27.923C12.8914 28.7862 13.2936 29.5817 13.8961 30.201C14.4987 30.8204 15.2721 31.2334 16.1112 31.3839C16.9504 31.5345 17.8141 31.415 18.5848 31.0419C19.3554 30.6688 19.9956 30.0603 20.4178 29.2993C20.8399 28.5381 21.0238 27.6617 20.9441 26.7892L20.9654 26.81C20.9056 26.0807 21.0011 25.3466 21.2456 24.6589C21.4899 23.9715 21.8772 23.3472 22.3803 22.8296C22.8834 22.312 23.4902 21.9135 24.1584 21.6622C24.8267 21.4108 25.5401 21.3124 26.2491 21.3739L26.2277 21.3531C26.9205 21.4172 27.6178 21.3003 28.255 21.0132C28.8921 20.7264 29.4486 20.2784 29.8727 19.7114C30.2969 19.1442 30.5752 18.476 30.6813 17.7688C30.7877 17.0617 30.7189 16.3383 30.4811 15.6657C30.2434 14.9932 29.8444 14.3933 29.3214 13.9216C28.7983 13.4499 28.1681 13.1217 27.4888 12.9674C26.8096 12.8132 26.1034 12.8377 25.4359 13.0389C24.7684 13.2401 24.1612 13.6114 23.6703 14.1184H23.6669Z" fill="#E31587"/>
<path d="M15.3639 20.216L15.3425 20.1952C15.945 20.2576 16.5536 20.1814 17.1241 19.9723C17.6946 19.7632 18.2129 19.4263 18.6412 18.9859C19.0695 18.5454 19.3976 18.0126 19.6012 17.4256C19.805 16.8389 19.8793 16.213 19.8191 15.5929L19.8405 15.6137C19.7805 14.8842 19.8762 14.1503 20.1205 13.4626C20.365 12.7752 20.7523 12.1509 21.2553 11.6333C21.7585 11.1157 22.3653 10.7172 23.0334 10.4659C23.7016 10.2144 24.4151 10.1161 25.1242 10.1776L25.1028 10.1568C25.951 10.2388 26.803 10.0495 27.5427 9.61488C28.2826 9.18034 28.8739 8.52155 29.2363 7.72834C29.5988 6.93521 29.7146 6.04637 29.5681 5.18299C29.4215 4.31963 29.0196 3.5238 28.4173 2.90407C27.815 2.28433 27.0414 1.87084 26.2022 1.72004C25.3631 1.56922 24.4991 1.68839 23.7283 2.06133C22.9574 2.43425 22.317 3.04277 21.8947 3.80388C21.4722 4.56498 21.2882 5.44163 21.368 6.31422L21.3477 6.29222C21.4076 7.02165 21.3123 7.75589 21.068 8.44346C20.8237 9.13104 20.4364 9.7555 19.9334 10.2732C19.4302 10.7908 18.8232 11.1892 18.155 11.4405C17.4866 11.6918 16.7731 11.7901 16.064 11.7283L16.0843 11.7503C15.4817 11.6879 14.8731 11.7641 14.3026 11.9732C13.7322 12.1822 13.214 12.5192 12.7856 12.9595C12.3571 13.4 12.0293 13.9329 11.8255 14.5198C11.6219 15.1066 11.5475 15.7325 11.6077 16.3526L11.5874 16.3317C11.6471 17.0612 11.5513 17.7951 11.3069 18.4825C11.0624 19.1698 10.6752 19.7943 10.1721 20.3117C9.66907 20.8293 9.06236 21.2277 8.39423 21.4793C7.72609 21.7307 7.01268 21.8292 6.30375 21.7678L6.32402 21.7887C5.47588 21.7066 4.62382 21.8959 3.88404 22.3306C3.14429 22.7651 2.55283 23.4239 2.19037 24.2171C1.8279 25.0103 1.71204 25.8992 1.85863 26.7625C2.00523 27.6259 2.40712 28.4217 3.00947 29.0413C3.61184 29.6613 4.38534 30.0747 5.22451 30.2254C6.06367 30.3761 6.92761 30.2571 7.69852 29.8842C8.46946 29.5113 9.10971 28.9028 9.53214 28.1416C9.95465 27.3805 10.1385 26.5039 10.0589 25.6312L10.0802 25.6521C10.0203 24.9226 10.1159 24.1887 10.3604 23.501C10.6047 22.8136 10.992 22.1893 11.4951 21.6716C11.9982 21.1541 12.605 20.7556 13.2731 20.5043C13.9414 20.2529 14.6548 20.1545 15.3639 20.216Z" fill="#FD49AC"/>
<path d="M7.81925 17.8921C8.24586 17.4507 8.57248 16.9177 8.77584 16.3314C8.97916 15.745 9.05426 15.1196 8.99548 14.5L9.01687 14.5209C8.95705 13.7913 9.05265 13.057 9.29715 12.3693C9.54165 11.6816 9.92911 11.0572 10.4325 10.5395C10.9359 10.0219 11.5429 9.62355 12.2114 9.37224C12.8799 9.12102 13.5937 9.02283 14.3028 9.08479L14.2814 9.06394C15.1292 9.14575 15.981 8.9564 16.7205 8.52179C17.4599 8.08725 18.051 7.42863 18.4132 6.63574C18.7755 5.84286 18.8912 4.95427 18.7447 4.09124C18.5981 3.22818 18.1962 2.43267 17.5941 1.81315C16.9921 1.19364 16.2188 0.780299 15.3799 0.629482C14.5411 0.478673 13.6774 0.597741 12.9069 0.970433C12.1361 1.34314 11.496 1.95133 11.0736 2.71208C10.6512 3.47284 10.4672 4.34912 10.5466 5.22143L10.5263 5.20058C10.5862 5.92997 10.4906 6.66412 10.2462 7.35161C10.0018 8.03911 9.61458 8.66349 9.11158 9.18107C8.60841 9.69874 8.0016 10.0971 7.33338 10.3484C6.66516 10.5999 5.95168 10.6983 5.24271 10.6366L5.26297 10.6575C4.57022 10.5936 3.873 10.7107 3.23593 10.9978C2.59885 11.2849 2.04251 11.7328 1.61848 12.3001C1.19444 12.8671 0.916435 13.5353 0.810195 14.2425C0.703974 14.9498 0.772965 15.6731 1.01077 16.3455C1.24859 17.0181 1.64754 17.6178 2.17065 18.0894C2.69375 18.5611 3.3241 18.8891 4.00329 19.0434C4.68245 19.1976 5.38848 19.1729 6.05593 18.9718C6.72339 18.7704 7.33066 18.3992 7.8215 17.8921H7.81925Z" fill="#FF83C7"/>
<path d="M36.7523 23.6893C36.7523 23.6893 38.8591 20.7157 43.0728 14.7685C44.5901 12.5628 45.6167 11.0357 46.1527 10.1873L47.6864 7.68033L42.541 7.87117C41.9555 7.89665 41.4814 7.9433 41.1186 8.01122C40.7557 8.07053 40.4713 8.19362 40.2651 8.38024C39.9106 8.69416 39.6837 9.42376 39.5848 10.569C39.5848 10.7387 39.391 10.8702 39.0035 10.9635C38.9045 10.989 38.7767 11.0017 38.62 11.0017C38.4633 11.0017 38.3397 10.9254 38.249 10.7727C38.1665 10.62 38.0882 10.4121 38.014 10.1491C37.9479 9.87765 37.8944 9.59764 37.8532 9.30919C37.7707 8.7323 37.7295 8.23597 37.7295 7.8203C37.7295 7.3961 37.746 7.061 37.7789 6.81499C37.8119 6.56046 37.8737 6.36532 37.9645 6.22957C38.1211 5.992 38.4551 5.87329 38.9664 5.87329H50.2715C50.5766 5.87329 50.8941 6.06835 51.2239 6.45863C51.5455 6.84038 51.6568 7.14157 51.5579 7.36219L40.5248 23.5238L46.9319 23.2694C48.0534 23.2184 48.8161 22.9469 49.2202 22.4549C49.5665 22.0307 49.7933 21.1993 49.9004 19.9606C49.9087 19.8758 49.9953 19.7952 50.1602 19.7188C50.3334 19.6425 50.5272 19.6043 50.7415 19.6043C50.9642 19.6043 51.1168 19.6849 51.1992 19.8461C51.2899 20.0073 51.3683 20.2406 51.4342 20.546C51.5084 20.8514 51.5703 21.1696 51.6198 21.5005C51.7187 22.1622 51.7682 22.7348 51.7682 23.2184C51.7682 23.6936 51.7063 24.071 51.5826 24.351C51.459 24.631 51.2734 24.8474 51.0261 25.0001C50.6138 25.2545 49.8922 25.3818 48.8615 25.3818H37.9397C37.6099 25.3818 37.2965 25.1442 36.9997 24.6692C36.7028 24.2111 36.6204 23.8844 36.7523 23.6893Z" fill="#382630"/>
<path d="M52.7378 18.5353C52.7378 17.5088 52.8409 16.5968 53.047 15.7993C53.2532 15.0018 53.5293 14.2892 53.8757 13.6614C54.2303 13.0251 54.6426 12.4694 55.1126 11.9943C55.5908 11.5193 56.1021 11.1248 56.6464 10.8108C57.7183 10.1831 58.7738 9.86914 59.8128 9.86914C60.8518 9.86914 61.6846 10.0601 62.3113 10.4418C62.938 10.8151 63.4492 11.3156 63.845 11.9435C64.5789 13.1397 64.9459 14.7304 64.9459 16.7156C64.9459 17.4537 64.6449 17.8312 64.043 17.8482L55.4095 18.0391C55.4589 19.88 55.9207 21.2417 56.7948 22.124C57.5369 22.8706 58.4975 23.2439 59.6767 23.2439C61.4331 23.2439 62.8596 22.8664 63.9564 22.1113C64.0306 22.1113 64.1213 22.1749 64.2285 22.3022C64.4346 22.5567 64.5377 22.7773 64.5377 22.9639C64.5377 23.3711 64.043 23.8929 63.0535 24.5292C61.9155 25.2588 60.5879 25.6236 59.0706 25.6236C57.0916 25.6236 55.5373 24.9746 54.4076 23.6765C53.2944 22.404 52.7378 20.6903 52.7378 18.5353ZM55.4837 16.3974C57.8585 16.2787 60.0313 16.1217 62.0021 15.9266C62.0928 13.2288 61.1857 11.8798 59.281 11.8798C58.2172 11.8798 57.3472 12.304 56.6711 13.1524C56.0527 13.9329 55.6569 15.0146 55.4837 16.3974Z" fill="#382630"/>
<path d="M72.855 25.4454C72.6901 25.403 72.4262 25.3818 72.0634 25.3818H68.1177C67.3261 25.3818 66.819 25.2376 66.5963 24.9491C66.5056 24.8388 66.4603 24.7116 66.4603 24.5674C66.4603 24.2111 66.5262 23.948 66.6582 23.7784C66.856 23.8463 67.0787 23.8802 67.3261 23.8802C67.5817 23.8802 67.7714 23.7741 67.8951 23.562C68.027 23.3499 68.0888 22.9555 68.0806 22.3786V14.0559C68.0806 13.2585 67.9363 12.7621 67.6477 12.567C67.5322 12.4907 67.3797 12.4524 67.19 12.4524C67.0004 12.4524 66.8478 12.4821 66.7324 12.5415C66.6252 12.6009 66.5345 12.6434 66.4603 12.6688C66.3943 12.6942 66.3366 12.6942 66.2871 12.6688C66.2377 12.6348 66.1881 12.5882 66.1387 12.5288C66.015 12.393 65.9531 12.2531 65.9531 12.1089C65.9531 11.9562 66.0027 11.7992 66.1015 11.638C66.2088 11.4683 66.3778 11.2775 66.6087 11.0654C66.8396 10.8448 67.1034 10.6454 67.4003 10.4672C68.0682 10.0685 68.7361 9.86914 69.404 9.86914C70.1709 9.86914 70.6245 10.3909 70.7647 11.4344C70.8058 11.7398 70.8306 12.0537 70.8389 12.3761C72.0675 11.3156 73.4034 10.5606 74.8463 10.1109C75.3659 9.94971 75.8895 9.86914 76.4172 9.86914C76.9532 9.86914 77.4604 9.94127 77.9386 10.0855C78.4251 10.2297 78.8457 10.463 79.2002 10.7854C79.9506 11.4641 80.3258 12.5246 80.3258 13.9668V22.5949C80.3506 23.2566 80.5897 23.6639 81.0432 23.8166C81.1668 23.8589 81.3196 23.8971 81.5005 23.9311C81.6822 23.965 81.843 24.0074 81.9829 24.0584C82.1316 24.1007 82.2474 24.1517 82.3294 24.2111C82.4701 24.3213 82.54 24.4995 82.54 24.7455C82.54 25.0424 82.4741 25.2758 82.3423 25.4454C82.1766 25.403 81.9129 25.3818 81.5503 25.3818H77.6047C76.813 25.3818 76.3059 25.2376 76.0832 24.9491C75.9925 24.8388 75.9472 24.7116 75.9472 24.5674C75.9472 24.2111 76.0132 23.948 76.1452 23.7784C76.343 23.8463 76.5244 23.8802 76.6894 23.8802C76.8625 23.8802 77.0068 23.8589 77.1223 23.8166C77.2377 23.7656 77.3284 23.6851 77.3943 23.5748C77.5098 23.3711 77.5675 22.9724 77.5675 22.3786V14.8704C77.5675 13.4281 77.1511 12.6222 76.3183 12.4524C76.0627 12.4016 75.741 12.3761 75.3535 12.3761C74.9742 12.3761 74.5537 12.4355 74.0919 12.5543C73.6301 12.6731 73.1972 12.8258 72.7931 13.0124C72.0181 13.3687 71.3666 13.8183 70.8389 14.3613V22.5949C70.8636 23.2566 71.0986 23.6639 71.5438 23.8166C71.6758 23.8589 71.8284 23.8971 72.0016 23.9311C72.183 23.965 72.3479 24.0074 72.4963 24.0584C72.6447 24.1007 72.7602 24.1517 72.8427 24.2111C72.9828 24.3213 73.0529 24.4995 73.0529 24.7455C73.0529 25.0424 72.9869 25.2758 72.855 25.4454Z" fill="#382630"/>
<path d="M85.7857 7.50205C85.5051 7.50205 85.2454 7.45961 85.0058 7.37482C84.7751 7.28143 84.5733 7.14999 84.4004 6.98033C84.037 6.62397 83.8561 6.1446 83.8561 5.5423C83.8561 4.96538 84.0699 4.47757 84.4993 4.07883C84.9117 3.68009 85.4062 3.48071 85.9835 3.48071C86.5608 3.48071 87.0223 3.65888 87.3688 4.0152C87.7153 4.37152 87.8882 4.8551 87.8882 5.46593C87.8882 6.04285 87.6824 6.53066 87.2699 6.92937C86.8655 7.31113 86.371 7.50205 85.7857 7.50205ZM85.0307 25.3817C83.7612 25.3817 83.126 25.0847 83.126 24.4909C83.126 24.1855 83.192 23.9479 83.3238 23.7783C83.5216 23.8462 83.7033 23.8801 83.8681 23.8801C84.6352 23.8801 85.0106 23.3795 84.9938 22.3784V13.8522C84.9938 13.2584 84.9117 12.8468 84.7461 12.6178C84.5901 12.3803 84.3055 12.2615 83.8931 12.2615C83.5875 12.2615 83.3118 12.2996 83.0641 12.376C82.9162 12.3929 82.8084 12.2742 82.7425 12.0197C82.6846 11.7906 82.7176 11.5913 82.8414 11.4215C82.9652 11.2434 83.155 11.061 83.4106 10.8743C83.6744 10.6792 83.963 10.5095 84.2766 10.3654C84.9528 10.0345 85.5172 9.86903 85.9706 9.86903C86.4241 9.86903 86.7586 9.93694 86.9732 10.0726C87.1951 10.2084 87.3648 10.3908 87.4798 10.6199C87.6615 10.9931 87.7523 11.5955 87.7523 12.4269V22.5948C87.7765 23.265 88.012 23.6722 88.4575 23.8165C88.5805 23.8588 88.7332 23.897 88.9149 23.931C89.0958 23.9649 89.2566 24.0073 89.3973 24.0583C89.5453 24.1006 89.6611 24.1516 89.7439 24.211C89.8838 24.3212 89.9537 24.4994 89.9537 24.7454C89.9537 25.0508 89.8918 25.2841 89.768 25.4453C89.5951 25.4029 89.3314 25.3817 88.9768 25.3817H85.0307Z" fill="#382630"/>
<path d="M94.5352 16.7028L94.5232 20.0496C94.5232 21.4495 94.5931 22.2936 94.7338 22.5821C94.8737 22.8621 95.0386 23.0317 95.2283 23.0911C95.4181 23.142 95.6609 23.1675 95.9584 23.1675C96.255 23.1675 96.5228 23.1462 96.7624 23.1039C97.0092 23.0529 97.24 22.9893 97.4546 22.9129C97.6693 22.8366 97.8751 22.7517 98.0729 22.6584L98.6791 22.3912C98.819 22.3403 98.9758 22.4887 99.1495 22.8366C99.1985 22.9299 99.2235 23.0402 99.2235 23.1675C99.2235 23.2863 99.1736 23.4432 99.0747 23.6383C98.9758 23.8335 98.7821 24.0583 98.4934 24.3127C98.2136 24.5588 97.8832 24.7794 97.5045 24.9745C96.6796 25.4072 95.9375 25.6235 95.2774 25.6235C94.6261 25.6235 94.0946 25.5853 93.6822 25.509C93.2697 25.4326 92.9192 25.2799 92.6305 25.0509C92.0372 24.5758 91.7405 23.7062 91.7405 22.4421V12.427H90.516C90.2603 12.427 90.0746 12.3421 89.9588 12.1724C89.761 11.9095 89.6621 11.6888 89.6621 11.5107C89.6621 11.2138 89.7321 11.0483 89.8728 11.0144C91.1833 10.7853 92.1111 9.78419 92.6555 8.01115C92.8122 7.4766 92.9361 6.84461 93.0269 6.11501C93.4225 6.0471 93.7192 6.01318 93.917 6.01318C94.1236 6.01318 94.3005 6.11923 94.4492 6.33133C94.5972 6.54343 94.6679 6.78944 94.6591 7.06937C94.6591 7.34938 94.655 7.61235 94.647 7.85836C94.639 8.10446 94.6301 8.37164 94.6221 8.66009L94.573 10.4417H98.852C98.9597 10.6369 99.0128 10.8447 99.0128 11.0653V11.4598C99.0128 11.8161 98.8279 12.1088 98.4564 12.3379C98.0858 12.5584 97.6733 12.6688 97.2199 12.6688C96.7744 12.6688 96.4528 12.6645 96.255 12.656C96.0653 12.6391 95.8796 12.6221 95.6979 12.6051L95.1543 12.5287C94.9646 12.5118 94.762 12.4948 94.5481 12.4778V12.6178L94.5352 16.7028Z" fill="#382630"/>
<path d="M106.476 25.4453C106.312 25.4029 106.048 25.3817 105.685 25.3817H101.739C100.948 25.3817 100.441 25.2374 100.218 24.949C100.127 24.8387 100.082 24.7115 100.082 24.5672C100.082 24.211 100.148 23.9479 100.28 23.7782C100.478 23.8462 100.704 23.8801 100.96 23.8801C101.216 23.8801 101.405 23.774 101.529 23.5619C101.652 23.3498 101.71 22.9553 101.702 22.3784V6.61122C101.702 6.02588 101.644 5.64834 101.529 5.47865C101.356 5.20717 101.051 5.07142 100.613 5.07142H100.367C100.292 5.07142 100.206 5.08415 100.107 5.1096C100.016 5.12657 99.9373 5.11808 99.8714 5.08415C99.8054 5.04173 99.7475 4.98658 99.6985 4.91872C99.5248 4.65571 99.7234 4.29939 100.292 3.84975C101.125 3.1965 101.974 2.86987 102.84 2.86987C103.78 2.86987 104.308 3.39163 104.423 4.43514C104.457 4.74904 104.473 5.07991 104.473 5.42774V12.3632C105.718 11.2858 107.05 10.535 108.468 10.1108C108.987 9.94959 109.511 9.86902 110.039 9.86902C110.574 9.86902 111.082 9.94115 111.56 10.0853C112.047 10.2296 112.463 10.4629 112.81 10.7852C113.568 11.4809 113.947 12.5414 113.947 13.9667V22.5057C113.947 23.2099 114.178 23.6425 114.64 23.8037C114.772 23.8546 114.929 23.897 115.11 23.9309C115.292 23.9649 115.452 24.0073 115.592 24.0583C115.741 24.1006 115.856 24.1516 115.939 24.211C116.079 24.3212 116.149 24.4994 116.149 24.7454C116.149 25.0508 116.088 25.2841 115.964 25.4453C115.79 25.4029 115.526 25.3817 115.172 25.3817H111.226C110.435 25.3817 109.927 25.2374 109.704 24.949C109.614 24.8387 109.569 24.7115 109.569 24.5672C109.569 24.2024 109.63 23.9395 109.754 23.7782C109.96 23.8462 110.183 23.8801 110.422 23.8801C110.661 23.8801 110.843 23.791 110.967 23.6128C111.099 23.4346 111.173 23.108 111.189 22.633V14.8703C111.189 13.428 110.773 12.6221 109.94 12.4523C109.684 12.4014 109.363 12.376 108.975 12.376C108.596 12.376 108.175 12.4354 107.714 12.5541C107.26 12.6729 106.831 12.8256 106.427 13.0123C105.627 13.3856 104.976 13.8309 104.473 14.3484V22.5057C104.473 23.2099 104.703 23.6425 105.166 23.8037C105.298 23.8546 105.454 23.897 105.635 23.9309C105.817 23.9649 105.978 24.0073 106.118 24.0583C106.266 24.1006 106.381 24.1516 106.464 24.211C106.604 24.3212 106.674 24.4994 106.674 24.7454C106.674 25.0423 106.608 25.2757 106.476 25.4453Z" fill="#382630"/>
<path d="M119.221 7.50205C118.941 7.50205 118.681 7.45961 118.442 7.37482C118.212 7.28143 118.009 7.14999 117.836 6.98033C117.474 6.62397 117.292 6.1446 117.292 5.5423C117.292 4.96538 117.506 4.47757 117.935 4.07883C118.347 3.68009 118.842 3.48071 119.419 3.48071C119.996 3.48071 120.458 3.65888 120.805 4.0152C121.151 4.37152 121.324 4.8551 121.324 5.46593C121.324 6.04285 121.118 6.53066 120.706 6.92937C120.302 7.31113 119.807 7.50205 119.221 7.50205ZM118.467 25.3817C117.197 25.3817 116.562 25.0847 116.562 24.4909C116.562 24.1855 116.628 23.9479 116.76 23.7783C116.958 23.8462 117.139 23.8801 117.304 23.8801C118.071 23.8801 118.446 23.3795 118.429 22.3784V13.8522C118.429 13.2584 118.347 12.8468 118.183 12.6178C118.026 12.3803 117.741 12.2615 117.329 12.2615C117.024 12.2615 116.747 12.2996 116.501 12.376C116.352 12.3929 116.245 12.2742 116.179 12.0197C116.121 11.7906 116.154 11.5913 116.278 11.4215C116.401 11.2434 116.591 11.061 116.846 10.8743C117.11 10.6792 117.399 10.5095 117.712 10.3654C118.388 10.0345 118.954 9.86903 119.407 9.86903C119.861 9.86903 120.194 9.93694 120.409 10.0726C120.632 10.2084 120.801 10.3908 120.916 10.6199C121.097 10.9931 121.188 11.5955 121.188 12.4269V22.5948C121.213 23.265 121.448 23.6722 121.893 23.8165C122.017 23.8588 122.169 23.897 122.351 23.931C122.532 23.9649 122.693 24.0073 122.833 24.0583C122.982 24.1006 123.097 24.1516 123.18 24.211C123.319 24.3212 123.389 24.4994 123.389 24.7454C123.389 25.0508 123.328 25.2841 123.205 25.4453C123.031 25.4029 122.767 25.3817 122.413 25.3817H118.467Z" fill="#382630"/>
<path d="M132.461 23.7656C131.258 25.0043 129.803 25.6236 128.096 25.6236C126.776 25.6236 125.721 25.2333 124.929 24.4529C124.129 23.6639 123.729 22.6415 123.729 21.3859C123.729 19.8249 124.405 18.6541 125.758 17.8736C126.978 17.161 128.697 16.8046 130.915 16.8046H132.461C132.469 16.4823 132.473 16.1684 132.473 15.8629V14.9085C132.473 13.7717 132.313 12.9699 131.991 12.5034C131.628 11.9774 131.01 11.7144 130.136 11.7144C128.133 11.7144 127.102 12.4524 127.044 13.9287C127.036 14.1577 127.04 14.3486 127.056 14.5013C126.891 14.637 126.611 14.7049 126.215 14.7049C125.827 14.7049 125.543 14.6583 125.362 14.565C125.188 14.4716 125.036 14.3444 124.904 14.1831C124.624 13.8523 124.483 13.4324 124.483 12.9233C124.483 12.4058 124.628 11.9562 124.917 11.5744C125.213 11.1842 125.614 10.866 126.116 10.62C127.098 10.1195 128.256 9.86914 129.592 9.86914C130.927 9.86914 131.93 10.0049 132.597 10.2764C133.273 10.5393 133.81 10.8914 134.205 11.3326C134.906 12.1131 135.257 13.1609 135.257 14.4759L135.133 20.5843C135.133 21.6956 135.183 22.3997 135.282 22.6967C135.389 22.9936 135.513 23.193 135.653 23.2948C135.801 23.3966 135.978 23.4475 136.185 23.4475C136.399 23.4475 136.572 23.4136 136.704 23.3457L137.051 23.1803C137.166 23.1379 137.265 23.1887 137.347 23.333C137.438 23.4687 137.483 23.5917 137.483 23.702C137.483 23.8038 137.438 23.9396 137.347 24.1092C137.265 24.2789 137.104 24.4613 136.865 24.6564C136.634 24.8431 136.37 25.0085 136.073 25.1528C134.432 25.9502 133.315 25.7636 132.721 24.5928C132.597 24.3638 132.511 24.0881 132.461 23.7656ZM132.424 22.0985C132.424 20.8769 132.432 19.6637 132.449 18.459C130.734 18.5269 129.567 18.6414 128.949 18.8026C128.338 18.9553 127.897 19.1038 127.625 19.248C127.354 19.3922 127.139 19.5619 126.982 19.757C126.726 20.0794 126.599 20.5672 126.599 21.2205C126.599 21.8653 126.821 22.3828 127.267 22.7731C127.712 23.1548 128.351 23.3457 129.183 23.3457C130.363 23.3457 131.443 22.93 132.424 22.0985Z" fill="#382630"/>
</g>
<defs>
<clipPath id="clip0_10495_175">
<rect width="138" height="32" fill="white" transform="translate(0.200195)"/>
</clipPath>
</defs>
</svg>
