<svg width="157" height="38" viewBox="0 0 157 38" fill="none" xmlns="http://www.w3.org/2000/svg">
<g clip-path="url(#clip0_10495_166)">
<path fill-rule="evenodd" clip-rule="evenodd" d="M18.9599 36.7208C28.978 36.7208 37.0994 28.6401 37.0994 18.6721C37.0994 8.704 28.978 0.623291 18.9599 0.623291C8.94164 0.623291 0.820312 8.704 0.820312 18.6721C0.820312 28.6401 8.94164 36.7208 18.9599 36.7208ZM24.6188 9.03116C24.8942 8.05762 23.9447 7.48194 23.0775 8.09665L10.9722 16.6773C10.0318 17.3439 10.1797 18.6721 11.1944 18.6721H14.3821V18.6475H20.5947L15.5326 20.4247L13.301 28.313C13.0255 29.2865 13.9749 29.8622 14.8422 29.2475L26.9475 20.6669C27.8879 20.0003 27.7399 18.6721 26.7253 18.6721H21.8913L24.6188 9.03116Z" fill="#3BC56A"/>
<path d="M44.5483 28.4754V8.78589H48.7321V25.0433H57.2157V28.4754H44.5483Z" fill="#192129"/>
<path d="M68.5194 22.1878V13.7083H72.6356V28.4754H68.6837V25.7931H68.5291C68.1942 26.6583 67.6369 27.3538 66.8576 27.8793C66.0845 28.4049 65.1408 28.6677 64.0264 28.6677C63.0345 28.6677 62.1616 28.4434 61.4079 27.9948C60.6543 27.5461 60.0648 26.9083 59.6397 26.0815C59.221 25.2547 59.0084 24.2644 59.002 23.1108V13.7083H63.1182V22.3801C63.1246 23.2518 63.3597 23.9408 63.8235 24.4471C64.2874 24.9535 64.9089 25.2067 65.6884 25.2067C66.1844 25.2067 66.6481 25.0945 67.0798 24.8702C67.5113 24.6394 67.8592 24.2997 68.1233 23.851C68.3939 23.4024 68.5259 22.848 68.5194 22.1878Z" fill="#192129"/>
<path d="M75.021 28.4753V13.7082H78.9438V16.3136H79.1178C79.427 15.4484 79.9423 14.7657 80.6637 14.2658C81.3852 13.7658 82.2484 13.5159 83.2534 13.5159C84.2711 13.5159 85.1375 13.7691 85.8525 14.2754C86.5675 14.7753 87.0441 15.4548 87.2825 16.3136H87.4371C87.7399 15.4676 88.2874 14.7914 89.0798 14.285C89.8784 13.7723 90.8222 13.5159 91.9108 13.5159C93.2958 13.5159 94.4195 13.9549 95.2829 14.833C96.1527 15.7046 96.5872 16.9417 96.5872 18.5441V28.4753H92.4813V19.3516C92.4813 18.5312 92.2618 17.9159 91.8237 17.5057C91.3857 17.0955 90.8383 16.8904 90.1813 16.8904C89.434 16.8904 88.851 17.1275 88.4324 17.6018C88.0136 18.0698 87.8043 18.6883 87.8043 19.4573V28.4753H83.8138V19.2651C83.8138 18.5408 83.6044 17.964 83.1857 17.5345C82.7734 17.1051 82.2291 16.8904 81.5528 16.8904C81.0954 16.8904 80.6831 17.0058 80.3159 17.2365C79.9552 17.4609 79.6685 17.7781 79.456 18.1883C79.2434 18.5921 79.1371 19.0664 79.1371 19.6112V28.4753H75.021Z" fill="#192129"/>
<path d="M105.696 28.7638C104.169 28.7638 102.855 28.4561 101.754 27.8408C100.659 27.2191 99.8146 26.3411 99.2223 25.2066C98.6292 24.0657 98.3335 22.7165 98.3335 21.1591C98.3335 19.64 98.6292 18.3069 99.2223 17.1596C99.8146 16.0124 100.649 15.1182 101.725 14.4773C102.807 13.8363 104.076 13.5159 105.531 13.5159C106.511 13.5159 107.422 13.6729 108.266 13.9869C109.117 14.2946 109.858 14.7593 110.489 15.381C111.126 16.0027 111.623 16.7847 111.976 17.7268C112.331 18.6626 112.508 19.7586 112.508 21.0149V22.1397H99.976V19.6016H108.633C108.633 19.0119 108.504 18.4896 108.247 18.0345C107.989 17.5795 107.632 17.2237 107.174 16.9673C106.723 16.7045 106.198 16.5732 105.599 16.5732C104.974 16.5732 104.42 16.7174 103.938 17.0058C103.461 17.2878 103.087 17.6692 102.817 18.1499C102.546 18.6241 102.408 19.153 102.401 19.7362V22.1493C102.401 22.8799 102.536 23.5113 102.807 24.0433C103.084 24.5753 103.473 24.9854 103.976 25.2738C104.478 25.5623 105.074 25.7065 105.763 25.7065C106.221 25.7065 106.64 25.6424 107.02 25.5142C107.4 25.386 107.725 25.1938 107.996 24.9374C108.266 24.681 108.473 24.367 108.614 23.9952L112.421 24.2451C112.227 25.1553 111.831 25.95 111.233 26.6295C110.64 27.3024 109.873 27.828 108.932 28.2061C107.999 28.5779 106.92 28.7638 105.696 28.7638Z" fill="#192129"/>
<path d="M126.635 17.9191L122.867 18.1499C122.803 17.8293 122.664 17.5409 122.452 17.2846C122.239 17.0218 121.959 16.8135 121.611 16.6597C121.27 16.4994 120.861 16.4193 120.384 16.4193C119.746 16.4193 119.208 16.5539 118.77 16.8231C118.332 17.0859 118.113 17.4384 118.113 17.8807C118.113 18.2332 118.255 18.5312 118.538 18.7747C118.822 19.0183 119.308 19.2138 119.997 19.3612L122.684 19.8996C124.127 20.1945 125.202 20.6688 125.911 21.3225C126.619 21.9762 126.974 22.8351 126.974 23.8991C126.974 24.8668 126.687 25.7161 126.114 26.4468C125.547 27.1774 124.767 27.7479 123.775 28.1581C122.79 28.5619 121.653 28.7638 120.365 28.7638C118.4 28.7638 116.835 28.3567 115.668 27.5427C114.509 26.7224 113.83 25.6072 113.629 24.1971L117.678 23.9856C117.801 24.5817 118.097 25.0368 118.567 25.3508C119.038 25.6585 119.64 25.8122 120.374 25.8122C121.096 25.8122 121.675 25.6744 122.113 25.3988C122.558 25.1168 122.784 24.7548 122.79 24.3125C122.784 23.9408 122.626 23.6363 122.316 23.3991C122.007 23.1555 121.53 22.9697 120.886 22.8415L118.316 22.332C116.866 22.0436 115.788 21.5436 115.079 20.8322C114.377 20.1207 114.026 19.2138 114.026 18.1114C114.026 17.1628 114.283 16.3456 114.798 15.6598C115.321 14.974 116.052 14.4452 116.992 14.0735C117.939 13.7018 119.047 13.5159 120.317 13.5159C122.19 13.5159 123.666 13.9101 124.742 14.6984C125.824 15.4868 126.455 16.5603 126.635 17.9191Z" fill="#192129"/>
<path d="M141.008 17.9191L137.239 18.1499C137.175 17.8293 137.036 17.5409 136.824 17.2846C136.61 17.0218 136.33 16.8135 135.983 16.6597C135.641 16.4994 135.232 16.4193 134.756 16.4193C134.118 16.4193 133.58 16.5539 133.142 16.8231C132.704 17.0859 132.485 17.4384 132.485 17.8807C132.485 18.2332 132.627 18.5312 132.91 18.7747C133.194 19.0183 133.68 19.2138 134.369 19.3612L137.055 19.8996C138.498 20.1945 139.574 20.6688 140.283 21.3225C140.991 21.9762 141.345 22.8351 141.345 23.8991C141.345 24.8668 141.058 25.7161 140.485 26.4468C139.918 27.1774 139.139 27.7479 138.147 28.1581C137.162 28.5619 136.025 28.7638 134.737 28.7638C132.771 28.7638 131.206 28.3567 130.04 27.5427C128.881 26.7224 128.201 25.6072 128.001 24.1971L132.05 23.9856C132.173 24.5817 132.469 25.0368 132.939 25.3508C133.409 25.6585 134.012 25.8122 134.746 25.8122C135.468 25.8122 136.047 25.6744 136.485 25.3988C136.93 25.1168 137.155 24.7548 137.162 24.3125C137.155 23.9408 136.997 23.6363 136.688 23.3991C136.379 23.1555 135.902 22.9697 135.258 22.8415L132.688 22.332C131.238 22.0436 130.159 21.5436 129.451 20.8322C128.749 20.1207 128.398 19.2138 128.398 18.1114C128.398 17.1628 128.655 16.3456 129.171 15.6598C129.692 14.974 130.424 14.4452 131.364 14.0735C132.311 13.7018 133.419 13.5159 134.688 13.5159C136.562 13.5159 138.037 13.9101 139.114 14.6984C140.196 15.4868 140.827 16.5603 141.008 17.9191Z" fill="#192129"/>
<path d="M147.262 28.7542C146.315 28.7542 145.472 28.5908 144.731 28.2638C143.99 27.9305 143.404 27.4402 142.972 26.7929C142.548 26.1391 142.334 25.3252 142.334 24.3509C142.334 23.5305 142.486 22.8415 142.789 22.2839C143.092 21.7263 143.504 21.2777 144.026 20.938C144.547 20.5982 145.14 20.3418 145.804 20.1688C146.473 19.9957 147.176 19.874 147.91 19.8034C148.773 19.7137 149.469 19.6304 149.997 19.5535C150.525 19.4702 150.908 19.3484 151.147 19.1881C151.385 19.028 151.504 18.7908 151.504 18.4768V18.4191C151.504 17.8101 151.311 17.3391 150.924 17.0058C150.544 16.6725 150.003 16.5058 149.301 16.5058C148.561 16.5058 147.971 16.6693 147.533 16.9962C147.095 17.3167 146.805 17.7204 146.663 18.2076L142.856 17.8999C143.05 17.0026 143.43 16.2271 143.997 15.5732C144.564 14.9131 145.295 14.4068 146.19 14.0543C147.092 13.6954 148.135 13.5159 149.321 13.5159C150.145 13.5159 150.934 13.6121 151.688 13.8043C152.448 13.9966 153.121 14.2946 153.707 14.6984C154.3 15.1022 154.767 15.6213 155.108 16.2559C155.449 16.884 155.621 17.6371 155.621 18.5152V28.4753H151.717V26.4275H151.601C151.363 26.889 151.043 27.296 150.644 27.6485C150.245 27.9947 149.765 28.267 149.205 28.4658C148.644 28.658 147.997 28.7542 147.262 28.7542ZM148.441 25.9277C149.047 25.9277 149.581 25.8091 150.046 25.5719C150.509 25.3283 150.873 25.0015 151.137 24.5912C151.402 24.1811 151.533 23.7164 151.533 23.1972V21.6301C151.404 21.7134 151.227 21.7904 151.002 21.8609C150.783 21.925 150.534 21.9859 150.258 22.0436C149.981 22.0948 149.704 22.1429 149.427 22.1878C149.149 22.2262 148.898 22.2615 148.673 22.2935C148.19 22.364 147.768 22.4762 147.407 22.6301C147.046 22.7838 146.767 22.9921 146.566 23.2549C146.367 23.5113 146.267 23.8317 146.267 24.2164C146.267 24.774 146.47 25.2002 146.876 25.495C147.288 25.7834 147.81 25.9277 148.441 25.9277Z" fill="#192129"/>
</g>
<defs>
<clipPath id="clip0_10495_166">
<rect width="156" height="37" fill="white" transform="translate(0.200195 0.5)"/>
</clipPath>
</defs>
</svg>
