<svg width="101" height="34" viewBox="0 0 101 34" fill="none" xmlns="http://www.w3.org/2000/svg">
<path d="M31.72 26V23.6H36.544C37.392 23.6 38.048 23.336 38.512 22.808C38.976 22.28 39.208 21.672 39.208 20.984C39.208 20.52 39.104 20.088 38.896 19.688C38.688 19.288 38.384 18.968 37.984 18.728C37.584 18.488 37.104 18.368 36.544 18.368H31.72V15.968H36.136C36.856 15.968 37.432 15.784 37.864 15.416C38.296 15.048 38.512 14.504 38.512 13.784C38.512 13.064 38.296 12.52 37.864 12.152C37.432 11.784 36.856 11.6 36.136 11.6H31.72V9.2H36.208C37.344 9.2 38.288 9.408 39.04 9.824C39.792 10.24 40.352 10.776 40.72 11.432C41.088 12.088 41.272 12.792 41.272 13.544C41.272 14.424 41.024 15.2 40.528 15.872C40.048 16.544 39.336 17.088 38.392 17.504L38.608 16.64C39.664 17.072 40.488 17.68 41.08 18.464C41.672 19.248 41.968 20.168 41.968 21.224C41.968 22.088 41.752 22.88 41.32 23.6C40.904 24.32 40.28 24.904 39.448 25.352C38.632 25.784 37.624 26 36.424 26H31.72ZM29.824 26V9.2H32.584V26H29.824ZM43.8937 26V8.72H46.5337V26H43.8937ZM53.7958 26.24C52.7558 26.24 51.8118 25.976 50.9638 25.448C50.1318 24.92 49.4678 24.208 48.9718 23.312C48.4918 22.4 48.2518 21.384 48.2518 20.264C48.2518 19.128 48.4918 18.112 48.9718 17.216C49.4678 16.304 50.1318 15.584 50.9638 15.056C51.8118 14.512 52.7558 14.24 53.7958 14.24C54.6758 14.24 55.4518 14.432 56.1238 14.816C56.8118 15.184 57.3558 15.696 57.7558 16.352C58.1558 17.008 58.3558 17.752 58.3558 18.584V21.896C58.3558 22.728 58.1558 23.472 57.7558 24.128C57.3718 24.784 56.8358 25.304 56.1478 25.688C55.4598 26.056 54.6758 26.24 53.7958 26.24ZM54.2278 23.744C55.2038 23.744 55.9878 23.416 56.5798 22.76C57.1878 22.104 57.4918 21.264 57.4918 20.24C57.4918 19.552 57.3558 18.944 57.0838 18.416C56.8118 17.888 56.4278 17.48 55.9318 17.192C55.4518 16.888 54.8838 16.736 54.2278 16.736C53.5878 16.736 53.0198 16.888 52.5238 17.192C52.0438 17.48 51.6598 17.888 51.3718 18.416C51.0998 18.944 50.9638 19.552 50.9638 20.24C50.9638 20.928 51.0998 21.536 51.3718 22.064C51.6598 22.592 52.0438 23.008 52.5238 23.312C53.0198 23.6 53.5878 23.744 54.2278 23.744ZM57.3238 26V22.904L57.7798 20.096L57.3238 17.312V14.48H59.9638V26H57.3238ZM61.5297 24.56L67.9617 15.92H71.0577L64.6257 24.56H61.5297ZM61.5297 26V24.56L63.9297 23.6H70.9137V26H61.5297ZM61.9617 16.88V14.48H71.0577V15.92L68.6577 16.88H61.9617ZM77.8863 26.24C76.7343 26.24 75.6943 25.984 74.7663 25.472C73.8543 24.944 73.1263 24.224 72.5823 23.312C72.0543 22.4 71.7903 21.376 71.7903 20.24C71.7903 19.104 72.0543 18.088 72.5823 17.192C73.1103 16.28 73.8223 15.56 74.7183 15.032C75.6303 14.504 76.6383 14.24 77.7423 14.24C78.8143 14.24 79.7583 14.488 80.5743 14.984C81.4063 15.48 82.0543 16.16 82.5183 17.024C82.9983 17.888 83.2383 18.872 83.2383 19.976C83.2383 20.168 83.2223 20.368 83.1903 20.576C83.1743 20.768 83.1423 20.984 83.0943 21.224H73.6383V19.064H81.7263L80.7423 19.928C80.7103 19.224 80.5743 18.632 80.3343 18.152C80.0943 17.672 79.7503 17.304 79.3023 17.048C78.8703 16.792 78.3343 16.664 77.6943 16.664C77.0223 16.664 76.4383 16.808 75.9423 17.096C75.4463 17.384 75.0623 17.792 74.7903 18.32C74.5183 18.832 74.3823 19.448 74.3823 20.168C74.3823 20.888 74.5263 21.52 74.8143 22.064C75.1023 22.608 75.5103 23.032 76.0383 23.336C76.5663 23.624 77.1743 23.768 77.8623 23.768C78.4543 23.768 78.9983 23.664 79.4943 23.456C80.0063 23.248 80.4383 22.944 80.7903 22.544L82.4703 24.248C81.9103 24.904 81.2303 25.4 80.4303 25.736C79.6303 26.072 78.7823 26.24 77.8863 26.24ZM96.3506 26L91.4066 18.512H90.9026L84.2546 9.2H87.5186L92.4866 16.256H92.9906L99.5666 26H96.3506ZM83.9666 26L90.3506 17.024L92.2466 18.632L87.0626 26H83.9666ZM93.1826 17.96L91.2866 16.352L96.1826 9.2H99.2786L93.1826 17.96Z" fill="#181C39"/>
<path d="M21.7934 21.4896L12.1001 17.6714L21.7934 13.8532C22.0478 13.753 22.2778 13.5983 22.4676 13.3998C22.6575 13.2013 22.8027 12.9635 22.8934 12.7029C22.9841 12.4422 23.0181 12.1648 22.993 11.8896C22.968 11.6144 22.8845 11.348 22.7483 11.1085C22.612 10.869 22.4262 10.6622 22.2036 10.5022C21.981 10.3422 21.7269 10.2329 21.4587 10.1816C21.1904 10.1303 20.9144 10.1383 20.6496 10.2051C20.3847 10.2719 20.1372 10.3958 19.924 10.5685L11.729 17.2047L11.7198 17.1444L13.3693 6.20835C13.4105 5.93544 13.3932 5.65672 13.3183 5.39124C13.2434 5.12576 13.1128 4.87978 12.9354 4.67011C12.758 4.46044 12.538 4.29202 12.2904 4.17637C12.0428 4.06072 11.7735 4.00056 11.5008 4C11.2278 4.00002 10.9581 4.05979 10.71 4.17521C10.462 4.29062 10.2415 4.45897 10.0637 4.6687C9.8859 4.87843 9.75497 5.1246 9.67988 5.39035C9.60479 5.65609 9.58732 5.93513 9.62865 6.20835L11.2781 17.1444L11.2689 17.2047L3.07755 10.5685C2.8644 10.3958 2.6169 10.2719 2.35203 10.2051C2.08715 10.1383 1.81115 10.1303 1.54293 10.1816C1.2747 10.2329 1.0206 10.3422 0.798011 10.5022C0.575424 10.6622 0.389617 10.869 0.253315 11.1085C0.11693 11.3479 0.0332737 11.6143 0.00808185 11.8895C-0.01711 12.1647 0.0167578 12.4421 0.107364 12.7028C0.19797 12.9635 0.343172 13.2013 0.533017 13.3998C0.722863 13.5984 0.952863 13.753 1.20725 13.8532L10.9042 17.6714L1.20725 21.4896C0.952863 21.5897 0.722863 21.7444 0.533017 21.9429C0.343172 22.1415 0.19797 22.3793 0.107364 22.64C0.0167578 22.9007 -0.01711 23.1781 0.00808185 23.4533C0.0332737 23.7285 0.11693 23.9949 0.253315 24.2343C0.389647 24.4737 0.575446 24.6805 0.798001 24.8405C1.02056 25.0005 1.27461 25.1099 1.54279 25.1612C1.81098 25.2126 2.08695 25.2047 2.35184 25.1381C2.61673 25.0715 2.86428 24.9477 3.07755 24.7752L11.1113 18.2689L9.62865 28.0813C9.5873 28.3545 9.60478 28.6334 9.67987 28.8991C9.75497 29.1648 9.88591 29.411 10.0637 29.6206C10.2415 29.8303 10.462 29.9985 10.7101 30.1139C10.9581 30.2292 11.2279 30.2888 11.5008 30.2887C11.7737 30.2888 12.0435 30.2292 12.2915 30.1139C12.5395 29.9985 12.76 29.8303 12.9378 29.6206C13.1157 29.411 13.2466 29.1648 13.3217 28.8991C13.3968 28.6334 13.4143 28.3545 13.3729 28.0813L11.8902 18.2689L19.924 24.7752C20.1373 24.9477 20.3848 25.0715 20.6497 25.1381C20.9146 25.2047 21.1906 25.2126 21.4588 25.1612C21.727 25.1099 21.981 25.0005 22.2036 24.8405C22.4261 24.6805 22.6119 24.4737 22.7483 24.2343C22.8845 23.9948 22.968 23.7283 22.993 23.4532C23.0181 23.178 22.9841 22.9005 22.8934 22.6399C22.8027 22.3792 22.6575 22.1415 22.4676 21.943C22.2778 21.7444 22.0478 21.5898 21.7934 21.4896Z" fill="#5869FC"/>
</svg>
