<svg width="249" height="48" viewBox="0 0 249 48" fill="none" xmlns="http://www.w3.org/2000/svg">
<g filter="url(#filter0_b_8160_3525)">
<rect width="249" height="48" rx="24" fill="white"/>
</g>
<path fill-rule="evenodd" clip-rule="evenodd" d="M23.9998 35.2001C30.1854 35.2001 35.1998 30.1856 35.1998 24C35.1998 17.8145 30.1854 12.8 23.9998 12.8C17.8142 12.8 12.7998 17.8145 12.7998 24C12.7998 30.1856 17.8142 35.2001 23.9998 35.2001ZM29.1898 22.19C29.7365 21.6433 29.7365 20.7568 29.1898 20.2101C28.643 19.6634 27.7566 19.6634 27.2099 20.2101L22.5998 24.8201L20.7898 23.0101C20.243 22.4634 19.3566 22.4634 18.8099 23.0101C18.2631 23.5568 18.2631 24.4433 18.8099 24.99L21.6099 27.79C22.1566 28.3367 23.043 28.3367 23.5898 27.79L29.1898 22.19Z" fill="#E97A58"/>
<path d="M48.878 30.18C47.882 30.18 47.036 30 46.34 29.64C45.644 29.28 45.02 28.752 44.468 28.056L45.872 26.652C46.22 27.156 46.634 27.552 47.114 27.84C47.594 28.116 48.206 28.254 48.95 28.254C49.646 28.254 50.198 28.11 50.606 27.822C51.026 27.534 51.236 27.138 51.236 26.634C51.236 26.214 51.128 25.872 50.912 25.608C50.696 25.344 50.408 25.128 50.048 24.96C49.7 24.78 49.31 24.624 48.878 24.492C48.458 24.348 48.032 24.192 47.6 24.024C47.18 23.844 46.79 23.622 46.43 23.358C46.082 23.094 45.8 22.752 45.584 22.332C45.368 21.912 45.26 21.378 45.26 20.73C45.26 19.986 45.44 19.356 45.8 18.84C46.172 18.312 46.67 17.91 47.294 17.634C47.918 17.358 48.614 17.22 49.382 17.22C50.21 17.22 50.948 17.382 51.596 17.706C52.256 18.03 52.79 18.444 53.198 18.948L51.794 20.352C51.434 19.944 51.056 19.644 50.66 19.452C50.276 19.248 49.832 19.146 49.328 19.146C48.704 19.146 48.212 19.272 47.852 19.524C47.504 19.776 47.33 20.13 47.33 20.586C47.33 20.97 47.438 21.282 47.654 21.522C47.87 21.75 48.152 21.948 48.5 22.116C48.86 22.272 49.25 22.422 49.67 22.566C50.102 22.71 50.528 22.872 50.948 23.052C51.38 23.232 51.77 23.466 52.118 23.754C52.478 24.03 52.766 24.39 52.982 24.834C53.198 25.278 53.306 25.836 53.306 26.508C53.306 27.636 52.904 28.53 52.1 29.19C51.308 29.85 50.234 30.18 48.878 30.18ZM56.414 30V17.76H58.394V30H56.414ZM54.344 23.16V21.36H60.464V23.16H54.344ZM61.9027 30V21.36H63.8827V30H61.9027ZM63.8827 25.194L63.1987 24.852C63.1987 23.76 63.4387 22.878 63.9187 22.206C64.4107 21.522 65.1487 21.18 66.1327 21.18C66.5647 21.18 66.9547 21.258 67.3027 21.414C67.6507 21.57 67.9747 21.822 68.2747 22.17L66.9787 23.502C66.8227 23.334 66.6487 23.214 66.4567 23.142C66.2647 23.07 66.0427 23.034 65.7907 23.034C65.2387 23.034 64.7827 23.208 64.4227 23.556C64.0627 23.904 63.8827 24.45 63.8827 25.194ZM72.9291 30.18C72.0891 30.18 71.3271 29.982 70.6431 29.586C69.9591 29.178 69.4131 28.632 69.0051 27.948C68.6091 27.264 68.4111 26.502 68.4111 25.662C68.4111 24.822 68.6091 24.066 69.0051 23.394C69.4131 22.722 69.9591 22.188 70.6431 21.792C71.3271 21.384 72.0891 21.18 72.9291 21.18C73.7811 21.18 74.5491 21.378 75.2331 21.774C75.9171 22.17 76.4571 22.71 76.8531 23.394C77.2611 24.066 77.4651 24.822 77.4651 25.662C77.4651 26.502 77.2611 27.264 76.8531 27.948C76.4571 28.632 75.9171 29.178 75.2331 29.586C74.5491 29.982 73.7811 30.18 72.9291 30.18ZM72.9291 28.272C73.4211 28.272 73.8531 28.164 74.2251 27.948C74.6091 27.72 74.9031 27.408 75.1071 27.012C75.3231 26.616 75.4311 26.166 75.4311 25.662C75.4311 25.158 75.3231 24.714 75.1071 24.33C74.8911 23.946 74.5971 23.646 74.2251 23.43C73.8531 23.202 73.4211 23.088 72.9291 23.088C72.4491 23.088 72.0171 23.202 71.6331 23.43C71.2611 23.646 70.9671 23.946 70.7511 24.33C70.5471 24.714 70.4451 25.158 70.4451 25.662C70.4451 26.166 70.5471 26.616 70.7511 27.012C70.9671 27.408 71.2611 27.72 71.6331 27.948C72.0171 28.164 72.4491 28.272 72.9291 28.272ZM85.0337 30V25.014C85.0337 24.438 84.8477 23.964 84.4757 23.592C84.1157 23.22 83.6477 23.034 83.0717 23.034C82.6877 23.034 82.3457 23.118 82.0457 23.286C81.7457 23.454 81.5117 23.688 81.3437 23.988C81.1757 24.288 81.0917 24.63 81.0917 25.014L80.3177 24.582C80.3177 23.922 80.4617 23.34 80.7497 22.836C81.0377 22.32 81.4337 21.918 81.9377 21.63C82.4537 21.33 83.0297 21.18 83.6657 21.18C84.3137 21.18 84.8897 21.348 85.3937 21.684C85.8977 22.008 86.2937 22.434 86.5817 22.962C86.8697 23.478 87.0137 24.018 87.0137 24.582V30H85.0337ZM79.1117 30V21.36H81.0917V30H79.1117ZM92.6257 33.78C91.7137 33.78 90.9157 33.612 90.2317 33.276C89.5477 32.952 88.9957 32.49 88.5757 31.89L89.8717 30.594C90.2197 31.026 90.6157 31.35 91.0597 31.566C91.5037 31.782 92.0377 31.89 92.6617 31.89C93.4417 31.89 94.0597 31.686 94.5157 31.278C94.9717 30.882 95.1997 30.336 95.1997 29.64V27.516L95.5417 25.608L95.1997 23.682V21.36H97.1797V29.64C97.1797 30.468 96.9877 31.188 96.6037 31.8C96.2197 32.424 95.6857 32.91 95.0017 33.258C94.3177 33.606 93.5257 33.78 92.6257 33.78ZM92.5357 29.82C91.7677 29.82 91.0717 29.634 90.4477 29.262C89.8357 28.878 89.3497 28.356 88.9897 27.696C88.6417 27.036 88.4677 26.298 88.4677 25.482C88.4677 24.666 88.6417 23.934 88.9897 23.286C89.3497 22.638 89.8357 22.128 90.4477 21.756C91.0717 21.372 91.7677 21.18 92.5357 21.18C93.2197 21.18 93.8197 21.318 94.3357 21.594C94.8517 21.87 95.2537 22.254 95.5417 22.746C95.8297 23.226 95.9737 23.79 95.9737 24.438V26.562C95.9737 27.198 95.8237 27.762 95.5237 28.254C95.2357 28.746 94.8337 29.13 94.3177 29.406C93.8017 29.682 93.2077 29.82 92.5357 29.82ZM92.9317 27.948C93.4117 27.948 93.8317 27.846 94.1917 27.642C94.5517 27.438 94.8277 27.156 95.0197 26.796C95.2237 26.424 95.3257 25.992 95.3257 25.5C95.3257 25.008 95.2237 24.582 95.0197 24.222C94.8277 23.85 94.5517 23.562 94.1917 23.358C93.8317 23.154 93.4117 23.052 92.9317 23.052C92.4517 23.052 92.0257 23.154 91.6537 23.358C91.2937 23.562 91.0117 23.85 90.8077 24.222C90.6037 24.582 90.5017 25.008 90.5017 25.5C90.5017 25.98 90.6037 26.406 90.8077 26.778C91.0117 27.15 91.2937 27.438 91.6537 27.642C92.0257 27.846 92.4517 27.948 92.9317 27.948ZM105.809 30.18C105.329 30.18 104.867 30.12 104.423 30C103.979 29.868 103.571 29.688 103.199 29.46C102.827 29.22 102.503 28.932 102.227 28.596L103.487 27.336C103.787 27.684 104.129 27.948 104.513 28.128C104.909 28.296 105.353 28.38 105.845 28.38C106.289 28.38 106.625 28.314 106.853 28.182C107.081 28.05 107.195 27.858 107.195 27.606C107.195 27.342 107.087 27.138 106.871 26.994C106.655 26.85 106.373 26.73 106.025 26.634C105.689 26.526 105.329 26.418 104.945 26.31C104.573 26.202 104.213 26.058 103.865 25.878C103.529 25.686 103.253 25.428 103.037 25.104C102.821 24.78 102.713 24.36 102.713 23.844C102.713 23.292 102.839 22.818 103.091 22.422C103.355 22.026 103.721 21.72 104.189 21.504C104.669 21.288 105.239 21.18 105.899 21.18C106.595 21.18 107.207 21.306 107.735 21.558C108.275 21.798 108.725 22.164 109.085 22.656L107.825 23.916C107.573 23.604 107.285 23.37 106.961 23.214C106.637 23.058 106.265 22.98 105.845 22.98C105.449 22.98 105.143 23.04 104.927 23.16C104.711 23.28 104.603 23.454 104.603 23.682C104.603 23.922 104.711 24.108 104.927 24.24C105.143 24.372 105.419 24.486 105.755 24.582C106.103 24.678 106.463 24.786 106.835 24.906C107.219 25.014 107.579 25.17 107.915 25.374C108.263 25.566 108.545 25.83 108.761 26.166C108.977 26.49 109.085 26.916 109.085 27.444C109.085 28.284 108.791 28.95 108.203 29.442C107.615 29.934 106.817 30.18 105.809 30.18ZM114.731 30.18C113.867 30.18 113.087 29.988 112.391 29.604C111.707 29.208 111.161 28.668 110.753 27.984C110.357 27.3 110.159 26.532 110.159 25.68C110.159 24.828 110.357 24.066 110.753 23.394C111.149 22.71 111.683 22.17 112.355 21.774C113.039 21.378 113.795 21.18 114.623 21.18C115.427 21.18 116.135 21.366 116.747 21.738C117.371 22.11 117.857 22.62 118.205 23.268C118.565 23.916 118.745 24.654 118.745 25.482C118.745 25.626 118.733 25.776 118.709 25.932C118.697 26.076 118.673 26.238 118.637 26.418H111.545V24.798H117.611L116.873 25.446C116.849 24.918 116.747 24.474 116.567 24.114C116.387 23.754 116.129 23.478 115.793 23.286C115.469 23.094 115.067 22.998 114.587 22.998C114.083 22.998 113.645 23.106 113.273 23.322C112.901 23.538 112.613 23.844 112.409 24.24C112.205 24.624 112.103 25.086 112.103 25.626C112.103 26.166 112.211 26.64 112.427 27.048C112.643 27.456 112.949 27.774 113.345 28.002C113.741 28.218 114.197 28.326 114.713 28.326C115.157 28.326 115.565 28.248 115.937 28.092C116.321 27.936 116.645 27.708 116.909 27.408L118.169 28.686C117.749 29.178 117.239 29.55 116.639 29.802C116.039 30.054 115.403 30.18 114.731 30.18ZM124.31 30.18C123.458 30.18 122.684 29.982 121.988 29.586C121.304 29.19 120.764 28.65 120.368 27.966C119.972 27.282 119.774 26.52 119.774 25.68C119.774 24.828 119.972 24.066 120.368 23.394C120.764 22.71 121.304 22.17 121.988 21.774C122.684 21.378 123.458 21.18 124.31 21.18C124.982 21.18 125.606 21.312 126.182 21.576C126.77 21.828 127.268 22.194 127.676 22.674L126.38 23.988C126.128 23.688 125.822 23.466 125.462 23.322C125.114 23.166 124.73 23.088 124.31 23.088C123.818 23.088 123.38 23.202 122.996 23.43C122.624 23.646 122.33 23.946 122.114 24.33C121.91 24.714 121.808 25.164 121.808 25.68C121.808 26.184 121.91 26.634 122.114 27.03C122.33 27.414 122.624 27.72 122.996 27.948C123.38 28.164 123.818 28.272 124.31 28.272C124.73 28.272 125.114 28.2 125.462 28.056C125.822 27.9 126.128 27.672 126.38 27.372L127.676 28.686C127.268 29.166 126.77 29.538 126.182 29.802C125.606 30.054 124.982 30.18 124.31 30.18ZM132.65 30.18C131.918 30.18 131.264 30.018 130.688 29.694C130.124 29.37 129.68 28.926 129.356 28.362C129.044 27.786 128.888 27.126 128.888 26.382V21.36H130.868V26.292C130.868 26.712 130.934 27.072 131.066 27.372C131.21 27.66 131.414 27.882 131.678 28.038C131.954 28.194 132.278 28.272 132.65 28.272C133.226 28.272 133.664 28.104 133.964 27.768C134.276 27.42 134.432 26.928 134.432 26.292V21.36H136.412V26.382C136.412 27.138 136.25 27.804 135.926 28.38C135.614 28.944 135.176 29.388 134.612 29.712C134.048 30.024 133.394 30.18 132.65 30.18ZM138.403 30V21.36H140.383V30H138.403ZM140.383 25.194L139.699 24.852C139.699 23.76 139.939 22.878 140.419 22.206C140.911 21.522 141.649 21.18 142.633 21.18C143.065 21.18 143.455 21.258 143.803 21.414C144.151 21.57 144.475 21.822 144.775 22.17L143.479 23.502C143.323 23.334 143.149 23.214 142.957 23.142C142.765 23.07 142.543 23.034 142.291 23.034C141.739 23.034 141.283 23.208 140.923 23.556C140.563 23.904 140.383 24.45 140.383 25.194ZM145.751 30V21.36H147.731V30H145.751ZM146.741 19.776C146.405 19.776 146.123 19.662 145.895 19.434C145.679 19.206 145.571 18.924 145.571 18.588C145.571 18.252 145.679 17.97 145.895 17.742C146.123 17.514 146.405 17.4 146.741 17.4C147.089 17.4 147.371 17.514 147.587 17.742C147.803 17.97 147.911 18.252 147.911 18.588C147.911 18.924 147.803 19.206 147.587 19.434C147.371 19.662 147.089 19.776 146.741 19.776ZM151.266 30V17.76H153.246V30H151.266ZM149.196 23.16V21.36H155.316V23.16H149.196ZM159.544 30.09L155.854 21.36H158.032L160.552 27.768H159.922L162.586 21.36H164.782L160.768 30.09H159.544ZM156.97 33.6L159.652 28.074L160.768 30.09L159.166 33.6H156.97ZM172.5 30.18C172.02 30.18 171.558 30.12 171.114 30C170.67 29.868 170.262 29.688 169.89 29.46C169.518 29.22 169.194 28.932 168.918 28.596L170.178 27.336C170.478 27.684 170.82 27.948 171.204 28.128C171.6 28.296 172.044 28.38 172.536 28.38C172.98 28.38 173.316 28.314 173.544 28.182C173.772 28.05 173.886 27.858 173.886 27.606C173.886 27.342 173.778 27.138 173.562 26.994C173.346 26.85 173.064 26.73 172.716 26.634C172.38 26.526 172.02 26.418 171.636 26.31C171.264 26.202 170.904 26.058 170.556 25.878C170.22 25.686 169.944 25.428 169.728 25.104C169.512 24.78 169.404 24.36 169.404 23.844C169.404 23.292 169.53 22.818 169.782 22.422C170.046 22.026 170.412 21.72 170.88 21.504C171.36 21.288 171.93 21.18 172.59 21.18C173.286 21.18 173.898 21.306 174.426 21.558C174.966 21.798 175.416 22.164 175.776 22.656L174.516 23.916C174.264 23.604 173.976 23.37 173.652 23.214C173.328 23.058 172.956 22.98 172.536 22.98C172.14 22.98 171.834 23.04 171.618 23.16C171.402 23.28 171.294 23.454 171.294 23.682C171.294 23.922 171.402 24.108 171.618 24.24C171.834 24.372 172.11 24.486 172.446 24.582C172.794 24.678 173.154 24.786 173.526 24.906C173.91 25.014 174.27 25.17 174.606 25.374C174.954 25.566 175.236 25.83 175.452 26.166C175.668 26.49 175.776 26.916 175.776 27.444C175.776 28.284 175.482 28.95 174.894 29.442C174.306 29.934 173.508 30.18 172.5 30.18ZM180.199 30.09L176.509 21.36H178.687L181.207 27.768H180.577L183.241 21.36H185.437L181.423 30.09H180.199ZM177.625 33.6L180.307 28.074L181.423 30.09L179.821 33.6H177.625ZM189.235 30.18C188.755 30.18 188.293 30.12 187.849 30C187.405 29.868 186.997 29.688 186.625 29.46C186.253 29.22 185.929 28.932 185.653 28.596L186.913 27.336C187.213 27.684 187.555 27.948 187.939 28.128C188.335 28.296 188.779 28.38 189.271 28.38C189.715 28.38 190.051 28.314 190.279 28.182C190.507 28.05 190.621 27.858 190.621 27.606C190.621 27.342 190.513 27.138 190.297 26.994C190.081 26.85 189.799 26.73 189.451 26.634C189.115 26.526 188.755 26.418 188.371 26.31C187.999 26.202 187.639 26.058 187.291 25.878C186.955 25.686 186.679 25.428 186.463 25.104C186.247 24.78 186.139 24.36 186.139 23.844C186.139 23.292 186.265 22.818 186.517 22.422C186.781 22.026 187.147 21.72 187.615 21.504C188.095 21.288 188.665 21.18 189.325 21.18C190.021 21.18 190.633 21.306 191.161 21.558C191.701 21.798 192.151 22.164 192.511 22.656L191.251 23.916C190.999 23.604 190.711 23.37 190.387 23.214C190.063 23.058 189.691 22.98 189.271 22.98C188.875 22.98 188.569 23.04 188.353 23.16C188.137 23.28 188.029 23.454 188.029 23.682C188.029 23.922 188.137 24.108 188.353 24.24C188.569 24.372 188.845 24.486 189.181 24.582C189.529 24.678 189.889 24.786 190.261 24.906C190.645 25.014 191.005 25.17 191.341 25.374C191.689 25.566 191.971 25.83 192.187 26.166C192.403 26.49 192.511 26.916 192.511 27.444C192.511 28.284 192.217 28.95 191.629 29.442C191.041 29.934 190.243 30.18 189.235 30.18ZM195.457 30V17.76H197.437V30H195.457ZM193.387 23.16V21.36H199.507V23.16H193.387ZM204.714 30.18C203.85 30.18 203.07 29.988 202.374 29.604C201.69 29.208 201.144 28.668 200.736 27.984C200.34 27.3 200.142 26.532 200.142 25.68C200.142 24.828 200.34 24.066 200.736 23.394C201.132 22.71 201.666 22.17 202.338 21.774C203.022 21.378 203.778 21.18 204.606 21.18C205.41 21.18 206.118 21.366 206.73 21.738C207.354 22.11 207.84 22.62 208.188 23.268C208.548 23.916 208.728 24.654 208.728 25.482C208.728 25.626 208.716 25.776 208.692 25.932C208.68 26.076 208.656 26.238 208.62 26.418H201.528V24.798H207.594L206.856 25.446C206.832 24.918 206.73 24.474 206.55 24.114C206.37 23.754 206.112 23.478 205.776 23.286C205.452 23.094 205.05 22.998 204.57 22.998C204.066 22.998 203.628 23.106 203.256 23.322C202.884 23.538 202.596 23.844 202.392 24.24C202.188 24.624 202.086 25.086 202.086 25.626C202.086 26.166 202.194 26.64 202.41 27.048C202.626 27.456 202.932 27.774 203.328 28.002C203.724 28.218 204.18 28.326 204.696 28.326C205.14 28.326 205.548 28.248 205.92 28.092C206.304 27.936 206.628 27.708 206.892 27.408L208.152 28.686C207.732 29.178 207.222 29.55 206.622 29.802C206.022 30.054 205.386 30.18 204.714 30.18ZM210.315 30V21.36H212.295V30H210.315ZM216.057 30V24.852C216.057 24.276 215.877 23.832 215.517 23.52C215.157 23.196 214.713 23.034 214.185 23.034C213.825 23.034 213.501 23.106 213.213 23.25C212.937 23.394 212.715 23.604 212.547 23.88C212.379 24.144 212.295 24.468 212.295 24.852L211.521 24.42C211.521 23.76 211.665 23.19 211.953 22.71C212.241 22.23 212.631 21.858 213.123 21.594C213.615 21.318 214.167 21.18 214.779 21.18C215.391 21.18 215.943 21.312 216.435 21.576C216.927 21.84 217.317 22.212 217.605 22.692C217.893 23.172 218.037 23.748 218.037 24.42V30H216.057ZM221.799 30V24.852C221.799 24.276 221.619 23.832 221.259 23.52C220.899 23.196 220.455 23.034 219.927 23.034C219.579 23.034 219.261 23.106 218.973 23.25C218.685 23.394 218.457 23.604 218.289 23.88C218.121 24.144 218.037 24.468 218.037 24.852L216.921 24.42C216.981 23.76 217.173 23.19 217.497 22.71C217.821 22.23 218.235 21.858 218.739 21.594C219.255 21.318 219.819 21.18 220.431 21.18C221.055 21.18 221.619 21.312 222.123 21.576C222.627 21.84 223.029 22.212 223.329 22.692C223.629 23.172 223.779 23.748 223.779 24.42V30H221.799Z" fill="#181C39"/>
<defs>
<filter id="filter0_b_8160_3525" x="-4" y="-4" width="257" height="56" filterUnits="userSpaceOnUse" color-interpolation-filters="sRGB">
<feFlood flood-opacity="0" result="BackgroundImageFix"/>
<feGaussianBlur in="BackgroundImageFix" stdDeviation="2"/>
<feComposite in2="SourceAlpha" operator="in" result="effect1_backgroundBlur_8160_3525"/>
<feBlend mode="normal" in="SourceGraphic" in2="effect1_backgroundBlur_8160_3525" result="shape"/>
</filter>
</defs>
</svg>
